<?xml version="1.0" encoding="UTF-8" standalone="no"?>
<!DOCTYPE svg  PUBLIC '-//W3C//DTD SVG 1.1//EN'  'http://www.w3.org/Graphics/SVG/1.1/DTD/svg11.dtd'>
<svg xmlns="http://www.w3.org/2000/svg" version="1.1">
<defs>
<font id="STHeitiSC-Medium" horiz-adv-x="256">
<font-face font-weight="400" panose-1="3 0 5 9 0 0 0 0 0 0" x-height="170" cap-height="203" bbox="-6 -54.2 284 220.105" underline-position="-71" unicode-range="U+0020-00FC" ascent="204" units-per-em="256" descent="-52" underline-thickness="12" font-family="Heiti SC"/>
<missing-glyph/>
<glyph unicode=" " horiz-adv-x="68" glyph-name="space"/>
<glyph unicode="!" horiz-adv-x="190" glyph-name="exclam" d="M70 195q6 0 16 -9q12 9 22 9q22 0 28 -39q0 -39 -44 -104h-8q-15 10 -43 93l-2 22q0 23 31 28zM52 164l3 -11q9 5 20 23h-11q-12 -4 -12 -12zM94 167q-6 2 -8 2q-27 -31 -27 -35q3 -4 3 -6l61 53h-6q-4 0 -23 -14zM66 101q1 1 55 40v17h-2q-53 -44 -53 -57zM73 91v-2 q7 -4 7 -7h4q19 11 33 29q-7 0 -44 -20zM86 43h2q6 2 14 -11q16 -3 18 -9l1 -1q-2 -6 -12 -18q2 -11 -3 -15l-2 -1q-3 -1 -17 3l-12 -5q-4 1 -7 3v2l-2 15q-8 7 -9 12q-2 6 4 8l12 4q8 11 13 13zM69 17q7 -5 8 -8l1 -9l8 3l13 -4h-1q-3 10 7 18l2 3q-12 1 -14 7q-1 -1 -3 5 l-1 -1q-6 -10 -20 -14z"/>
<glyph unicode='&quot;' horiz-adv-x="105" glyph-name="quotedbl" d="M60 132v40q0 12 14 13q12 -1 13 -13v-40q-1 -14 -13 -14q-14 0 -14 14zM18 132v40q0 12 14 13q13 -1 14 -13v-40q-1 -14 -14 -14q-14 0 -14 14z"/>
<glyph unicode="#" horiz-adv-x="138" glyph-name="numbersign" d="M34 88l4 26h-20q-11 0 -11 11q0 10 11 10h23l5 38q0 11 12 11q10 -1 10 -9v-4v-2l-5 -34h23l4 38q2 11 12 11q10 -1 11 -9q0 -3 -1 -4v-2l-5 -34h20q11 0 12 -10q-1 -11 -12 -11h-23l-3 -26h20q9 -1 10 -12q0 -11 -10 -11h-24l-5 -37q-2 -10 -11 -10q-11 0 -11 9v5l5 33 h-22l-5 -37q-1 -10 -12 -10q-10 0 -10 9v5l5 33h-20q-11 0 -11 11q1 11 11 12h23zM60 114l-3 -26h21l4 26h-22z"/>
<glyph unicode="$" horiz-adv-x="124" glyph-name="dollar" d="M68 85v-33q15 4 15 19q0 9 -15 14zM56 127v26q-12 -4 -12 -14q0 -9 12 -12zM56 51v39q-51 10 -49 45q2 44 49 52v7q-1 11 7 11q5 0 5 -11v-7q39 -4 41 -22q-2 -18 -16 -18q-4 0 -13 3q-7 3 -12 4v-31l4 -2q50 -12 49 -50q-3 -47 -53 -50v-1v-7q0 -11 -5 -11q-7 0 -7 11v7 q-50 1 -50 24q1 14 15 16q5 0 17 -4q11 -5 18 -5z"/>
<glyph unicode="%" horiz-adv-x="223" glyph-name="percent" d="M159 174q3 -1 4.5 -6t-1.5 -7l-10 -16q-10 -18 -21 -37.5t-24 -38.5q-12 -19 -25.5 -36.5t-27.5 -32.5q-3 -3 -7.5 -3t-7.5 3q-2 2 -2.5 6.5t2.5 6.5q13 14 26.5 31t26.5 36q12 18 23 37.5t21 37.5l10 17q1 1 5.5 2.5t7.5 -0.5zM66 132q9 11 16 13.5t11 0.5 q4 -3 5.5 -8.5t-1.5 -10.5q-1 -5 -5.5 -10.5t-10.5 -10.5q-6 -4 -11.5 -6.5t-8.5 -1.5q-3 0 -7 3t-8 7q-4 5 -7 10t-5 10q-4 10 -1 17t9 9q7 2 13.5 -3.5t10.5 -18.5zM164 53q9 11 16 13.5t11 0.5q4 -3 5.5 -8.5t-0.5 -10.5t-6.5 -10.5t-10.5 -10.5q-6 -4 -11.5 -7t-7.5 -2 q-4 1 -8 4t-8 7t-7 9.5t-5 10.5q-4 10 -1 17t9 9q7 1 14 -4t10 -18z"/>
<glyph unicode="&amp;" horiz-adv-x="276" glyph-name="ampersand" d="M212 167q0 -4 10 -8l-2 -5v-3q48 -8 48 -35v-13q0 -128 -112 -128h-18q-106 0 -128 82q-5 14 -5 41q0 54 138 66h13q20 0 33 -7q15 10 23 10zM12 100v-10q0 -34 52 -38h61q115 0 133 38q5 19 5 26q-12 28 -38 28h-15v-5h15q31 -8 31 -29v-2q0 -46 -154 -46h-8 q-71 0 -71 31q0 26 69 48q0 8 20 8q16 -5 26 -5q25 0 43 7v3q-18 5 -28 5q-141 -11 -141 -59zM112 93h-13l-5 2v-2q8 -6 18 -6q46 6 46 31q39 20 54 39v2q-12 0 -66 -38q0 -24 -34 -28zM92 110q3 -12 20 -12q26 7 26 25v3q-9 15 -31 15h-5q-8 0 -10 -31zM140 136q1 -5 6 -5 q10 4 10 8h-3zM112 80q-28 0 -28 33q3 5 3 10v8q-30 0 -59 -38q9 -26 77 -26q143 7 143 41v8q-10 18 -41 18h-10q-37 -20 -41 -39q-20 -13 -44 -15zM248 64v-18q0 -5 -3 -10v-2h3q10 26 10 41q-4 0 -10 -11zM230 52q8 5 13 5v2h-3q-10 -4 -10 -7zM18 57v-3q24 -56 51 -56 q-13 21 -13 36l-5 -3l-3 5h5v8q-18 0 -35 13zM238 52l-3 -6q5 3 8 3v3h-5zM161 44v-3q5 -6 5 -10q0 -10 3 -46h5q16 0 33 46l-3 5l6 13h-3zM92 41q0 -5 -3 -5q18 -54 41 -54h23v3q-15 0 -25 56h-36zM210 11q4 -3 7 -3q18 9 18 21q-2 4 -2 7l5 -2h2v7q-14 0 -30 -30zM148 21 v-3h3q4 3 7 3v5q-6 -5 -10 -5zM66 18v-2h5l3 5q-5 -3 -8 -3zM76 -2q1 -5 6 -5q0 3 2 7q-5 -2 -8 -2zM87 -7v-3h5l2 5q-5 -2 -7 -2z"/>
<glyph unicode="&apos;" horiz-adv-x="58" glyph-name="quotesingle" d="M15 132v40q0 12 14 13q13 -1 14 -13v-40q-1 -14 -14 -14q-14 0 -14 14z"/>
<glyph unicode="(" horiz-adv-x="253" glyph-name="parenleft" d="M224 203q14 0 28 -48q-5 -11 -11 -12q-10 0 -13 31q-12 17 -12 23q0 3 8 6zM105 197h21q53 0 77 -78l6 -44v-18q0 -15 -20 -53v-8q0 -17 4 -24q-5 -12 -12 -12q-8 0 -11 39q0 7 20 51v23h1l-23 -24l2 -7q0 -26 -66 -36q-27 5 -27 36v10l-4 4q-15 -10 -26 -10h-5v1 q0 -5 25 -46l4 -16q-2 -21 -10 -21q-11 0 -11 34q-45 62 -49 96l-1 4v14q2 28 37 64q42 21 68 21zM202 187q24 -12 24 -42l-8 -5q-8 0 -14 25l-10 13zM20 116v-21q0 -19 20 -30h10q14 0 20 28h10l6 -5l-2 -14q3 -9 11 -9h10q5 0 14 28h7q6 0 9 -23q6 -5 11 -5h5q19 0 34 40 v3q0 39 -41 68l-18 4h-16q-32 0 -69 -23q-21 -26 -21 -41z"/>
<glyph unicode=")" horiz-adv-x="253" glyph-name="parenright" d="M41 193q0 -6 -12 -23q-3 -31 -13 -31q-5 1 -11 12q14 48 28 48q8 -3 8 -6zM218 172q34 -35 37 -63v-14l-1 -4q-5 -33 -48 -95q0 -33 -12 -33q-7 0 -9 21l3 15q25 41 25 45v-1h-5q-11 0 -25 10l-4 -4v-9q0 -31 -27 -36q-65 9 -65 36l1 6l-23 24h2v-23q19 -43 19 -50 q-2 -39 -11 -39q-6 0 -11 13q4 6 4 23v8q-20 37 -20 52v18l6 43q24 78 76 78h21q25 0 67 -21zM63 174l-10 -13q-5 -25 -14 -25l-8 6q0 29 23 41zM214 153q-36 23 -68 23h-16l-18 -4q-41 -29 -41 -68v-2q16 -40 35 -40h4q5 0 12 5q2 23 8 23h7q8 -28 14 -28h10q7 0 10 9 l-1 14l5 5h11q5 -28 19 -28h10q20 11 20 30v21q0 14 -21 40z"/>
<glyph unicode="*" horiz-adv-x="90" glyph-name="asterisk" d="M47 184q10 -1 11 -11q0 -2 -1 -7v-7q0 1 3 3q8 6 13 6q10 -1 11 -13q0 -7 -13 -12q-4 -2 -5 -2q2 -2 5 -3q13 -4 13 -12q-1 -12 -11 -13q-5 0 -12 5q-4 3 -4 5v-9t1 -6q-1 -10 -11 -10q-12 0 -12 10q0 6 2 15q-4 -3 -7 -5q-7 -6 -10 -5q-11 1 -12 13q0 7 13 12l6 3 q-2 0 -6 2q-14 4 -13 12q1 12 12 13q3 0 11 -6l6 -3q-2 8 -2 14q0 10 12 11z"/>
<glyph unicode="+" horiz-adv-x="139" glyph-name="plus" d="M56 85v34q0 13 14 14q12 -1 14 -14v-34h33q14 -1 14 -13q0 -15 -14 -15h-33v-33q-1 -11 -14 -12q-14 1 -14 12v33h-33q-13 0 -14 15q0 12 14 13h33z"/>
<glyph unicode="," horiz-adv-x="171" glyph-name="comma" d="M58 81q6 2 14 -9q7 -9 18 -10q12 -3 31 3q9 1 11 -5v-1q2 -4 -3 -9q-14 -10 -21 -34q-2 -12 -1 -27q-2 -5 -5 -6q-7 -2 -15 9q-6 8 -20 15q-8 5 -24 -1q-6 1 -8 6q-2 6 8 13q18 20 14 32l-1 1q-1 3 -6 10v0q-2 6 4 10q0 1 4 3zM74 50q-1 -14 -11 -25q18 -5 28 -14 q2 13 8 28l4 6q-9 -2 -30 5h1z"/>
<glyph unicode="-" horiz-adv-x="139" glyph-name="hyphen" d="M23 80h94q14 -1 14 -13q0 -15 -14 -15h-94q-13 0 -14 15q0 12 14 13z"/>
<glyph unicode="." horiz-adv-x="64" glyph-name="period" d="M14 19q1 16 18 18q16 -2 18 -18q-2 -15 -18 -16q-17 1 -18 16z"/>
<glyph unicode="/" horiz-adv-x="229" glyph-name="slash" d="M57 195q32 0 44 -38q4 -17 4 -58v-7l10 -2l3 -1l-5 -1v6q0 64 10 76q14 24 38 24q25 0 40 -27q3 -9 3 -18v-17q0 -19 -6 -59q22 -29 22 -62v-6q0 -13 -13 -13q-11 0 -12 12v5q0 32 -20 53l-2 7v1q5 40 5 64v17q0 13 -12 18l-6 1q-17 0 -21 -34l-1 -35v-9q0 -24 -7 -24 q-2 -2 -7 -2q-40 2 -40 6q-4 3 -4 24q0 58 -7 64q-6 11 -15 11q-12 0 -18 -13q-1 -2 -1 -6v-18q3 -55 7 -62q0 -6 -11 -18q-6 -7 -10 -39v-8q-1 -12 -12 -12t-13 12v6q0 21 10 47q3 6 9 15q-4 42 -4 64v10q0 32 31 45zM62 48q19 -4 19 -16v-2q0 -9 -10 -15q-4 -2 -8 -2 q-7 0 -14 8q-3 4 -3 10v2q0 11 13 15h3zM134 45q13 0 19 -12l1 -4v-3q0 -11 -13 -15l-4 -1q-15 0 -19 11l-1 3v5q4 16 17 16z"/>
<glyph unicode="0" horiz-adv-x="210" glyph-name="zero" d="M106 -15q-3 0 -5.5 -2t-2.5 -6q0 -3 2.5 -5.5t5.5 -2.5q4 0 6 2.5t2 5.5q0 4 -2 6t-6 2zM154 150q4 5 4 10t-3.5 8.5t-9.5 2.5q-8 -1 -10 -12q-2 1 -5 2q-21 7 -42 7q-46 0 -73 -35q-15 -19 -15 -57q0 -18 4 -51q0 -12 2 -29q10 -43 75 -43q15 0 19 1q36 10 66 38 q31 31 36 68v10q0 52 -48 80zM139 149q2 7 5 7q2 0 3 -2q2 -3 -2 -8q-2 1 -6 2v1zM189 59q-7 -35 -34 -62q-25 -23 -56 -31q-9 -1 -17 -1q-27 0 -43 9l1 -1q4 -1 10 2q1 -4 5 -6t8 -2t8 2q2 2 0 5q-1 3 -4 1q-2 -1 -4 -1q-4 0 -7 4q-1 2 -3 3q-3 1 -6 -0.5t-5 -0.5 q-4 1 -5 4v0q-1 2 -4 1q-3 -2 -2 -5q1 -2 3 -3q-12 8 -15 22v6q2 -5 8 -5q4 0 7 2.5t3 6.5t-3 6.5t-7 2.5q-7 0 -8 -7q-2 16 -4 31q-2 19 -2 31q0 34 13 50q23 30 64 30q19 0 36 -6q27 -10 43 -26q20 -22 20 -53v-9zM42 64q-3 2 -7 2q-5 0 -9 -4q-8 -6 -8 -17q0 -3 1 -7 t5 -3q5 1 4 5q-1 3 -1 5q0 7 4 10t7 1q6 -3 5 -16q-1 -4 4 -4q4 -1 5 4q0 19 -10 24zM140 25q-13 2 -21 -14q-2 -3 1 -5t5 2v0q6 11 14 10q6 -1 6 -7q0 -8 -8 -15q-3 -2 -1 -5t5 -1q12 10 12 21q0 2 -1 4q-3 9 -12 10zM117 133q-8 4 -17 4q-14 0 -26.5 -7.5t-19.5 -20.5 q-8 -15 -8 -32q0 -18 8 -34t22 -28q3 -2 6 -2q5 0 7 3q6 -3 13 -3q14 0 26.5 8.5t17.5 21.5q7 16 7 33q0 8 -2 17q-7 30 -34 40zM123 41q-11 -10 -21 -10q-6 0 -10 4q-5 3 -10 0q-18 18 -18 41q0 14 8 26q10 16 27 16q7 0 13 -3q9 -4 15 -12t7 -18v-11q0 -22 -11 -33z"/>
<glyph unicode="1" horiz-adv-x="212" glyph-name="one" d="M105 -13q-3 0 -5.5 -2.5t-2.5 -5.5t2.5 -5.5t5.5 -2.5q4 0 6.5 2.5t2.5 5.5t-2.5 5.5t-6.5 2.5zM155 148q4 5 4 10q0 6 -3.5 9.5t-9.5 2.5q-8 -2 -10 -12q-2 0 -6 1q-20 7 -42 7q-47 0 -75 -34q-15 -20 -15 -58q0 -17 4 -51q1 -11 2 -28q10 -43 76 -43q16 0 20 1 q37 10 67 38q31 31 37 67v10q0 52 -49 80zM139 151q2 7 5 7q2 0 3 -2q2 -3 -2 -8l-6 3v0zM190 61q-7 -36 -35 -62q-25 -23 -58 -32q-8 -1 -17 -1q-28 0 -44 9h1q4 -2 10 1q2 -3 6 -5.5t8 -2.5t8 3q3 2 0 5q-1 2 -4 0q-2 -1 -4 -1q-4 0 -8 4q-1 3 -3 3q-3 2 -6 0t-5 -1 q-3 1 -5 4v0q-1 3 -4 1q-4 -1 -2 -4q1 -2 3 -4q-12 8 -15 23v6q2 -6 9 -6q3 0 6 3t3 6q0 4 -3 6.5t-6 2.5q-8 0 -9 -6q-3 15 -4 31q-2 18 -2 31q0 34 13 50q24 30 65 30q20 0 37 -6q28 -10 44 -27q21 -21 21 -53v-8zM35 64q-3 2 -6 2q-5 0 -9 -4q-7 -5 -7 -15q0 -4 1 -8 t4 -3q4 2 3 6v5q0 6 3.5 9t6.5 1q6 -3 5 -15q0 -4 4 -5q4 0 4 4q1 18 -9 23zM136 28q-14 2 -23 -15q-2 -3 2 -5q3 -2 5 1v0q7 12 15 11q7 -1 7 -8t-9 -15q-4 -3 -1 -6t6 -1q12 11 12 22q0 3 -1 5q-3 10 -13 11zM101 16q6 80 6 114l-1 4q-2 6 -9 6h-2h-17q-4 0 -7 -2.5 t-3 -6.5t2.5 -7t6.5 -3h11q-1 -43 -5 -103q-1 -4 1.5 -7t6.5 -3t7 2.5t3 5.5zM88 128v0v0v0z"/>
<glyph unicode="2" horiz-adv-x="211" glyph-name="two" d="M105 -16q-3 0 -5.5 -2.5t-2.5 -5.5q0 -4 2.5 -6t5.5 -2t5.5 2t2.5 6q0 3 -2.5 5.5t-5.5 2.5zM155 144q3 5 3 10t-3.5 8.5t-8.5 2.5q-8 -1 -10 -12q-2 1 -6 2q-20 7 -41 7q-47 0 -73 -34q-15 -19 -15 -56q0 -17 4 -50q0 -12 2 -28q9 -42 74 -42q16 0 19 1q37 10 66 38 q31 30 36 65v10q0 51 -47 78zM139 146q1 6 5 7q2 0 3 -2q2 -3 -2 -8q-3 1 -6 3v0zM189 57q-7 -36 -35 -62q-25 -23 -56 -31q-9 -1 -17 -1q-28 0 -44 9h1q4 -2 10 1q1 -3 5.5 -5.5t7.5 -2.5q5 0 8 3q3 2 1 4q-2 3 -5 1q-2 -1 -4 -1q-4 0 -7 4q-1 2 -3 3q-3 1 -6 -0.5t-5 -0.5 q-3 1 -5 4v0q-2 3 -4 1q-4 -2 -2 -5q1 -2 3 -3q-12 8 -15 22v6q2 -5 8 -5q4 0 7 2.5t3 6.5q0 3 -3 6t-7 3q-7 0 -9 -7q-2 15 -3 31q-2 18 -2 30q0 34 13 50q23 29 65 29q19 0 36 -5q27 -10 43 -26q22 -21 22 -53q0 -4 -1 -8zM36 61q-3 1 -6 1q-5 0 -9 -3q-8 -6 -8 -16 q0 -4 1.5 -7.5t5.5 -2.5q3 1 3 5q-1 2 -1 5q0 6 3.5 9t7.5 1q5 -3 4 -15q0 -4 4 -5q4 0 5 4q0 18 -10 24zM130 13q-13 1 -21 -14q-3 -4 1 -5q3 -2 5 1v0q6 11 14 10q7 -1 7 -7q0 -7 -9 -15q-3 -2 -1 -5q3 -3 6 -1q11 10 11 21v4q-3 10 -13 11zM134 15q3 1 6 3.5t3 6.5 t-3 6.5t-6 2.5q-11 -1 -43 1q13 10 18 16q10 9 17 18q15 19 15 35q0 11 -6.5 19t-18.5 10.5t-21 2.5q-17 0 -29 -8q-10 -7 -10 -20q0 -8 7 -30q2 -7 9 -7q4 0 6.5 3t2.5 7v3q-6 18 -6 23q0 3 1 6q8 4 20 4q7 0 15 -1t10 -6q3 -6 0 -12q-7 -18 -26 -36l-34 -28v0q-4 -3 -4 -8 q0 -7 7 -9l5 -1h22q19 -2 43 -1z"/>
<glyph unicode="3" horiz-adv-x="209" glyph-name="three" d="M97 -13q-4 0 -6.5 -2.5t-2.5 -5.5t2.5 -5.5t6.5 -2.5q3 0 5.5 2.5t2.5 5.5t-2.5 5.5t-5.5 2.5zM188 131q-28 34 -75 34q-21 0 -41 -6q-1 -1 -5 -2q-3 10 -11 12q-5 1 -8.5 -2.5t-3.5 -9.5q0 -5 3 -10q-48 -27 -48 -79q0 -6 1 -10q6 -34 37 -66q32 -35 66 -38q9 -1 18 -1 q24 0 48 9q30 13 27 35q0 5 3 27q4 32 4 49q0 38 -15 58zM55 155q1 2 3 2q3 -1 5 -8q-3 -1 -6 -3q-4 6 -2 9zM187 28q-1 -11 -2 -15q-1 6 -9 6q-3 0 -6 -2.5t-3 -5.5q0 -4 3 -7t6 -3q7 0 9 6v-6q-3 -14 -15 -23q2 2 3 4v0q1 3 -2 5q-2 1 -4 -2t-5 -4q-2 0 -5 1q-3 2 -6 1 q-2 -1 -3 -3q-4 -4 -7 -4q-2 0 -4 1q-3 2 -5 -1t1 -5t8 -2q3 0 7.5 2t5.5 5q6 -2 10 -1h1q-16 -9 -44 -9q-8 0 -17 1q-32 9 -57 32q-28 26 -34 61q-1 5 -1 9q0 31 21 53q16 16 44 25q17 6 36 6q42 0 65 -29q13 -17 13 -50q0 -15 -4 -46zM167 59q-9 -5 -8 -22q0 -3 4 -3t3 4 q0 11 5 14q3 2 6.5 -1t3.5 -8q0 -3 -1 -5q-1 -4 3 -5t4.5 2.5t0.5 7.5q0 9 -6 14q-4 3 -9 3q-3 0 -6 -1zM94 7q-9 16 -22 14q-10 -1 -13 -10q-1 -3 -1 -5q0 -10 12 -20q3 -3 6 0q2 3 -1 5v0q-9 8 -9 15t7 8q8 0 14 -11v0q2 -3 5 -1t2 5zM138 81q6 5 9 12q1 5 1 9 q0 10 -5.5 19t-14.5 14q-9 4 -19 4q-6 0 -14 -2q-12 -3 -20 -8q-12 -7 -12 -17q0 -4 3 -6.5t6 -2.5q7 0 9 7q12 10 26 10q6 0 12 -2q5 -2 9 -11q2 -2 1 -9q-8 -7 -22 -10q-7 0 -14 -2l-6 -2q-7 -2 -6 -10q1 -4 4 -6t7 -2l2 1q5 1 15 2q10 0 19 -4q11 -6 11 -17q0 -5 -3 -8 q-13 -7 -27 -7q-17 0 -30 10q-4 5 -4 9v3q0 4 -2.5 6.5t-6.5 3.5q-3 0 -6 -2.5t-4 -6.5q-1 -11 3 -17q8 -12 22 -19q13 -6 28 -6q19 0 34 9q13 7 14 21q1 11 -4 21t-15 16z"/>
<glyph unicode="4" horiz-adv-x="216" glyph-name="four" d="M100 -12q-3 0 -5.5 -2.5t-2.5 -5.5q0 -4 2.5 -6.5t5.5 -2.5q4 0 6.5 2.5t2.5 6.5q0 3 -2.5 5.5t-6.5 2.5zM188 132q-28 34 -76 34q-21 0 -41 -6q-1 -1 -6 -2q-2 10 -10 12q-6 1 -9.5 -2.5t-3.5 -8.5q0 -6 4 -11q-49 -28 -49 -80v-10q7 -34 38 -67q33 -35 67 -39 q10 -1 19 -1q24 0 48 10q31 13 28 35q-1 5 2 27q4 32 4 50q0 39 -15 59zM53 158q1 2 3 2q3 -1 5 -8q-3 -1 -6 -3q-4 6 -2 9zM187 24q-1 -10 -1 -15q-2 7 -9 7q-4 0 -7 -2.5t-3 -6.5t3 -6.5t7 -2.5q6 0 8 6v-7q-3 -14 -15 -23q2 2 3 4v0q2 3 -1 5t-4.5 -1t-5.5 -4q-2 -1 -5 0 q-3 2 -6 1q-2 -1 -3 -3q-4 -4 -8 -4q-2 0 -3 1q-3 2 -5 -1t1 -5t8 -2q3 0 7.5 2t5.5 5q6 -2 10 -1h1q-16 -9 -44 -9q-9 0 -17 1q-32 9 -57 32q-29 27 -36 62v9q0 32 21 53q16 17 44 26q17 6 37 6q42 0 66 -30q13 -16 13 -50q0 -15 -5 -47zM166 61q-11 -5 -10 -23q1 -4 5 -4 t4 4q-1 13 4 16q4 1 7.5 -1.5t3.5 -9.5v-5q-1 -4 3 -5t5 3t1 7q0 11 -8 16q-4 4 -9 4q-3 0 -6 -2zM93 4q-9 16 -22 14q-10 -1 -13 -11v-4q0 -11 11 -21q3 -3 6 0t-1 6v0q-9 8 -9 15q0 6 7 7q8 1 14 -10v0q2 -4 5 -2q4 2 2 6zM147 61q1 0 2 -1q-9 2 -21 2l3 35q0 11 3 31v3 q0 7 -8 8q-3 1 -6.5 -1t-4.5 -6q-2 -13 -4 -34q-2 -30 -2 -35h-30v31q1 18 2 31q1 4 -1.5 7t-5.5 4q-4 1 -7.5 -1.5t-3.5 -6.5q-4 -26 -2 -72l1 -3q0 -3 3 -5l5 -2h-1q11 -2 37 -2q-1 -11 -2 -37q0 -4 2.5 -7t6.5 -3t7 2.5t3 6.5q1 22 3 38q20 -2 22 -2q4 0 6.5 3t2.5 7 t-3 6.5t-7 2.5z"/>
<glyph unicode="5" horiz-adv-x="217" glyph-name="five" d="M107 -14q-3 0 -5.5 -2.5t-2.5 -5.5q0 -4 2.5 -6t5.5 -2q4 0 6.5 2t2.5 6q0 3 -2.5 5.5t-6.5 2.5zM158 145q3 5 3 10q0 6 -3.5 9t-8.5 2q-8 -1 -11 -12q-1 1 -5 2q-21 7 -42 7q-46 0 -73 -34q-16 -19 -16 -57q0 -16 5 -50q0 -12 2 -28q9 -42 75 -42q15 0 19 1q37 10 66 38 q31 30 36 66v9q0 51 -47 79zM142 149q1 6 4 7q2 0 3 -2q2 -3 -2 -8q-2 1 -5 2v1zM192 59q-7 -35 -35 -61q-25 -24 -57 -32q-9 -1 -17 -1q-28 0 -44 9h1q4 -1 10 1q1 -3 5.5 -5.5t7.5 -2.5q5 0 8 3q3 2 1 4q-2 3 -5 1q-1 -1 -4 -1q-4 0 -7 4q-1 2 -3 3q-3 2 -6 0t-5 -1 q-4 1 -5 4v0q-2 3 -4 1q-4 -1 -2 -4q1 -2 3 -4q-12 8 -15 22v7q2 -6 8 -6q4 0 7 2.5t3 6.5t-3 6.5t-7 2.5q-7 0 -9 -7q-2 16 -4 31q-1 19 -1 31q0 34 12 50q24 29 66 29q19 0 37 -5q27 -10 43 -26q21 -22 21 -53v-9zM39 64q-3 2 -6 2q-6 0 -10 -4q-8 -5 -8 -16q0 -4 1 -8 t5 -3q5 1 4 6q-1 2 -1 5q0 6 4 9t7 2q6 -4 5 -16q0 -5 4 -5t5 4q1 18 -10 24zM137 20q-13 1 -22 -14q-2 -4 2 -6q3 -2 5 2v0q6 11 14 10q7 -1 7 -7q0 -7 -9 -15q-3 -2 -1 -5q3 -3 6 -1q11 10 11 21v4q-3 10 -13 11zM138 35q1 5 1 11q0 13 -8 22q-13 14 -36 14q-10 0 -22 -2 q0 12 2 40h56q4 0 6.5 3t2.5 6q0 4 -2.5 7t-6.5 3h-64q-8 0 -9 -8q-1 -2 -1 -3q0 -2 -2 -30q-2 -19 -1 -31v1q0 -7 7 -9l5 -1q18 5 28 5q15 0 24 -8q3 -6 3 -11q0 -7 -6 -12.5t-13 -4.5q-3 1 -6.5 4t-6.5 6h1q-3 5 -9 5q-4 0 -6.5 -3t-2.5 -7q0 -2 1 -4q13 -20 31 -19 q12 0 21.5 7t12.5 19z"/>
<glyph unicode="6" horiz-adv-x="217" glyph-name="six" d="M108 -17q-4 0 -6.5 -2.5t-2.5 -5.5q0 -4 2.5 -6t6.5 -2q3 0 5.5 2t2.5 6q0 3 -2.5 5.5t-5.5 2.5zM158 146q4 5 4 10t-3.5 8.5t-9.5 2.5q-8 -1 -10 -12q-2 1 -6 2q-20 7 -41 7q-47 0 -74 -34q-16 -20 -16 -57q0 -17 5 -51q0 -11 2 -28q9 -43 75 -43q15 0 20 1q36 10 66 39 q31 30 36 66v10q0 51 -48 79zM142 145q1 7 5 7q1 1 2 -1q3 -4 -1 -9q-3 1 -6 3v0zM192 56q-7 -35 -35 -61q-25 -24 -56 -32q-9 -1 -18 -1q-27 0 -44 9h2q3 -1 10 1q1 -3 5 -5.5t8 -2.5t8 3q3 2 0 4q-1 3 -4 1q-2 -1 -4 -1q-4 0 -7 4q-1 3 -4 3q-2 2 -5 0t-6 -1t-4 4v0 q-2 3 -5 1q-3 -1 -1 -4q1 -2 3 -4q-12 8 -16 22q1 3 1 7q2 -6 8 -6q4 0 6.5 2.5t2.5 6.5t-2.5 6.5t-6.5 2.5q-7 0 -9 -7q-2 16 -4 31q-2 18 -2 31q0 33 13 49q24 30 65 30q20 0 37 -6q27 -9 43 -26q21 -21 21 -53v-8zM39 54q-3 2 -6 2q-5 0 -10 -3q-7 -6 -7 -16q0 -3 1 -7 t5 -3t3 5q-1 2 -1 5q0 6 4 9t7 1q6 -3 5 -15q-1 -4 3 -4t5 3q1 18 -9 23zM137 16q-13 1 -21 -14q-2 -3 1 -5t5 1v0q6 11 14 10q6 -1 6 -7q0 -7 -8 -14q-3 -2 -1 -5q3 -3 6 -1q11 10 11 20q0 2 -1 5q-3 9 -12 10zM67 91h-1q10 24 28 30q12 -1 23 -8q2 -1 4 -1q4 0 6.5 2.5 t2.5 6.5q0 6 -5 8q-9 7 -25 10q-3 1 -6 1q-19 0 -38 -28q-14 -21 -14 -46q0 -21 10 -40q6 -11 17 -17.5t24 -6.5q18 0 33 9q16 10 20 26q1 4 1 8q0 14 -10 24q-21 23 -58 23q-6 0 -12 -1zM123 32q-12 -11 -29 -11q-10 0 -18 5q-16 17 -15 44q8 4 18 4q11 0 22 -4 q26 -9 27 -24q1 -8 -5 -14z"/>
<glyph unicode="7" horiz-adv-x="219" glyph-name="seven" d="M177 0q-4 0 -6.5 2.5t-2.5 6.5t2.5 6.5t6.5 2.5t7 -2.5t3 -6.5t-3 -6.5t-7 -2.5zM188 33q1 4 1 7q0 11 -7 16q-4 3 -9 3q-4 0 -8 -1q-9 -7 -8 -23v0q1 -4 5 -4t3 5v0q0 12 5 15q3 1 7 -2t4 -9q0 -2 -1 -5v0q-1 -4 3 -5t5 3v0zM97 -14q-4 0 -6.5 -2.5t-2.5 -5.5 q0 -4 2.5 -6.5t6.5 -2.5t6 2.5t2 6.5q0 3 -2 5.5t-6 2.5zM188 133q-29 33 -76 33q-21 0 -41 -6q-2 0 -6 -2q-2 11 -10 12q-6 1 -9.5 -2.5t-3.5 -8.5t3 -10q-48 -28 -48 -80v-11q7 -34 38 -67q33 -35 67 -38q9 -1 19 -1q24 0 47 10q32 13 28 34q0 5 3 28q4 32 4 49 q0 39 -15 60zM55 155q1 2 3 1q3 0 5 -7q-3 -2 -6 -3q-4 5 -2 9zM188 26q-3 -21 -2 -27q-3 -14 -15 -22q1 1 2 4v0q2 2 -1 4t-4.5 -1t-4.5 -4q-2 -1 -5 1q-3 1 -6 0t-4 -3q-3 -4 -7 -4q-2 0 -4 1q-3 2 -4 -1q-3 -2 0 -4q4 -3 8 -3t8 2.5t5 5.5q7 -3 11 -1h1q-17 -9 -45 -9 q-8 0 -17 1q-31 8 -56 32q-29 26 -36 61v9q0 31 21 53q16 17 44 26q17 6 36 6q42 0 66 -30q13 -16 13 -50q0 -15 -4 -47zM92 5q-8 15 -21 13q-9 -1 -12 -10q-1 -2 -1 -4q0 -11 11 -20q4 -2 6 0q2 3 -1 6v0q-8 7 -8 14q0 6 6 7q8 1 14 -10v0q2 -3 5 -1q3 1 1 5zM148 133h-1 q-10 1 -23 1q-3 0 -11 -1h-11q-19 0 -32 3q-5 1 -8.5 -2.5t-2.5 -8.5v-1v-31q0 -4 2.5 -6.5t6.5 -2.5t6.5 2.5t2.5 6.5v23q11 -1 27 -1h27q-24 -39 -24 -88q0 -10 1 -19q1 -4 3.5 -6.5t6.5 -2.5t7 3t2 7q-1 9 -1 19q0 51 26 85l3 4q3 3 3 6q0 4 -3 7t-7 3z"/>
<glyph unicode="8" horiz-adv-x="217" glyph-name="eight" d="M97 -16q-4 0 -6.5 -2.5t-2.5 -5.5t2.5 -5.5t6.5 -2.5q3 0 5.5 2.5t2.5 5.5t-2.5 5.5t-5.5 2.5zM188 131q-28 34 -75 34q-21 0 -41 -6q-1 -1 -6 -3q-2 11 -10 13q-6 1 -9.5 -2.5t-3.5 -8.5q0 -6 4 -11q-49 -28 -49 -79q0 -7 1 -10q7 -34 37 -67q33 -35 66 -38q10 -1 19 -1 q24 0 48 10q30 12 27 34q0 5 3 27q4 32 4 50q0 38 -15 58zM55 152q1 2 3 2q3 -1 5 -8q-3 -1 -6 -3q-4 6 -2 9zM187 24q-1 -10 -2 -14q-1 6 -8 6q-4 0 -7 -2.5t-3 -6.5t3 -6.5t7 -2.5q6 0 8 6v-7q-3 -14 -15 -22q2 2 3 4v0q2 3 -1 4q-3 2 -4.5 -1t-5.5 -4q-2 -1 -5 1t-6 0 q-2 0 -3 -3q-3 -4 -7 -4q-2 0 -4 1q-3 2 -5 0q-2 -3 1 -5q3 -3 8 -3q3 0 7.5 2.5t5.5 5.5q6 -3 10 -1h1q-16 -9 -44 -9q-8 0 -17 1q-32 9 -56 32q-29 26 -35 61q-1 4 -1 8q0 32 21 53q16 17 44 26q17 6 36 6q42 0 66 -29q13 -17 13 -50q0 -16 -5 -47zM167 56q-10 -6 -9 -23 q0 -3 4 -3t4 4q-1 12 4 15q4 1 7.5 -1.5t3.5 -8.5q0 -3 -1 -5q-1 -4 3 -5t5 2.5t1 7.5q0 10 -7 15q-4 3 -9 3q-3 0 -6 -1zM92 0q-9 14 -21 13q-9 -1 -12 -10v-4q0 -10 10 -20q3 -2 6 1q2 3 -1 5v0q-8 7 -8 14q0 6 6 7q7 0 13 -10v0q2 -3 5 -1t2 5zM82 139q-28 -12 -28 -34 q0 -17 18 -30q-9 -4 -13.5 -12.5t-4.5 -17.5q0 -10 5 -18q9 -15 37 -20q6 -1 12 -1q27 0 43 20q6 8 6 18q0 15 -13 26q8 4 12 9q6 7 6 19q1 14 -7 25q-13 19 -42 19q-12 0 -31 -3zM90 122q19 1 20 1q13 0 22 -3q11 -5 11 -20q0 -6 -2 -11q-9 -5 -19 -6q-3 0 -5 -1 q-17 -2 -37 10q-6 4 -7 12q-1 6 6 11q3 3 11 7zM132 33q-12 -8 -26 -8q-18 0 -31 11q-2 3 -2 7q0 5 3 13q5 3 14 3q18 0 16 0q3 0 6 3q18 -1 25 -11q2 -3 2 -6q0 -8 -7 -12z"/>
<glyph unicode="9" horiz-adv-x="218" glyph-name="nine" d="M108 -13q-3 0 -5.5 -2.5t-2.5 -5.5q0 -4 2.5 -6.5t5.5 -2.5q4 0 6.5 2.5t2.5 6.5q0 3 -2.5 5.5t-6.5 2.5zM160 152q4 5 4 10q0 6 -4 9.5t-9 2.5q-8 -2 -10 -13q-2 1 -6 2q-21 7 -42 7q-48 0 -76 -34q-15 -20 -15 -59q0 -17 4 -51q0 -12 2 -29q10 -44 77 -44q15 0 19 1 q38 10 68 39q32 31 37 68v10q0 52 -49 81zM143 152q1 7 5 8q1 0 2 -2q3 -4 -2 -9q-2 1 -5 3v0zM194 61q-7 -36 -36 -62q-25 -24 -57 -32q-9 -1 -17 -1q-28 0 -45 9h1q4 -2 10 1q2 -3 6 -5.5t8 -2.5t8 3q3 2 1 4q-2 3 -5 1q-2 -1 -4 -1q-4 0 -8 4q-1 3 -3 3q-3 2 -6 0.5 t-5 -1.5q-3 1 -5 4v0q-2 3 -4 1q-3 -1 -2 -4q1 -2 3 -4q-12 8 -15 23v6q2 -5 9 -5q3 0 6 2.5t3 6.5q0 3 -3 6t-6 3q-8 0 -9 -7q-2 15 -4 31q-2 19 -2 31q0 35 13 51q24 30 66 30q19 0 37 -6q27 -9 44 -26q21 -22 21 -54v-9zM41 60q-4 2 -7 2q-6 0 -10 -5q-9 -6 -9 -17 q0 -4 1.5 -8.5t5.5 -3.5q5 2 3 6v6q0 7 4 10t8 1q6 -3 5 -17q0 -4 4 -5q5 0 5 5q2 20 -10 26zM138 22q-13 2 -22 -14q-2 -4 2 -6q3 -2 5 2v0q6 11 15 10q6 -1 6 -8t-9 -15q-3 -2 0 -5q2 -3 5 -1q12 10 12 21v5q-3 10 -14 11zM146 120q-3 9 -13 15q-21 11 -40 11 q-11 0 -22 -5l-5 -2q-3 -1 -5 -4l-1 -3q-12 -14 -12 -34q0 -14 6 -25q7 -11 21 -15t28 -4h6l-12 -24q-7 -16 -11 -23q-1 -2 -1 -4q0 -4 2.5 -7t6.5 -3q6 0 9 5q4 7 10 21.5t10.5 22t14.5 22.5q11 10 11 26q0 10 -4 22q3 4 1 8zM69 87q-3 6 -3 12q0 11 8 20l2 4l2 1q8 3 16 3 q17 0 31 -10q-1 -4 0 -7q4 -9 4 -24q-3 -2 -4 -5q0 -1 -1 -3q-12 -6 -25 -6q-22 0 -30 15z"/>
<glyph unicode=":" horiz-adv-x="200" glyph-name="colon" d="M139 19q-10 1 -18.5 3t-15.5 4q-6 -1 -15 -2t-20 0t-23.5 4t-30.5 18q-3 4 -2 10l2 5q5 3 12 3l6 -3q9 -10 15.5 -12t15.5 -3t8 -1q3 -2 -1.5 1t-9 7.5t-8.5 10t-7 12t-4.5 13.5t-1.5 14.5t2.5 15t11 15.5t19 7t17 -3.5t11.5 -6.5q1 2 6 6.5t12.5 6t17.5 0.5t16 -5.5 t10.5 -9.5t7 -14.5t1.5 -20.5t-6 -20.5t-14.5 -19.5t-15.5 -14q-2 1 4 0.5t12 0t12 2t15 4.5l6 -3q4 -5 3 -11l-3 -6q-11 -5 -23 -6.5t-24 -1.5zM110 50q10 5 19.5 11.5t13.5 14.5t6 15t1 13.5t-4 10t-7 6.5t-8.5 2t-9 -6t-6 -10.5t-4.5 -11.5q-4 -4 -12 -4l-5 3 q-4 6 -4.5 11.5t-4 9t-6.5 4.5t-7 -1t-6 -7t-1 -13t4.5 -15.5t13.5 -16.5t16.5 -12.5t8.5 -4.5z"/>
<glyph unicode=";" horiz-adv-x="87" glyph-name="semicolon" d="M59 -4l-16 -27q-5 -6 -15 -9q-18 3 -18 18v7q0 5 3 5l16 27q5 7 17 10q16 -3 18 -17q0 -4 -2 -10q-3 -2 -3 -4zM24 95q8 1 13 -9q3 -4 4 -6v0q-1 1 4 7q6 8 15 8v0q9 -1 14 -8q5 -8 5 -16v-2q0 -12 -14 -20l-12 -8l-3 -2q-1 0 -2 -1q-2 -2 -5 -2l-2 -1q-4 2 -9 4 q-7 3 -9 4q-7 5 -12 10q-8 8 -8 17q0 17 12 23q4 2 9 2zM11 73q0 -2 3 -3v0q1 0 4 2q2 4 5 8l1 3q-1 2 -6 5l-1 -1q-2 1 -6 -10v-4zM10 64v0q1 -2 3 -3q2 1 2 3q0 3 -2 2v0q-2 0 -3 -2z"/>
<glyph unicode="&lt;" horiz-adv-x="233" glyph-name="less" d="M223 56q0 25 -6 43q-5 13 -16 31q-15 22 -20 32q7 8 7 16q0 4 -2 7q-4 8 -14 8q-15 0 -19 -16q-30 6 -54 6q-10 0 -16 -1q-8 12 -20 12q-6 1 -10.5 -3.5t-4.5 -10.5t4 -13q-5 -10 -19 -32q-12 -19 -17 -31q-7 -19 -7 -40q0 -17 3 -25q11 -35 41 -48q18 -8 50 -10h3 q2 -10 15 -10q7 0 11 3t4 8q45 4 68 28q20 20 19 46zM127 -20q-4 -3 -11 0q-1 0 -2 1h14zM111 -7h-7q-29 2 -44 8q-26 12 -36 42q-2 11 -2 21q0 20 7 38q4 11 16 29q13 20 18 30q1 2 0 4q-4 5 -4 9q0 8 7 7q8 0 14 -10q1 -3 4 -2q9 3 31 1l5 -24l7 23q16 -2 27 -4q4 -1 4 3 q1 10 9 12q4 0 7.5 -1.5t3.5 -5.5q0 -5 -7 -12q-1 -2 0 -4q2 -5 11 -18q13 -20 19 -33q10 -23 11 -49q0 -23 -17 -39q-26 -26 -84 -25zM163 129q4 0 6.5 3t2.5 6q0 4 -2.5 6.5t-6.5 2.5t-6.5 -2.5t-2.5 -6.5q0 -3 2.5 -6t6.5 -3zM73 132q4 0 7 3t3 7t-3 6.5t-7 2.5 q-5 0 -8 -2.5t-3 -6.5t3 -7t8 -3zM95 124q4 -5 10 -6q5 0 11 4q2 -2 6 -4t7 -2q7 0 11 5q3 3 0 5q-3 3 -5 0v0q-2 -2 -6 -2q-3 0 -7 3q-2 2 -4 2q-3 1 -6.5 -1t-5.5 -2q-3 0 -5.5 3t-5.5 0q-3 -2 0 -5v0zM179 84q4 1 3 4q0 4 -4 3q-13 -2 -16 1q1 4 12 7q4 1 3 5q-1 3 -5 2 q-11 -3 -15 -8q-3 5 -8 8q-3 4 -11 4q-17 0 -43 -11q-8 -4 -15 -9q2 3 2 6q0 8 -11 16q-3 2 -5 -1t0 -5v0q11 -7 9 -10q-1 -1 -4 -1q-5 0 -12 4q-3 2 -5 -2q-2 -3 1 -5v0q9 -5 16 -5q3 0 6 1q-18 -13 -18 -30q0 -7 3 -16q4 -11 8 -15q17 -15 33 -15q27 0 48 42q9 19 9 31 q7 -3 19 -1zM64 49q0 -3 1 -6q-2 7 -2 12q0 23 33 38q27 12 40 12q4 0 6 -1l3 -2q-13 1 -34 -7.5t-35 -20.5q-15 -14 -12 -25zM72 37q-2 11 11 26q13 14 31 25q20 10 33 9q-5 -1 -36 -25q-28 -23 -39 -35zM131 35q-7 -8 -18 -13q-5 -3 -11 -3q-4 0 -7 2l-8 2q11 0 26 10 t26 26q12 19 13 40q3 -7 3 -13q0 -11 -10 -28t-14 -23zM204 48q-5 25 -16 27q-6 1 -10 -5q-3 -5 -3 -12q0 -11 6 -20q3 -3 6 -1q3 3 1 6q-6 7 -6 15q0 5 2 8q1 2 3 2q6 -1 10 -22q0 -3 4 -3q3 1 3 5v0zM43 80q-10 -2 -15 -27v0q-1 -4 3 -4q3 -1 4 2q4 21 10 22q1 0 3 -2 q1 -3 1 -8q0 -8 -5 -15q-2 -3 1 -6q3 -2 5 1q7 9 7 20q0 6 -3 12q-4 6 -11 5z"/>
<glyph unicode="=" horiz-adv-x="245" glyph-name="equal" d="M225 54q0 25 -7 44q-4 13 -16 30q-14 22 -19 32q7 8 7 16q0 3 -2 6q-4 8 -15 8q-14 0 -18 -15q-30 6 -53 6q-10 0 -16 -2q-8 13 -20 13q-6 0 -10.5 -4t-4.5 -10t4 -13q-5 -10 -19 -32q-12 -19 -17 -31q-7 -18 -7 -40q0 -17 3 -24q11 -34 37 -46q18 -10 58 -12v-1 q1 -9 13 -9q7 0 11 3t4 8q45 4 68 27q20 20 19 46zM128 -17q-5 -3 -10 -1q-1 1 -1 2h12zM113 -6h-7q-29 2 -44 8q-20 5 -35 42q-2 11 -2 21q0 19 7 36q4 11 16 29q13 20 17 31q1 1 0 3q-3 5 -3 9q0 8 6 7q9 0 14 -10q2 -3 4 -2q10 3 31 1l5 -15l6 14q16 -2 27 -4q4 -1 4 3 q1 10 9 12q4 1 7 -1t3 -6q0 -5 -6 -12q-1 -1 0 -4q2 -5 11 -17q13 -20 18 -33q10 -23 11 -49q0 -22 -16 -38q-26 -26 -83 -25zM78 138q4 0 7.5 3.5t3.5 7.5t-3.5 7t-7.5 3t-7.5 -3t-3.5 -7t3.5 -7.5t7.5 -3.5zM118 26q72 -15 0 0t0 0zM144 144q4 -7 12 -8q9 -1 14 7 q2 4 -1 5q-3 2 -5 -1q-3 -4 -7 -4q-3 0 -6 4q-2 3 -5 2q-3 -2 -2 -5v0zM71 117h1q4 0 13 -10q2 -5 2 -6v-3q0 -4 -7 -8q-2 -1 -6 -1h-3q-8 1 -17 9v2q0 3 4 5q2 0 9 -5q5 -2 6 -2h3l2 2q0 3 -9 9q-2 1 -2 4v0q0 4 4 4zM155 116h1q3 0 3 -3v-1q0 -2 -7 -9v-3v-2h1h2q7 0 9 6 q2 2 4 3q4 -1 4 -4v-1q0 -1 -6 -9q-4 -3 -12 -3h-4q-6 3 -6 7v1q0 9 4 12q5 6 7 6zM78 50q7 0 10 -6q3 0 4 -14v-2q-2 -17 -9 -17v0q-4 0 -4 4v1q0 2 3 7q1 3 1 7v1q0 8 -4 11q-6 0 -8 -8l-2 -3v-11q0 -3 -4 -3v0q-4 0 -4 5v9q3 19 17 19zM160 50q5 0 13 -9q0 -1 3 -4 q1 -5 3 -13q1 -6 1 -8q0 -3 -4 -3h-1q-4 0 -4 11q-2 2 -3 9l-5 5q-3 2 -3 3q-5 0 -5 -8v-3q0 -3 7 -12v-1q0 -4 -4 -4h-2q-4 0 -9 13q-1 1 -1 4v0q0 13 5 17q1 2 9 3zM88 131q6 -5 7 -5q3 -1 7 -1h5q3 0 7 6h1q9 -8 21 -8q1 0 6 8h2q3 0 3 -4q-6 -11 -13 -11t-19 7 q-4 -5 -7 -5h-4q-14 0 -16 5q-2 1 -2 5q0 3 2 3z"/>
<glyph unicode="&gt;" horiz-adv-x="227" glyph-name="greater" d="M25 10q23 -24 68 -28q0 -5 4 -8t11 -3q13 0 15 10h3q32 2 49 10q31 13 42 48q3 8 3 25q0 21 -8 40q-4 12 -16 31q-14 22 -20 32q4 7 4 13t-4 10.5t-10 3.5q-12 0 -20 -12q-7 1 -17 1q-23 0 -53 -6q-4 16 -19 16q-10 0 -14 -8q-2 -3 -2 -7q0 -8 7 -16q-5 -10 -20 -32 q-11 -18 -16 -31q-7 -18 -7 -43q0 -26 20 -46zM101 -19h14q-1 -1 -2 -1q-7 -3 -12 0v1zM34 18q-17 16 -17 39q0 26 11 49q6 13 19 33q9 13 11 18q1 2 -1 4q-6 7 -6 12q0 4 3.5 5.5t6.5 1.5q9 -2 10 -12q0 -4 4 -3q11 2 26 4l7 -23l6 24q21 2 31 -1q2 -1 4 2q6 10 14 10 q7 1 7 -7q0 -4 -4 -9q-1 -2 0 -4q5 -10 18 -30q12 -18 16 -29q7 -18 7 -38q0 -10 -2 -21q-10 -30 -36 -42q-15 -6 -44 -8h-7q-58 -1 -84 25zM72 132q3 3 3 6q0 4 -3 6.5t-6 2.5q-4 0 -7 -2.5t-3 -6.5q0 -3 3 -6t7 -3q3 0 6 3zM163 135q3 3 3 7t-3 6.5t-7 2.5t-7 -2.5 t-3 -6.5t3 -7t7 -3t7 3zM134 124q2 3 0 5q-3 3 -5.5 0t-5.5 -3t-6 2t-6 1q-3 0 -4 -2q-4 -3 -8 -3q-3 0 -5 2v0q-2 3 -5 0q-3 -2 0 -5q4 -5 10 -5q4 0 8 2t6 4q6 -4 11 -4q6 1 10 6v0zM69 85q0 -12 9 -31q21 -42 48 -42q16 0 33 15q4 4 8 15q3 9 3 16q0 17 -18 30q3 -1 6 -1 q7 0 16 5v0q3 2 1 5q-2 4 -5 2q-7 -4 -12 -4q-3 0 -4 1q-2 3 8 10v0q3 2 1 5t-5 1q-11 -8 -11 -16q0 -3 2 -6q-7 5 -15 9q-26 11 -43 11q-8 0 -12 -4q-5 -3 -7 -8q-5 5 -15 8q-4 1 -5 -2q-1 -4 3 -5q11 -3 11 -7q-2 -3 -15 -1q-4 1 -5 -3q0 -3 3 -4q13 -2 20 1zM153 74 q-14 12 -35 20.5t-35 7.5q1 0 4 2q2 1 6 1q13 0 39 -12q34 -15 34 -38q0 -5 -3 -12l2 6q3 11 -12 25zM118 72q-31 24 -36 25q13 1 33 -9q18 -11 31 -25q13 -15 11 -26q-11 12 -39 35zM74 86q0 6 2 13q1 -21 14 -40q10 -16 26 -26q15 -10 25 -10l-7 -2q-3 -2 -7 -2 q-6 0 -11 3q-11 5 -18 13q-5 6 -14.5 23t-9.5 28zM25 48q-1 -4 3 -5q4 0 4 3q4 21 10 22q1 0 3 -2q2 -3 2 -8q0 -8 -6 -15q-2 -3 1 -6q3 -2 5 1q7 9 7 20q0 7 -3 12q-4 6 -10 5q-11 -2 -16 -27v0zM175 75q-3 -6 -3 -12q0 -11 7 -20q2 -3 5 -1q3 3 1 6q-5 7 -5 15q0 5 1 8 q2 2 3 2q6 -1 10 -22q0 -3 4 -2q4 0 3 4v0q-5 25 -16 27q-6 1 -10 -5z"/>
<glyph unicode="?" horiz-adv-x="111" glyph-name="question" d="M34 82v22q0 7 16 12q1 0 2 1q19 3 19 19q-2 15 -19 18q-10 0 -21 -13q-10 -10 -16 -10q-14 0 -14 16q3 33 51 38q52 -4 55 -49q-1 -36 -40 -46v-8q-1 -17 -16 -17q-17 0 -17 17zM51 18q-18 1 -18 16q0 16 18 18q16 -2 18 -18q-2 -15 -18 -16z"/>
<glyph unicode="@" horiz-adv-x="293" glyph-name="at" d="M140 205h2l54 -10q14 -14 14 -25v-7q0 -17 -35 -47v2v0q23 0 46 -11q0 2 20 14h15q23 0 28 -30v-8q0 -19 -24 -31l4 -41q0 -22 -29 -45h-115l-66 -3q-47 13 -47 45v10q0 10 20 53q0 23 30 48q7 39 41 71q28 15 42 15zM81 123h-4q2 15 53 62h3q-53 -27 -53 -64zM25 16 q8 -32 32 -32l13 2l30 -2h112q31 0 31 32q0 84 -81 84q-19 -1 -38 7l-3 7q1 20 48 54h8l12 -4v8q-6 10 -14 10q-33 0 -89 -77q-32 0 -39 -40zM240 95v-1q14 -18 14 -23q2 1 12 13q0 12 -14 18q-12 -5 -12 -7zM63 58q12 -4 17 -14v-9l-7 -7q-16 0 -23 17v3q0 9 13 10zM97 31 h23q10 -3 15 -20q0 -21 -28 -21h-7q-21 0 -26 13v13q8 15 23 15z"/>
<glyph unicode="A" glyph-name="A" d="M249 46q0 29 -7 50q-5 14 -18 34q-17 26 -23 37q8 9 8 18q0 4 -2 7q-5 10 -16 10q-17 0 -21 -18q-35 7 -61 7q-12 0 -19 -2q-9 14 -22 14q-8 1 -12.5 -4t-4.5 -12t4 -14q-6 -12 -21 -37q-14 -22 -20 -36q-8 -21 -8 -45q0 -19 3 -28q13 -40 47 -55q20 -9 56 -11h4 q2 -11 17 -11q7 0 11 3q6 3 6 9q51 5 78 31q22 23 21 53zM136 -42q-7 -1 -10 3h15q0 -2 -5 -3zM122 -23h-8q-34 2 -51 9q-30 13 -42 47q-2 12 -2 23q0 22 8 41q5 12 19 32q14 22 20 34q1 2 0 4q-4 6 -4 11q0 7 8 7q10 0 16 -11q1 -3 5 -3q11 4 36 2l6 -17l7 15q19 -2 31 -4 q5 -1 5 3q2 12 11 13q4 1 8 -1t4 -6q0 -6 -8 -13q-2 -2 0 -5q3 -6 13 -19q15 -22 22 -37q12 -26 12 -54q0 -25 -19 -43q-30 -29 -97 -28zM193 150q0 4 -3 7t-7 3q-5 0 -8 -3t-3 -7q0 -5 3 -8t8 -3q4 0 7 3t3 8zM80 167q-5 0 -8.5 -3t-3.5 -8q0 -4 3.5 -7.5t8.5 -3.5 q4 0 7.5 3.5t3.5 7.5q0 5 -3.5 8t-7.5 3zM144 136q-4 0 -8 3q-2 3 -5 4q-3 0 -7 -2.5t-6 -1.5q-4 0 -6.5 3t-6.5 1q-3 -3 0 -6q4 -6 12 -7q5 0 12 4q2 -3 7 -4.5t8 -1.5q7 0 12 5q3 3 0 6t-5.5 0t-6.5 -3zM193 87q9 0 21 11q3 3 0 7q-3 3 -6 0q-11 -11 -15 -9q-2 3 7 13v0 q3 4 -1 7q-3 2 -5 -1q-10 -11 -10 -19q0 -4 3 -6.5t6 -2.5zM66 129q-3 3 -6 -1q-2 -4 1 -6q12 -8 9 -11q0 -2 -4 -2q-6 0 -13 5v0q-4 3 -6 -1t1 -6q10 -6 18 -6t12 5q1 2 1 5q0 9 -13 18zM51 51q-13 -4 -15 -28q0 -4 4 -4q4 -1 5 4q1 18 9 20q1 1 3 0q2 -3 2 -9q0 -8 -5 -20 q-2 -4 2 -6q4 -1 6 3q5 13 5 23t-4.5 15t-11.5 2zM198 50q-8 1 -12 -6q-4 -6 -4 -14q0 -12 8 -22q3 -4 6 -1t1 6q-6 8 -6 17q0 6 2 9t3 2q7 -1 11 -24q1 -4 5 -3t3 5q-5 28 -17 31zM256 -51zM125 122h4q25 0 35 -14q8 -7 15 -23q0 -3 5 -15q1 -6 1 -18v-9v-42q0 -7 -10 -9 q-7 0 -9 9v42v13q0 14 -7 27q0 7 -14 18q-4 2 -16 2h-4q-16 0 -22 -4q-6 0 -9 -14l-5 -30h14q1 0 13 1q44 0 44 -3q3 -4 3 -8q0 -8 -11 -9q-21 1 -29 1h-7q-12 -1 -13 -1h-17v-9q2 -13 2 -19v-2q0 -11 -9 -11q-10 1 -10 10q0 10 -2 22v11q0 8 7 40q2 17 6 24q4 9 18 15 q10 5 27 5z"/>
<glyph unicode="B" glyph-name="B" d="M249 46q0 29 -7 50q-5 14 -18 34q-17 26 -23 37q8 9 8 18q0 4 -2 7q-5 10 -16 10q-17 0 -21 -18q-35 7 -61 7q-12 0 -19 -2q-9 14 -22 14q-8 1 -12.5 -4t-4.5 -12t4 -14q-6 -12 -21 -37q-14 -22 -20 -36q-8 -21 -8 -45q0 -19 3 -28q13 -40 47 -55q20 -9 56 -11h4 q2 -11 17 -11q7 0 11 3q6 3 6 9q51 5 78 31q22 23 21 53zM141 -54q-8 -1 -12 3q9 0 17 1q0 -3 -5 -4zM119 -27q-2 1 -8 1q-33 2 -50 9q-30 13 -41 48q-2 12 -2 24q0 23 8 43q5 12 18 33q15 23 21 35q1 2 -1 4q-4 6 -4 11q0 8 8 8q10 0 16 -12q1 -3 5 -2q10 3 35 1l6 -17 l8 16q18 -2 30 -5q4 -1 5 4q1 11 10 13q5 1 8.5 -1t3.5 -7q0 -6 -7 -13q-2 -2 -1 -5q3 -6 13 -20q15 -23 22 -38q12 -27 12 -56q0 -26 -19 -45q-29 -30 -96 -29zM193 150q0 4 -3 7t-7 3q-5 0 -8 -3t-3 -7q0 -5 3 -8t8 -3q4 0 7 3t3 8zM80 167q-5 0 -8.5 -3t-3.5 -8 q0 -4 3.5 -7.5t8.5 -3.5q4 0 7.5 3.5t3.5 7.5q0 5 -3.5 8t-7.5 3zM144 136q-4 0 -8 3q-2 3 -5 4q-3 0 -7 -2.5t-6 -1.5q-4 0 -6.5 3t-6.5 1q-3 -3 0 -6q4 -6 12 -7q5 0 12 4q2 -3 7 -4.5t8 -1.5q7 0 12 5q3 3 0 6t-5.5 0t-6.5 -3zM200 81q8 0 19 11q3 3 0 6q-2 3 -5 0 q-11 -10 -15 -8q-1 3 7 12v0q3 4 0 6t-6 0q-9 -10 -9 -18q0 -4 2.5 -6.5t6.5 -2.5zM66 129q-3 3 -6 -1q-2 -4 1 -6q12 -8 9 -11q0 -2 -4 -2q-6 0 -13 5v0q-4 3 -6 -1t1 -6q10 -6 18 -6t12 5q1 2 1 5q0 9 -13 18zM51 51q-13 -4 -15 -28q0 -4 4 -4q4 -1 5 4q1 18 9 20q1 1 3 0 q2 -3 2 -9q0 -8 -5 -20q-2 -4 2 -6q4 -1 6 3q5 13 5 23t-4.5 15t-11.5 2zM204 46q-7 1 -11 -5q-3 -6 -3 -13q0 -12 7 -21q2 -3 5 -1q3 3 1 6q-6 7 -6 16q0 5 3 8q1 3 2 2q7 -1 11 -22q0 -4 4 -3q4 0 4 4q-5 27 -17 29zM256 -51zM118 124h19q7 0 22 -3l18 -11q8 -5 8 -14v-7 q0 -15 -4 -18q-4 -5 -10 -9q8 -4 12 -15q0 -2 3 -12q2 -9 2 -15v-1q0 -7 -5 -15q-3 -6 -13 -10q-4 -4 -41 -5h-15q-8 1 -24 2q-3 -4 -8 -4t-9 6q0 2 -2 18v20q2 28 6 32q2 8 2 19q1 22 5 24q7 11 13 14q9 3 14 3q0 1 7 1zM98 69v0l53 4q9 3 14 9v1v12q-9 7 -21 10h-7h-20 q-9 -2 -10 -2q-2 0 -7 -8q-1 -21 -2 -26zM92 50l-1 -19v-16v-5h1q15 0 24 -1h13q19 1 21 1h4q13 2 13 5q2 2 2 5q0 7 -4 19q0 7 -12 7q-29 3 -57 3z"/>
<glyph unicode="C" glyph-name="C" d="M249 46q0 29 -7 50q-5 14 -18 34q-17 26 -23 37q8 9 8 18q0 4 -2 7q-5 10 -16 10q-17 0 -21 -18q-35 7 -61 7q-12 0 -19 -2q-9 14 -22 14q-8 1 -12.5 -4t-4.5 -12t4 -14q-6 -12 -21 -37q-14 -22 -20 -36q-8 -21 -8 -45q0 -19 3 -28q13 -40 47 -55q20 -9 56 -11h4 q2 -11 17 -11q7 0 11 3q6 3 6 9q51 5 78 31q22 23 21 53zM136 -42q-7 -1 -10 3h15q0 -2 -5 -3zM120 -25h-8q-34 2 -51 9q-30 13 -41 47q-3 13 -3 24q0 23 8 42q6 13 19 33q15 23 21 35q1 2 -1 4q-4 6 -4 10q0 8 8 8q10 0 16 -12q2 -3 5 -2q11 3 36 1l6 -16l8 15q18 -2 30 -4 q5 -1 5 3q2 12 11 13q4 1 8 -1t4 -6q0 -6 -7 -13q-2 -2 -1 -5q3 -6 13 -20q15 -23 22 -38q12 -26 12 -55q0 -26 -19 -44q-30 -30 -97 -28zM193 150q0 4 -3 7t-7 3q-5 0 -8 -3t-3 -7q0 -5 3 -8t8 -3q4 0 7 3t3 8zM80 167q-5 0 -8.5 -3t-3.5 -8q0 -4 3.5 -7.5t8.5 -3.5 q4 0 7.5 3.5t3.5 7.5q0 5 -3.5 8t-7.5 3zM144 136q-4 0 -8 3q-2 3 -5 4q-3 0 -7 -2.5t-6 -1.5q-4 0 -6.5 3t-6.5 1q-3 -3 0 -6q4 -6 12 -7q5 0 12 4q2 -3 7 -4.5t8 -1.5q7 0 12 5q3 3 0 6t-5.5 0t-6.5 -3zM193 87q9 0 21 11q3 3 0 7q-3 3 -6 0q-11 -11 -15 -9q-2 3 7 13v0 q3 4 -1 7q-3 2 -5 -1q-10 -11 -10 -19q0 -4 3 -6.5t6 -2.5zM66 129q-3 3 -6 -1q-2 -4 1 -6q12 -8 9 -11q0 -2 -4 -2q-6 0 -13 5v0q-4 3 -6 -1t1 -6q10 -6 18 -6t12 5q1 2 1 5q0 9 -13 18zM51 51q-13 -4 -15 -28q0 -4 4 -4q4 -1 5 4q1 18 9 20q1 1 3 0q2 -3 2 -9q0 -8 -5 -20 q-2 -4 2 -6q4 -1 6 3q5 13 5 23t-4.5 15t-11.5 2zM198 50q-8 1 -12 -6q-4 -6 -4 -14q0 -12 8 -22q3 -4 6 -1t1 6q-6 8 -6 17q0 6 2 9t3 2q7 -1 11 -24q1 -4 5 -3t3 5q-5 28 -17 31zM256 -51zM113 120q22 0 30 -4q20 -5 23 -8q4 0 17 -13q1 -1 2 -9q-1 -9 -9 -9q-7 0 -12 10 q-4 5 -11 7q0 1 -22 6q0 2 -19 2h-1q-9 -2 -15 -9q-4 -4 -6 -9q-5 -8 -5 -21v-4q3 -13 5 -26q1 0 3 -10q1 0 4 -7q2 -5 8 -6q2 -2 14 -2h13q16 1 19 4q10 8 10 16q3 7 10 7q9 -1 9 -10q-1 -11 -12 -23q-12 -9 -16 -9q-4 -2 -20 -4h-13q-14 0 -31 8q-9 10 -13 22q0 3 -4 15 q-1 8 -5 22v7q1 20 3 20q4 13 13 22q3 3 7 6q0 4 20 9h4z"/>
<glyph unicode="D" glyph-name="D" d="M249 46q0 29 -7 50q-5 14 -18 34q-17 26 -23 37q8 9 8 18q0 4 -2 7q-5 10 -16 10q-17 0 -21 -18q-35 7 -61 7q-12 0 -19 -2q-9 14 -22 14q-8 1 -12.5 -4t-4.5 -12t4 -14q-6 -12 -21 -37q-14 -22 -20 -36q-8 -21 -8 -45q0 -19 3 -28q13 -40 47 -55q20 -9 56 -11h4 q2 -11 17 -11q7 0 11 3q6 3 6 9q51 5 78 31q22 23 21 53zM136 -42q-7 -1 -10 3h15q0 -2 -5 -3zM120 -26h-8q-34 2 -51 9q-30 13 -41 48q-3 12 -3 24q0 23 8 42q6 13 19 34q15 22 21 35q1 2 -1 3q-4 7 -4 11q0 8 8 8q10 0 16 -12q2 -3 5 -2q11 3 36 1l6 -17l8 16q18 -2 30 -5 q5 -1 5 4q2 12 11 13q4 1 8 -1t4 -7t-7 -13q-2 -2 -1 -4q3 -7 13 -21q15 -22 22 -38q12 -26 12 -55q0 -26 -19 -45q-30 -30 -97 -28zM193 150q0 4 -3 7t-7 3q-5 0 -8 -3t-3 -7q0 -5 3 -8t8 -3q4 0 7 3t3 8zM80 167q-5 0 -8.5 -3t-3.5 -8q0 -4 3.5 -7.5t8.5 -3.5q4 0 7.5 3.5 t3.5 7.5q0 5 -3.5 8t-7.5 3zM144 136q-4 0 -8 3q-2 3 -5 4q-3 0 -7 -2.5t-6 -1.5q-4 0 -6.5 3t-6.5 1q-3 -3 0 -6q4 -6 12 -7q5 0 12 4q2 -3 7 -4.5t8 -1.5q7 0 12 5q3 3 0 6t-5.5 0t-6.5 -3zM193 87q9 0 21 11q3 3 0 7q-3 3 -6 0q-11 -11 -15 -9q-2 3 7 13v0q3 4 -1 7 q-3 2 -5 -1q-10 -11 -10 -19q0 -4 3 -6.5t6 -2.5zM66 129q-3 3 -6 -1q-2 -4 1 -6q12 -8 9 -11q0 -2 -4 -2q-6 0 -13 5v0q-4 3 -6 -1t1 -6q10 -6 18 -6t12 5q1 2 1 5q0 9 -13 18zM51 51q-13 -4 -15 -28q0 -4 4 -4q4 -1 5 4q1 18 9 20q1 1 3 0q2 -3 2 -9q0 -8 -5 -20 q-2 -4 2 -6q4 -1 6 3q5 13 5 23t-4.5 15t-11.5 2zM198 50q-8 1 -12 -6q-4 -6 -4 -14q0 -12 8 -22q3 -4 6 -1t1 6q-6 8 -6 17q0 6 2 9t3 2q7 -1 11 -24q1 -4 5 -3t3 5q-5 28 -17 31zM256 -51zM136 116q4 0 27 -8q12 -7 13 -14q7 -9 7 -14q3 -14 3 -18v-9q0 -11 -12 -31 q-8 -12 -18 -18q-1 0 -8 -5q-3 -2 -22 -7h-5h-4q-9 -3 -14 -3h-11q-1 -2 -5 -2q-8 0 -10 9q0 2 3 28v18q-1 16 -3 43q0 11 -2 21q2 10 11 10h50zM96 96v-8l3 -46v-16q0 -9 -2 -19h8q6 4 13 4q8 0 15 3q4 0 13 8q6 0 13 12q8 13 8 20v8q0 12 -10 27q0 2 -25 7h-36z"/>
<glyph unicode="E" glyph-name="E" d="M249 46q0 29 -7 50q-5 14 -18 34q-17 26 -23 37q8 9 8 18q0 4 -2 7q-5 10 -16 10q-17 0 -21 -18q-35 7 -61 7q-12 0 -19 -2q-9 14 -22 14q-8 1 -12.5 -4t-4.5 -12t4 -14q-6 -12 -21 -37q-14 -22 -20 -36q-8 -21 -8 -45q0 -19 3 -28q13 -40 47 -55q20 -9 56 -11h4 q2 -11 17 -11q7 0 11 3q6 3 6 9q51 5 78 31q22 23 21 53zM136 -42q-7 -1 -10 3h15q0 -2 -5 -3zM121 -26h-8q-34 2 -51 9q-31 13 -42 48q-3 12 -3 24q0 23 9 42q5 13 18 34q15 22 21 35q1 2 0 3q-4 7 -4 11q0 8 8 8q10 0 16 -12q2 -3 5 -2q11 3 36 1l6 -17l8 16q18 -2 31 -5 q4 -1 5 4q1 12 10 13q5 1 9 -1t4 -7t-8 -13q-2 -2 -1 -4q3 -7 13 -21q16 -22 23 -38q12 -26 12 -55q0 -26 -19 -45q-30 -30 -98 -28zM193 150q0 4 -3 7t-7 3q-5 0 -8 -3t-3 -7q0 -5 3 -8t8 -3q4 0 7 3t3 8zM80 167q-5 0 -8.5 -3t-3.5 -8q0 -4 3.5 -7.5t8.5 -3.5q4 0 7.5 3.5 t3.5 7.5q0 5 -3.5 8t-7.5 3zM144 136q-4 0 -8 3q-2 3 -5 4q-3 0 -7 -2.5t-6 -1.5q-4 0 -6.5 3t-6.5 1q-3 -3 0 -6q4 -6 12 -7q5 0 12 4q2 -3 7 -4.5t8 -1.5q7 0 12 5q3 3 0 6t-5.5 0t-6.5 -3zM193 87q9 0 21 11q3 3 0 7q-3 3 -6 0q-11 -11 -15 -9q-2 3 7 13v0q3 4 -1 7 q-3 2 -5 -1q-10 -11 -10 -19q0 -4 3 -6.5t6 -2.5zM66 129q-3 3 -6 -1q-2 -4 1 -6q12 -8 9 -11q0 -2 -4 -2q-6 0 -13 5v0q-4 3 -6 -1t1 -6q10 -6 18 -6t12 5q1 2 1 5q0 9 -13 18zM51 51q-13 -4 -15 -28q0 -4 4 -4q4 -1 5 4q1 18 9 20q1 1 3 0q2 -3 2 -9q0 -8 -5 -20 q-2 -4 2 -6q4 -1 6 3q5 13 5 23t-4.5 15t-11.5 2zM198 50q-8 1 -12 -6q-4 -6 -4 -14q0 -12 8 -22q3 -4 6 -1t1 6q-6 8 -6 17q0 6 2 9t3 2q7 -1 11 -24q1 -4 5 -3t3 5q-5 28 -17 31zM256 -51zM173 116q8 0 9 -8v-1q0 -6 -7 -9q-5 -1 -32 -3h-16q-16 -1 -18 -1h-12 q-2 -9 -5 -37v-1v0q14 3 18 3h16q11 2 12 2h7q12 0 12 -9q0 -8 -11 -9q-5 0 -16 -2h-20l-20 -3v-14q0 -11 1 -27q7 -4 17 -4h8q6 0 21 2h5q3 0 13 7q3 0 7 4t9 4q9 -2 9 -9q0 -8 -22 -18q-6 -6 -27 -6q-6 -2 -15 -2h-8q-18 0 -32 11q-3 2 -3 28q-2 6 -2 10v13q0 3 5 39 q1 13 3 21q0 10 4 12q6 4 9 4q4 -1 7 -1h10q16 1 18 1h16q26 1 26 3h4z"/>
<glyph unicode="F" glyph-name="F" d="M251 38q0 38 -16 70q-17 29 -34 59q8 9 8 18q0 4 -2 7q-5 10 -17 10q-16 0 -20 -18q-35 7 -62 7q-11 0 -18 -2q-9 14 -22 14q-8 1 -12.5 -4t-4.5 -12t4 -14q-16 -30 -33 -60q-17 -33 -17 -67q0 -19 3 -28q8 -24 23 -39q-13 -9 -11 -19t16 -10q16 0 24 13q16 -5 46 -5 q4 0 12 -1q36 -1 64 7q5 -7 14 -10q8 -3 15 -2q11 1 12 8q2 8 -12 16q12 6 20 14q21 21 20 48zM34 -42q-5 1 -6 4q-1 5 10 12q7 -5 14 -8q-7 -9 -18 -8zM215 -38q-3 -2 -10 -2q-9 2 -14 7q6 2 11 4q11 -6 13 -9zM119 -28h-12q-33 1 -49 8q-28 11 -39 44q-2 11 -2 23 q0 23 8 44q6 15 19 37q16 26 22 37q1 2 -1 4q-4 6 -4 11q0 8 8 7q10 0 17 -11q1 -3 4 -3q11 4 37 2l6 -17l7 15q18 -2 31 -4q4 -1 5 3q1 12 11 14q4 0 8 -2t4 -6q0 -6 -8 -13q-2 -2 0 -5q6 -12 21 -38q14 -22 19 -36q8 -21 9 -46q0 -22 -18 -39q-31 -31 -103 -29zM183 162 q-5 0 -8 -3t-3 -7t3 -7t8 -3q4 0 7 3t3 7t-3 7t-7 3zM91 159q0 4 -3.5 7.5t-7.5 3.5q-5 0 -8.5 -3.5t-3.5 -7.5q0 -5 3.5 -8.5t8.5 -3.5q4 0 7.5 3.5t3.5 8.5zM118 143q5 -1 12 3q2 -2 7 -4t8 -2q7 0 12 5v0q3 3 0 6t-5.5 0.5t-6.5 -2.5t-8 3q-2 2 -5 3t-7 -1.5t-7 -2.5 t-5.5 3.5t-6.5 0.5q-3 -3 0 -6q4 -6 12 -6zM104 129q6 1 10 1q6 0 7 -1q1 -3 -8 -9q-4 -1 -2 -5t5 -2q9 5 12 10q3 -7 15 -14q4 -2 6 2q2 3 -2 6q-11 6 -11 10q3 3 16 -3q4 -2 6 2t-2 6q-10 4 -18 4q-6 0 -9 -4q-3 7 -15 7q-5 0 -12 -2q-4 0 -3 -5q1 -4 5 -3zM183 110 q9 -1 9 -9q0 -9 -19 -11q-3 -1 -15 -1h-33q-10 -1 -30 -2h-5q-3 -13 -3 -27v-14q8 0 16 5q14 4 25 4l6 1q11 0 11 -10q0 -9 -16 -9q-3 -1 -17 -2q-8 -4 -24 -7q0 -18 5 -42q1 -2 1 -6q-1 -11 -9 -11q-9 0 -9 16q-7 25 -7 65v10q0 14 2 27v2q-2 3 -2 6q0 10 16 10q14 0 36 2 h37q12 0 25 3z"/>
<glyph unicode="G" glyph-name="G" d="M251 38q0 38 -16 70q-17 29 -34 59q8 9 8 18q0 4 -2 7q-5 10 -17 10q-16 0 -20 -18q-35 7 -62 7q-11 0 -18 -2q-9 14 -22 14q-8 1 -12.5 -4t-4.5 -12t4 -14q-16 -30 -33 -60q-17 -33 -17 -67q0 -19 3 -28q8 -24 23 -39q-13 -9 -11 -19t16 -10q16 0 24 13q16 -5 46 -5 q4 0 12 -1q36 -1 64 7q5 -7 14 -10q8 -3 15 -2q11 1 12 8q2 8 -12 16q12 6 20 14q21 21 20 48zM34 -42q-5 1 -6 4q-1 5 10 12q7 -5 14 -8q-7 -9 -18 -8zM215 -38q-3 -2 -10 -2q-9 2 -14 7q6 2 11 4q11 -6 13 -9zM119 -29h-13q-32 1 -48 7q-28 12 -39 45q-2 12 -2 23 q0 24 8 45q6 14 19 36q16 27 22 38q1 2 -1 4q-4 6 -4 11q0 8 8 8q10 0 16 -12q2 -3 5 -2q11 3 36 1l6 -17l8 16l30 -5q5 -1 5 3q2 12 11 14q4 1 8 -1.5t4 -6.5q0 -6 -7 -13q-2 -2 -1 -5q6 -13 22 -38q13 -22 18 -37q9 -21 9 -46q0 -22 -17 -39q-32 -31 -103 -29zM183 162 q-5 0 -8 -3t-3 -7t3 -7t8 -3q4 0 7 3t3 7t-3 7t-7 3zM91 159q0 4 -3.5 7.5t-7.5 3.5q-5 0 -8.5 -3.5t-3.5 -7.5q0 -5 3.5 -8.5t8.5 -3.5q4 0 7.5 3.5t3.5 8.5zM118 143q5 -1 12 3q2 -2 7 -4t8 -2q7 0 12 5v0q3 3 0 6t-5.5 0.5t-6.5 -2.5t-8 3q-2 2 -5 3t-7 -1.5t-7 -2.5 t-5.5 3.5t-6.5 0.5q-3 -3 0 -6q4 -6 12 -6zM104 129q6 1 10 1q6 0 7 -1q1 -3 -8 -9q-4 -1 -2 -5t5 -2q9 5 12 10q3 -7 15 -14q4 -2 6 2q2 3 -2 6q-11 6 -11 10q3 3 16 -3q4 -2 6 2t-2 6q-10 4 -18 4q-6 0 -9 -4q-3 7 -15 7q-5 0 -12 -2q-4 0 -3 -5q1 -4 5 -3zM160 128 q3 0 11 -3q10 -4 18 -5q3 0 8 -5q4 -4 4 -9q0 -7 -9 -9q-5 0 -10 6q-4 0 -27 8q-4 4 -4 8q2 9 9 9zM94 127q9 -2 9 -10q0 -5 -7 -9q-3 -5 -7 -11q-10 -9 -13 -20q-1 0 -6 -21q-1 -10 -1 -19v-5q0 -9 16 -26q19 -6 26 -6h12q17 -1 19 -1h4q6 0 16 7q7 8 7 9q1 3 1 5v5v0 q-4 -2 -24 -3q-9 0 -10 8v1q0 8 9 10q4 -1 4 -2q17 2 21 7q7 6 11 6q8 0 12 -13q13 -23 13 -28q2 0 4 -10q-2 -9 -10 -9t-10 11q-3 5 -3 9v0q-1 -7 -6 -11q-1 -1 -9 -10q-4 -2 -11 -7q-2 0 -8 -3h-5h-6q-17 1 -19 1h-10q-11 0 -24 4q-15 4 -15 6q-20 21 -22 32q-1 2 -1 8v4 q0 24 2 30q6 18 8 21q3 10 10 17q0 2 5 6q0 2 4 7q0 5 9 7q0 2 5 3z"/>
<glyph unicode="H" glyph-name="H" d="M251 38q0 38 -16 70q-17 29 -34 59q8 9 8 18q0 4 -2 7q-5 10 -17 10q-16 0 -20 -18q-35 7 -62 7q-11 0 -18 -2q-9 14 -22 14q-8 1 -12.5 -4t-4.5 -12t4 -14q-16 -30 -33 -60q-17 -33 -17 -67q0 -19 3 -28q8 -24 23 -39q-13 -9 -11 -19t16 -10q16 0 24 13q16 -5 46 -5 q4 0 12 -1q36 -1 64 7q5 -7 14 -10q8 -3 15 -2q11 1 12 8q2 8 -12 16q12 6 20 14q21 21 20 48zM34 -42q-5 1 -6 4q-1 5 10 12q7 -5 14 -8q-7 -9 -18 -8zM215 -38q-3 -2 -10 -2q-9 2 -14 7q6 2 11 4q11 -6 13 -9zM119 -30h-13q-32 1 -48 8q-28 11 -39 45q-2 12 -2 24 q0 24 8 46q6 14 19 37q16 26 21 38q1 2 0 4q-4 6 -4 11q0 8 8 8q10 0 16 -12q1 -3 5 -2q11 3 36 1l6 -17l7 16q18 -3 31 -5q4 -1 5 3q1 12 10 14q5 1 8.5 -1t3.5 -7q0 -6 -7 -13q-2 -2 -1 -5q6 -13 22 -39q13 -23 18 -37q9 -22 9 -48q0 -22 -17 -39q-31 -32 -102 -30z M183 162q-5 0 -8 -3t-3 -7t3 -7t8 -3q4 0 7 3t3 7t-3 7t-7 3zM91 159q0 4 -3.5 7.5t-7.5 3.5q-5 0 -8.5 -3.5t-3.5 -7.5q0 -5 3.5 -8.5t8.5 -3.5q4 0 7.5 3.5t3.5 8.5zM118 143q5 -1 12 3q2 -2 7 -4t8 -2q7 0 12 5v0q3 3 0 6t-5.5 0.5t-6.5 -2.5t-8 3q-2 2 -5 3t-7 -1.5 t-7 -2.5t-5.5 3.5t-6.5 0.5q-3 -3 0 -6q4 -6 12 -6zM104 129q6 1 10 1q6 0 7 -1q1 -3 -8 -9q-4 -1 -2 -5t5 -2q9 5 12 10q3 -7 15 -14q4 -2 6 2q2 3 -2 6q-11 6 -11 10q3 3 16 -3q4 -2 6 2t-2 6q-10 4 -18 4q-6 0 -9 -4q-3 7 -15 7q-5 0 -12 -2q-4 0 -3 -5q1 -4 5 -3z M171 134q9 -2 9 -11q0 -1 6 -26q5 -28 8 -81q1 -10 2 -25v-2q0 -7 -10 -9q-9 0 -9 12v9q-2 16 -4 61q-4 24 -6 34q-1 5 -6 29q2 9 10 9zM87 130q9 -1 9 -9q-8 -39 -8 -45v-28v0q0 5 19 7h6q6 2 10 2h15q2 2 6 3q9 -2 9 -10q0 -5 -8 -10q-4 -1 -7 -1h-15q-7 -2 -10 -2h-7 q-3 0 -8 -3h-3q-4 0 -6 3v0v0q2 -28 9 -47q4 -3 4 -8q0 -7 -9 -8q-12 0 -17 29q-2 0 -6 44v29q0 8 9 50q3 4 8 4z"/>
<glyph unicode="I" glyph-name="I" d="M251 38q0 38 -16 70q-17 29 -34 59q8 9 8 18q0 4 -2 7q-5 10 -17 10q-16 0 -20 -18q-35 7 -62 7q-11 0 -18 -2q-9 14 -22 14q-8 1 -12.5 -4t-4.5 -12t4 -14q-16 -30 -33 -60q-17 -33 -17 -67q0 -19 3 -28q8 -24 23 -39q-13 -9 -11 -19t16 -10q16 0 24 13q16 -5 46 -5 q4 0 12 -1q36 -1 64 7q5 -7 14 -10q8 -3 15 -2q11 1 12 8q2 8 -12 16q12 6 20 14q21 21 20 48zM34 -42q-5 1 -6 4q-1 5 10 12q7 -5 14 -8q-7 -9 -18 -8zM215 -38q-3 -2 -10 -2q-9 2 -14 7q6 2 11 4q11 -6 13 -9zM119 -31h-13q-32 1 -47 8q-27 11 -38 45q-2 12 -2 24 q0 23 8 45q5 14 18 36q16 27 21 39q1 2 0 4q-4 6 -4 11q0 8 8 7q9 0 16 -12q1 -2 4 -2q11 3 36 1l6 -17l7 16q18 -2 30 -4q5 -1 5 3q2 12 11 14q4 0 8 -2t4 -6q0 -6 -8 -14q-2 -2 -1 -4q6 -13 22 -39q13 -23 18 -37q8 -22 9 -47q0 -22 -17 -40q-31 -31 -101 -29zM183 162 q-5 0 -8 -3t-3 -7t3 -7t8 -3q4 0 7 3t3 7t-3 7t-7 3zM91 159q0 4 -3.5 7.5t-7.5 3.5q-5 0 -8.5 -3.5t-3.5 -7.5q0 -5 3.5 -8.5t8.5 -3.5q4 0 7.5 3.5t3.5 8.5zM118 143q5 -1 12 3q2 -2 7 -4t8 -2q7 0 12 5v0q3 3 0 6t-5.5 0.5t-6.5 -2.5t-8 3q-2 2 -5 3t-7 -1.5t-7 -2.5 t-5.5 3.5t-6.5 0.5q-3 -3 0 -6q4 -6 12 -6zM104 129q6 1 10 1q6 0 7 -1q1 -3 -8 -9q-4 -1 -2 -5t5 -2q9 5 12 10q3 -7 15 -14q4 -2 6 2q2 3 -2 6q-11 6 -11 10q3 3 16 -3q4 -2 6 2t-2 6q-10 4 -18 4q-6 0 -9 -4q-3 7 -15 7q-5 0 -12 -2q-4 0 -3 -5q1 -4 5 -3zM100 130 q9 -1 9 -9q0 -7 -9 -10q-2 0 -9 -4q-6 -2 -8 -2q-8 0 -9 9q0 7 10 10q10 6 16 6zM158 129q7 0 15 -5q6 -6 6 -12q-2 -9 -9 -9t-10 7q-11 0 -14 5q-1 4 -1 5q1 9 10 9h3zM128 114q9 -1 9 -10v-75q0 -1 1 -13v-22h2h13q2 0 13 3q10 -2 10 -9q0 -10 -21 -12h-12q-10 -1 -11 -1 h-25q-20 2 -20 8q-4 2 -4 8q0 8 9 9q5 0 9 -6q6 -1 8 -1h11v23q0 1 -1 13v74q0 11 9 11z"/>
<glyph unicode="J" glyph-name="J" d="M251 38q0 38 -16 70q-17 29 -34 59q8 9 8 18q0 4 -2 7q-5 10 -17 10q-16 0 -20 -18q-35 7 -62 7q-11 0 -18 -2q-9 14 -22 14q-8 1 -12.5 -4t-4.5 -12t4 -14q-16 -30 -33 -60q-17 -33 -17 -67q0 -19 3 -28q8 -24 23 -39q-13 -9 -11 -19t16 -10q16 0 24 13q16 -5 46 -5 q4 0 12 -1q36 -1 64 7q5 -7 14 -10q8 -3 15 -2q11 1 12 8q2 8 -12 16q12 6 20 14q21 21 20 48zM34 -42q-5 1 -6 4q-1 5 10 12q7 -5 14 -8q-7 -9 -18 -8zM215 -38q-3 -2 -10 -2q-9 2 -14 7q6 2 11 4q11 -6 13 -9zM118 -29h-12q-33 1 -49 7q-27 12 -38 46q-2 12 -2 24 q0 23 8 45q6 14 19 37q16 26 21 38q1 2 0 4q-4 6 -4 11q0 8 8 8q9 0 16 -12q1 -3 4 -2q11 3 36 1l6 -17l8 16q18 -2 30 -5q5 -1 5 4q2 11 11 13q4 1 8 -1t4 -7q0 -6 -8 -13q-2 -2 0 -5q5 -13 21 -39q13 -23 19 -37q8 -22 8 -47q0 -22 -17 -40q-31 -31 -102 -29zM183 162 q-5 0 -8 -3t-3 -7t3 -7t8 -3q4 0 7 3t3 7t-3 7t-7 3zM91 159q0 4 -3.5 7.5t-7.5 3.5q-5 0 -8.5 -3.5t-3.5 -7.5q0 -5 3.5 -8.5t8.5 -3.5q4 0 7.5 3.5t3.5 8.5zM118 143q5 -1 12 3q2 -2 7 -4t8 -2q7 0 12 5v0q3 3 0 6t-5.5 0.5t-6.5 -2.5t-8 3q-2 2 -5 3t-7 -1.5t-7 -2.5 t-5.5 3.5t-6.5 0.5q-3 -3 0 -6q4 -6 12 -6zM104 129q6 1 10 1q6 0 7 -1q1 -3 -8 -9q-4 -1 -2 -5t5 -2q9 5 12 10q3 -7 15 -14q4 -2 6 2q2 3 -2 6q-11 6 -11 10q3 3 16 -3q4 -2 6 2t-2 6q-10 4 -18 4q-6 0 -9 -4q-3 7 -15 7q-5 0 -12 -2q-4 0 -3 -5q1 -4 5 -3zM174 135 q10 -1 10 -9l-5 -16q-2 -4 -4 -15q-6 -22 -10 -31q-7 -43 -12 -60q-7 -15 -21 -22q-16 -7 -23 -7h-4q-9 0 -17 8q-7 5 -12 12q-3 7 -13 23q-4 13 -4 18q0 9 10 10v0q11 0 12 -18q0 -1 10 -20q1 -5 10 -12q1 0 3 -3h5q14 4 18 8q5 3 9 13q5 27 5 28q6 33 9 37q0 1 8 27 q0 2 6 21q2 8 10 8z"/>
<glyph unicode="K" glyph-name="K" d="M232 107v1l-18 24q-11 15 -16 27q5 8 5 15q0 6 -2 10q-5 8 -15 8q-15 0 -20 -15q-12 3 -36 6q-25 3 -37 3q-2 7 -7.5 12t-13.5 5q-9 0 -15 -6q-4 -5 -4 -13q0 -7 4 -14l-8 -20q-4 -8 -10 -25q0 -1 -3 -8q-3 -8 -10 -34q-22 -11 -22 -24q-1 -7 6 -11q6 -3 13 -1 q-1 -35 13 -52q7 -9 18 -17q-20 -7 -18 -16q2 -8 28 -8q18 0 36 4v1q22 -5 47 -5q14 0 22 1q20 4 37 16q9 -6 18 -6q12 0 11 9q-1 7 -13 11q26 30 26 68q0 28 -16 54zM45 -36q5 4 18 9q10 -6 21 -9q-28 -3 -39 0zM226 -27q-5 -1 -13 4q1 0 2 2v0q8 -3 11 -6zM165 -34h-21 q-68 0 -99 36q-11 13 -11 41q0 5 1 11q0 3 -2 4q-3 1 -5 0q-6 -5 -10 -2q-3 1 -2 3q0 8 18 16q2 1 3 3q4 18 10 35l2 6q0 1 9 25l9 20q1 2 0 4q-4 6 -4 11q0 4 2 7q5 6 13 3q7 -3 7 -13q0 -4 5 -4q8 1 30 -1l9 -23l8 21q23 -3 28 -5q2 -1 4 0t2 3q2 10 10 11q4 1 7.5 -1.5 t3.5 -6.5q0 -6 -5 -13q-1 -1 0 -3q5 -15 19 -33q5 -5 15 -20q14 -23 14 -48q0 -18 -8 -36q-9 -20 -25.5 -33.5t-36.5 -17.5zM174 130q4 0 7 2.5t3 7.5q0 4 -3 7t-7 3t-7 -3t-3 -7q0 -5 3 -7.5t7 -2.5zM81 138q4 0 7.5 3t3.5 8t-3.5 8t-7.5 3q-5 0 -8.5 -3t-3.5 -8t3.5 -8 t8.5 -3zM101 128q4 -6 12 -7q4 -1 12 3q2 -3 6.5 -5t8.5 -2q7 0 12 5v0q3 3 0 6t-6 0q-2 -2 -6 -2t-8 3q-2 3 -5 4q-3 0 -7 -2t-6 -2q-4 1 -6.5 4t-5.5 0q-4 -2 -1 -5v0zM66 46q-10 -6 -17 -6q-6 0 -6 3q0 5 10 12v0q4 2 1 6q-2 4 -5 1q-15 -9 -15 -19q0 -11 15 -11 q10 0 21 7q4 3 1 6q-2 4 -5 1zM90 129q8 0 10 -10q8 -36 8 -44q1 -7 1 -8l9 9q9 5 21 19q1 0 9 8q16 12 22 12q9 -1 9 -9q0 -7 -14 -12l-16 -14q-8 -9 -19 -17q-6 -7 -6 -9q-1 0 -2 -2q6 -4 24 -8q3 -2 16 -5q5 -4 20 -8q4 -2 15 -5q0 -1 7 -3q5 -3 5 -8q0 -8 -11 -9 q-2 0 -13 5q-1 0 -15 6q-2 0 -19 6q-2 0 -18 6q-11 2 -18 6v0q0 -5 3 -34v-20q0 -12 -10 -12q-6 0 -9 8l1 6v18q-3 29 -4 48q-7 28 -7 41q-4 10 -6 25q-2 0 -2 5q1 9 9 9z"/>
<glyph unicode="L" glyph-name="L" d="M232 107v1l-18 24q-11 15 -16 27q5 8 5 15q0 6 -2 10q-5 8 -15 8q-15 0 -20 -15q-12 3 -36 6q-25 3 -37 3q-2 7 -7.5 12t-13.5 5q-9 0 -15 -6q-4 -5 -4 -13q0 -7 4 -14l-8 -20q-4 -8 -10 -25q0 -1 -3 -8q-3 -8 -10 -34q-22 -11 -22 -24q-1 -7 6 -11q6 -3 13 -1 q-1 -35 13 -52q7 -9 18 -17q-20 -7 -18 -16q2 -8 28 -8q18 0 36 4v1q22 -5 47 -5q14 0 22 1q20 4 37 16q9 -6 18 -6q12 0 11 9q-1 7 -13 11q26 30 26 68q0 28 -16 54zM45 -36q5 4 18 9q10 -6 21 -9q-28 -3 -39 0zM226 -27q-5 -1 -13 4q1 0 2 2v0q8 -3 11 -6zM163 -30 q-10 -1 -20 -1q-68 0 -99 36q-10 13 -10 40v12q1 2 -2 4q-2 1 -4 -1q-6 -4 -11 -2q-2 1 -2 4q1 7 19 15q2 1 2 3q4 18 10 34l2 7q0 1 10 24l8 20q1 2 0 4q-4 6 -4 12q0 3 2 6q5 6 13 3q7 -3 7 -12q0 -5 5 -5q8 2 30 0l8 -23l8 21q23 -3 28 -6q2 -1 4 0t2 3q2 10 10 11 q4 1 7.5 -1.5t3.5 -6.5q0 -5 -5 -12q-1 -2 0 -4q5 -15 19 -32q4 -5 14 -20q14 -22 14 -47q0 -19 -7 -36q-9 -19 -25.5 -32.5t-36.5 -17.5zM174 130q4 0 7 2.5t3 7.5q0 4 -3 7t-7 3t-7 -3t-3 -7q0 -5 3 -7.5t7 -2.5zM81 138q4 0 7.5 3t3.5 8t-3.5 8t-7.5 3q-5 0 -8.5 -3 t-3.5 -8t3.5 -8t8.5 -3zM101 128q4 -6 12 -7q4 -1 12 3q2 -3 6.5 -5t8.5 -2q7 0 12 5v0q3 3 0 6t-6 0q-2 -2 -6 -2t-8 3q-2 3 -5 4q-3 0 -7 -2t-6 -2q-4 1 -6.5 4t-5.5 0q-4 -2 -1 -5v0zM66 46q-10 -6 -17 -6q-6 0 -6 3q0 5 10 12v0q4 2 1 6q-2 4 -5 1q-15 -9 -15 -19 q0 -11 15 -11q10 0 21 7q4 3 1 6q-2 4 -5 1zM85 128q9 0 9 -16q4 -9 11 -57q1 -2 6 -27q4 -13 5 -17q1 0 2 -8l6 -12q8 0 26 7q2 0 15 7q1 0 24 11q9 2 18 8h4q8 0 10 -8v-1q0 -6 -10 -10q0 -1 -10 -3q-1 0 -30 -14q-1 0 -11 -5q-1 0 -20 -7l-21 -4q-7 0 -12 12q-1 0 -6 15 q-7 22 -15 58q-6 44 -9 52q-1 1 -1 10q0 8 9 9z"/>
<glyph unicode="M" glyph-name="M" d="M232 107v1l-18 24q-11 15 -16 27q5 8 5 15q0 6 -2 10q-5 8 -15 8q-15 0 -20 -15q-12 3 -36 6q-25 3 -37 3q-2 7 -7.5 12t-13.5 5q-9 0 -15 -6q-4 -5 -4 -13q0 -7 4 -14l-8 -20q-4 -8 -10 -25q0 -1 -3 -8q-3 -8 -10 -34q-22 -11 -22 -24q-1 -7 6 -11q6 -3 13 -1 q-1 -35 13 -52q7 -9 18 -17q-20 -7 -18 -16q2 -8 28 -8q18 0 36 4v1q22 -5 47 -5q14 0 22 1q20 4 37 16q9 -6 18 -6q12 0 11 9q-1 7 -13 11q26 30 26 68q0 28 -16 54zM45 -36q5 4 18 9q10 -6 21 -9q-28 -3 -39 0zM226 -27q-5 -1 -13 4q1 0 2 2v0q8 -3 11 -6zM164 -32 q-10 -1 -21 -1q-68 0 -99 36q-11 13 -11 40q0 6 1 12q0 2 -3 4q-2 1 -4 -1q-6 -4 -11 -1q-2 0 -1 3q0 8 18 16q2 1 3 3q4 18 10 34l2 7q0 1 9 24l9 20q0 2 -1 4q-3 6 -3 12q0 4 2 6q5 6 13 3q7 -3 7 -12q0 -5 5 -4q7 1 30 -1l8 -24l8 22q24 -3 29 -6q1 -1 3 0t2 3 q2 10 10 11q5 1 8 -1t3 -7t-4 -12q-2 -2 -1 -4q6 -15 19 -32q5 -6 15 -20q14 -23 14 -48q0 -19 -8 -36q-8 -20 -24.5 -33.5t-36.5 -16.5zM174 130q4 0 7 2.5t3 7.5q0 4 -3 7t-7 3t-7 -3t-3 -7q0 -5 3 -7.5t7 -2.5zM81 138q4 0 7.5 3t3.5 8t-3.5 8t-7.5 3q-5 0 -8.5 -3 t-3.5 -8t3.5 -8t8.5 -3zM101 128q4 -6 12 -7q4 -1 12 3q2 -3 6.5 -5t8.5 -2q7 0 12 5v0q3 3 0 6t-6 0q-2 -2 -6 -2t-8 3q-2 3 -5 4q-3 0 -7 -2t-6 -2q-4 1 -6.5 4t-5.5 0q-4 -2 -1 -5v0zM66 46q-10 -6 -17 -6q-6 0 -6 3q0 5 10 12v0q4 2 1 6q-2 4 -5 1q-15 -9 -15 -19 q0 -11 15 -11q10 0 21 7q4 3 1 6q-2 4 -5 1zM183 119q9 -1 9 -11q5 -24 9 -35q7 -16 12 -27q4 -10 10 -19q2 -3 3 -9q2 0 0 -2q-5 -6 -7 -13q-9 0 -11 11q0 2 -9 17q-2 6 -9 20q-5 11 -8 23q-2 0 -10 -32q-4 -27 -8 -34q-6 -19 -10 -19q0 -2 -5 -3q-7 0 -11 10q-2 1 -12 26 q-7 7 -14 27q-4 5 -10 27h-1q-3 -10 -7 -58q-2 -17 -3 -31q-4 -5 -9 -5q-9 1 -9 10v2q6 60 7 71q6 30 13 46q4 4 9 4q8 0 10 -12q3 -12 15 -45q11 -23 14 -28q3 -3 6 -12q3 2 7 27q4 21 14 45q3 10 5 20q2 6 4 7q0 1 6 2z"/>
<glyph unicode="N" glyph-name="N" d="M232 107v1l-18 24q-11 15 -16 27q5 8 5 15q0 6 -2 10q-5 8 -15 8q-15 0 -20 -15q-12 3 -36 6q-25 3 -37 3q-2 7 -7.5 12t-13.5 5q-9 0 -15 -6q-4 -5 -4 -13q0 -7 4 -14l-8 -20q-4 -8 -10 -25q0 -1 -3 -8q-3 -8 -10 -34q-22 -11 -22 -24q-1 -7 6 -11q6 -3 13 -1 q-1 -35 13 -52q7 -9 18 -17q-20 -7 -18 -16q2 -8 28 -8q18 0 36 4v1q22 -5 47 -5q14 0 22 1q20 4 37 16q9 -6 18 -6q12 0 11 9q-1 7 -13 11q26 30 26 68q0 28 -16 54zM45 -36q5 4 18 9q10 -6 21 -9q-28 -3 -39 0zM226 -27q-5 -1 -13 4q1 0 2 2v0q8 -3 11 -6zM163 -32 q-10 -1 -21 -1q-68 0 -98 36q-11 13 -11 40q0 6 1 11q0 3 -3 4q-2 2 -4 0q-6 -4 -11 -2q-2 1 -1 3q0 8 18 16q2 1 3 3q4 18 9 35l3 6q0 1 9 24l8 21q1 1 0 3q-3 7 -3 12q0 4 2 7q5 5 13 3q7 -3 7 -13q0 -5 5 -4q7 1 29 -1l9 -23l8 21q23 -3 28 -6q2 0 4 0.5t2 2.5 q2 10 10 12q4 1 7.5 -1.5t3.5 -7.5t-5 -12q-1 -2 0 -4q5 -14 19 -32q4 -5 15 -20q14 -22 14 -47q0 -19 -8 -36q-9 -20 -25.5 -33.5t-36.5 -16.5zM174 130q4 0 7 2.5t3 7.5q0 4 -3 7t-7 3t-7 -3t-3 -7q0 -5 3 -7.5t7 -2.5zM81 138q4 0 7.5 3t3.5 8t-3.5 8t-7.5 3 q-5 0 -8.5 -3t-3.5 -8t3.5 -8t8.5 -3zM101 128q4 -6 12 -7q4 -1 12 3q2 -3 6.5 -5t8.5 -2q7 0 12 5v0q3 3 0 6t-6 0q-2 -2 -6 -2t-8 3q-2 3 -5 4q-3 0 -7 -2t-6 -2q-4 1 -6.5 4t-5.5 0q-4 -2 -1 -5v0zM66 46q-10 -6 -17 -6q-6 0 -6 3q0 5 10 12v0q4 2 1 6q-2 4 -5 1 q-15 -9 -15 -19q0 -11 15 -11q10 0 21 7q4 3 1 6q-2 4 -5 1zM199 119q10 -2 10 -11v-4q0 -6 -5 -29q0 -4 -5 -29q-2 -26 -2 -44q-2 -13 -6 -16q-5 -8 -12 -8q-3 0 -12 6q-6 9 -9 10q-3 12 -10 19q0 2 -12 19q-16 28 -26 44q-2 3 -5 8q-2 -8 -2 -18v-81q0 -11 -9 -11 q-9 1 -9 10v82q1 30 4 39t11 9q6 0 13 -11q8 -7 16 -24q7 -9 24 -38q9 -15 17 -26q4 -10 8 -13q0 29 7 71q2 19 4 19v6q1 19 5 19q0 1 5 2z"/>
<glyph unicode="O" glyph-name="O" d="M232 107v1l-18 24q-11 15 -16 27q5 8 5 15q0 6 -2 10q-5 8 -15 8q-15 0 -20 -15q-12 3 -36 6q-25 3 -37 3q-2 7 -7.5 12t-13.5 5q-9 0 -15 -6q-4 -5 -4 -13q0 -7 4 -14l-8 -20q-4 -8 -10 -25q0 -1 -3 -8q-3 -8 -10 -34q-22 -11 -22 -24q-1 -7 6 -11q6 -3 13 -1 q-1 -35 13 -52q7 -9 18 -17q-20 -7 -18 -16q2 -8 28 -8q18 0 36 4v1q22 -5 47 -5q14 0 22 1q20 4 37 16q9 -6 18 -6q12 0 11 9q-1 7 -13 11q26 30 26 68q0 28 -16 54zM45 -36q5 4 18 9q10 -6 21 -9q-28 -3 -39 0zM226 -27q-5 -1 -13 4q1 0 2 2v0q8 -3 11 -6zM165 -34 q-10 -1 -21 -1q-68 0 -99 36q-10 13 -10 40v12q1 2 -2 4q-2 1 -4 -1q-6 -4 -11 -2q-2 1 -2 4q1 7 19 16q2 1 2 2q5 18 10 35l2 7q1 1 10 24l8 20q1 2 0 3q-4 7 -4 12q0 4 3 7q4 5 12 3q8 -3 8 -13q0 -5 4 -4q8 1 30 -1l9 -23l8 21q23 -3 28 -5q2 -1 3.5 0t2.5 2q2 11 10 12 q4 1 7.5 -1.5t3.5 -6.5q0 -6 -5 -13q-1 -1 -1 -3q6 -15 20 -33q4 -5 14 -19q14 -23 14 -48q0 -19 -7 -36q-9 -20 -25.5 -33.5t-36.5 -16.5zM174 130q4 0 7 2.5t3 7.5q0 4 -3 7t-7 3t-7 -3t-3 -7q0 -5 3 -7.5t7 -2.5zM81 138q4 0 7.5 3t3.5 8t-3.5 8t-7.5 3q-5 0 -8.5 -3 t-3.5 -8t3.5 -8t8.5 -3zM101 128q4 -6 12 -7q4 -1 12 3q2 -3 6.5 -5t8.5 -2q7 0 12 5v0q3 3 0 6t-6 0q-2 -2 -6 -2t-8 3q-2 3 -5 4q-3 0 -7 -2t-6 -2q-4 1 -6.5 4t-5.5 0q-4 -2 -1 -5v0zM66 46q-10 -6 -17 -6q-6 0 -6 3q0 5 10 12v0q4 2 1 6q-2 4 -5 1q-15 -9 -15 -19 q0 -11 15 -11q10 0 21 7q4 3 1 6q-2 4 -5 1zM140 114q9 0 32 -6q1 -1 11 -3l14 -7q1 0 7 -8q8 -7 12 -15q8 -10 8 -19q2 -7 2 -14v-3q0 -9 -7 -23q-9 -16 -9 -17q-8 -11 -18 -14q-17 -10 -25 -10h-9q-34 5 -40 9q-20 6 -32 17q-12 13 -12 26v5v10q0 13 5 33q8 20 15 24 q12 13 28 13q8 1 9 1h4q1 1 5 1zM137 94q-4 1 -6 1q-4 -1 -7 -1h-6q-4 0 -17 -13q-8 -15 -8 -26q-1 -8 -1 -13v-10q0 -21 26 -29q1 0 11 -3q0 -3 28 -7h9q4 0 26 12q4 5 9 17q7 10 7 17v3q0 18 -11 31q-1 0 -5 4q-9 10 -14 10q0 1 -10 3q0 2 -24 6h-1q-4 -2 -6 -2z"/>
<glyph unicode="P" glyph-name="P" d="M212 151q-11 17 -15 25q4 7 4 14t-5.5 12t-13.5 4q-13 -2 -19 -17q-12 2 -30 2q-28 0 -50 -3q-4 17 -21 17q-11 0 -16 -9q-2 -3 -2 -8q0 -8 8 -17q-16 -28 -33 -56q-15 -29 -15 -65q-1 -30 21 -52q25 -25 72 -31q0 -6 5.5 -10t12.5 -4q15 0 17 12v0v0q3 0 8 1 q92 4 104 66q2 14 2 27q0 26 -11 51q-6 15 -23 41zM121 -37q-7 -4 -14 1q-1 0 -1 2q8 -1 17 -1q0 -1 -2 -2zM231 34q-11 -35 -39 -47q-20 -9 -61 -11h-11q11 11 15 76q-7 -1 -14 0q2 -50 -2 -76q-57 2 -84 29q-19 19 -19 44q1 30 12 57q7 15 22 38q5 7 13 21q1 2 -1 4 q-7 8 -7 14q0 4 4 6t8 1q9 -1 11 -13q0 -5 4 -4q10 2 31 4q1 -7 1 -13q9 1 17 -1q-1 8 -3 14q24 0 35 -3q4 -1 5 3q3 13 13 14q3 1 6 -1.5t3 -6.5t-4 -10q-1 -2 0 -4q6 -12 21 -35q13 -21 18 -33q8 -20 8 -43q0 -12 -2 -24zM116 133l3 -44q10 -1 18 0q0 22 -1 42q-9 3 -20 2 zM92 157q-2 -1 -4 -4q-8 -2 -8 -11q2 -125 1 -146q0 -5 3.5 -8t8.5 -3t8.5 3t3.5 8v66q9 -4 21 -4q17 0 35 8q20 7 20 36q0 9 -2 25q-7 17 -24 27q-16 9 -35 9q-16 0 -28 -6zM157 91q-9 -9 -27 -9q-21 0 -26 6l-1 49q9 3 18 3q12 0 21 -5q11 -6 14 -16q2 -4 2 -9v-10 q-1 -6 -1 -9z"/>
<glyph unicode="Q" glyph-name="Q" d="M212 151q-11 17 -15 25q4 7 4 14t-5.5 12t-13.5 4q-13 -2 -19 -17q-12 2 -30 2q-28 0 -50 -3q-4 17 -21 17q-11 0 -16 -9q-2 -3 -2 -8q0 -8 8 -17q-16 -28 -33 -56q-15 -29 -15 -65q-1 -30 21 -52q25 -25 72 -31q0 -6 5.5 -10t12.5 -4q15 0 17 12v0v0q3 0 8 1 q92 4 104 66q2 14 2 27q0 26 -11 51q-6 15 -23 41zM121 -37q-7 -4 -14 1q-1 0 -1 2q8 -1 17 -1q0 -1 -2 -2zM231 35q-11 -35 -39 -47q-20 -9 -75 -9t-82 27q-19 19 -19 44q1 30 12 57q7 15 22 38q5 7 13 21q1 2 -1 4q-7 8 -7 14q0 4 4 6t8 1q9 -1 11 -13q0 -5 4 -4 q10 2 31 4q1 -7 1 -13q9 1 17 -1q-1 8 -3 14q24 0 35 -3q4 -1 5 3q3 13 13 14q3 1 6 -1.5t3 -5.5q0 -5 -4 -11q-1 -2 0 -3q6 -13 21 -36q13 -21 18 -33q8 -20 8 -43q0 -12 -2 -24zM129 172q14 0 16 -4q1 0 12 -7q2 0 7 -7q2 0 10 -9l4 -4q1 0 8 -12q0 -1 7 -14l6 -21 q1 -7 1 -12v-19q0 -3 -4 -15q-4 -13 -5 -14q15 -4 25 -5q7 -5 7 -10q0 -7 -10 -9l-30 8q-13 -18 -28 -25q0 -3 -9 -3q-44 3 -61 20l-10 7q-1 4 -5 7q-10 23 -10 27q-3 8 -3 13v10q-1 8 -1 9v19l3 21q3 10 8 22q0 6 10 14q9 7 52 13zM112 151h-2q-2 0 -16 -3q-10 -5 -10 -11 q-9 -14 -9 -28q-1 -2 -1 -7v-17q1 -9 1 -10v-11q0 -4 2 -9q0 -3 7 -19q1 0 6 -8q2 0 9 -6q7 -5 14 -7q5 -4 14 -5l7 -2h9q14 4 22 16q-2 0 -16 10q-10 6 -10 16q0 8 9 9q7 0 10 -9l14 -9q0 -1 2 -1q3 4 8 24v18q0 17 -11 37q-2 5 -6 9q-13 15 -21 20q-2 0 -6 3q-3 1 -5 3h-4 q-4 -2 -17 -3z"/>
<glyph unicode="R" glyph-name="R" d="M210 148q-11 17 -16 26q5 7 5 13q0 8 -6 12.5t-14 3.5q-14 -2 -19 -17q-12 3 -31 3q-28 0 -50 -4q-4 18 -21 18q-12 0 -17 -9q-2 -4 -2 -8q0 -9 8 -18q-16 -28 -33 -56q-15 -30 -15 -66q-1 -31 22 -53q25 -25 72 -31q0 -6 5.5 -10t12.5 -4q16 0 17 12v0v0q3 0 9 1 q92 4 104 67q3 14 3 27q0 26 -11 52q-6 15 -23 41zM118 -38q-7 -3 -13 1q-1 1 -1 2q7 -1 16 -1q0 -1 -2 -2zM229 31q-12 -35 -40 -48q-19 -9 -61 -10h-11h-1q-57 1 -85 29q-19 19 -18 44q0 30 12 57q6 16 22 39q5 7 13 20q1 3 -1 5q-7 8 -7 14q0 4 3.5 6t8.5 1q9 -1 10 -13 q1 -5 5 -4q10 2 31 4q1 -7 1 -13q9 1 17 -1q-1 8 -3 14q24 0 35 -3q4 -1 5 3q4 13 13 14q4 1 7 -1.5t3 -5.5q0 -5 -4 -11q-1 -2 0 -4q5 -12 20 -35q14 -21 19 -34q8 -20 8 -43q0 -12 -2 -24zM113 127l3 -43q10 -1 18 0q0 22 -1 41q-9 3 -20 2zM90 150q-2 -1 -4 -3 q-8 -3 -7 -11q1 -121 1 -141q0 -5 3 -8.5t8 -3.5t8 3.5t3 8.5q1 31 0 63q9 -3 21 -3q16 0 34 7q19 7 19 35q0 9 -2 24q-6 16 -23 26q-15 9 -34 9q-15 0 -27 -6zM153 86q-9 -8 -26 -8q-20 0 -25 6l-1 47q8 3 17 3q12 0 21 -5q10 -6 13 -16q2 -3 2 -8v-10q-1 -6 -1 -9zM111 56 q7 0 9 -11q4 -3 8 -10q4 -3 10 -11q1 0 7 -5q1 -2 14 -9l12 -2q0 1 17 4q4 3 6 10q1 4 1 8h-7q-1 -10 -9 -10q-7 0 -9 9q0 10 8 16q6 2 10 2h1q16 0 19 -4q4 -3 4 -10q0 -11 -2 -21q-4 -8 -9 -12q-7 -6 -16 -6q-10 -3 -14 -4q-20 3 -22 6q-18 8 -18 12q-3 0 -14 14 q-3 1 -8 10q-2 0 -6 9q-1 4 -1 6q0 7 9 9z"/>
<glyph unicode="S" horiz-adv-x="261" glyph-name="S" d="M216 150q-11 17 -15 26q4 7 4 13q0 8 -6 12.5t-14 3.5q-13 -2 -19 -17q-11 3 -30 3q-28 0 -50 -4q-4 18 -21 18q-12 0 -17 -9q-2 -4 -2 -8q0 -9 8 -18l-32 -56q-16 -29 -16 -65q0 -30 22 -53q25 -25 72 -31q0 -6 5.5 -10t12.5 -4q15 0 16 12v1h1h8q92 5 104 67q3 14 3 27 q0 26 -11 51q-7 15 -23 41zM123 -38q-7 -3 -13 1q-1 1 -1 2h17q-1 -2 -3 -3zM236 32q-12 -35 -40 -48q-20 -9 -62 -11h-11q10 11 -1 0q-59 2 -86 30q-19 19 -19 45q0 30 12 57q7 16 22 39q5 8 13 21q2 3 0 5q-8 8 -8 14q0 4 4 6.5t8 1.5q10 -2 11 -14q1 -4 5 -3q10 2 32 3 v-13q9 1 18 -1q-2 8 -3 14q24 1 35 -2q4 -1 5 2q4 13 13 14q4 1 7 -1t3 -6q0 -5 -4 -10q-1 -2 0 -5l21 -35q14 -22 19 -35q8 -20 8 -43q0 -12 -2 -25zM96 -16q5 0 0.5 0t-0.5 0zM110 167h11q20 0 24 -3q8 -1 10 -4q13 -4 14 -5q2 -2 7 -3q4 -3 9 -12l1 -3q0 -7 -9 -9 q-5 0 -9 7q-7 5 -15 7q-5 2 -11 5q-7 3 -16 3h-18q-12 -7 -14 -9q-7 -8 -7 -11q-2 -3 -2 -4v-5q2 -10 8 -15q3 -6 11 -11q4 0 9 -3l15 -6q9 -2 23 -2h3q4 0 18 -5l11 -9q4 -6 11 -18q4 -4 6 -19q1 -2 1 -4v-3q0 -4 -4 -15q-7 -8 -16 -14q-3 -3 -9 -5q0 -1 -11 -3 q-1 -2 -13 -3q0 -2 -17 -2h-20q-9 0 -27 7q-10 10 -12 19v5v3q0 10 10 12q7 1 9 1h1q11 0 11 -9q0 -8 -11 -9h-2q0 -3 4 -6q0 -3 17 -5h25q17 2 22 4q9 1 20 11q3 2 5 9q-1 11 -4 17q-9 15 -12 18t-14 5h-2q-26 0 -41 8q-1 0 -9 4q-5 1 -10 5q-3 0 -15 15q-2 1 -7 13 q-2 1 -2 7v8q0 6 5 16q8 9 8 10t9 7q2 0 11 7q6 1 10 1z"/>
<glyph unicode="T" horiz-adv-x="264" glyph-name="T" d="M217 148q-11 17 -16 26q5 7 5 13q0 8 -6 12.5t-14 3.5q-14 -2 -20 -17q-11 3 -30 3q-28 0 -51 -4q-4 18 -21 18q-12 0 -17 -10q-2 -3 -2 -7q0 -9 8 -18q-16 -28 -33 -56q-16 -30 -16 -66q0 -30 22 -53q26 -25 73 -30q0 -7 5.5 -10.5t13.5 -3.5q15 0 16 11v1h1h9 q93 5 105 67q2 14 2 28q0 26 -11 51q-6 15 -23 41zM124 -38q-7 -3 -13 1q-2 1 -2 2h17q0 -2 -2 -3zM235 31q-11 -35 -35 -45.5t-66 -12.5h-11h-1q-58 2 -86 29q-19 19 -18 45q0 30 12 57q6 16 22 39q5 7 13 21q1 3 -1 5q-7 7 -7 13q0 5 3.5 7t8.5 1q9 -1 11 -13q0 -5 5 -4 q10 2 31 3q0 -7 1 -22q8 -4 17 -3q-1 19 -3 26q24 0 35 -3q4 -1 5 3q4 13 13 14q4 1 7 -1.5t3 -6.5t-4 -10q-1 -2 0 -4l21 -36q13 -21 18 -34q9 -20 9 -43q0 -12 -3 -25zM123 158q-15 0 1.5 0t-1.5 0zM186 154q10 -2 10 -10q0 -9 -16 -10h-32q-5 -2 -9 -2h-2q1 -8 2 -35v-12 q-4 -30 -4 -48v-40q0 -11 -9 -11q-8 0 -10 8v6v37q0 18 4 48v12q-1 27 -2 35h-14q-18 -2 -34 -3q-8 0 -9 9q1 9 12 9q0 1 8 2h10q5 1 9 1h36l15 2h28q5 2 7 2z"/>
<glyph unicode="U" horiz-adv-x="272" glyph-name="U" d="M92 32q-1 -4 3 -5q5 -1 6 4v0q3 14 -14 20v1q0 11 -6 16q-4 5 -10 5q-4 0 -5 -4q0 -4 4 -4v0q9 -1 9 -12q-1 -3 0 -6q2 -3 6 -4t6 -4t1 -7zM89 24q-4 1 -5 -3q-1 -5 3 -6q10 -2 13 -11q1 -4 0 -5v0q-4 -3 0 -6q2 -3 5 0q5 5 3 13q-4 14 -19 18zM40 92q-4 1 -4 -4 q0 -4 4 -4v0q4 0 7 -6.5t2 -10.5t3 -5t5 3q1 2 1 5q0 9 -5.5 15.5t-12.5 6.5zM208 5q-7 1 -13 1q-16 0 -18 -9q-1 -6 4 -11q6 -7 21 -10q4 -1 5 3t-3 5q-10 2 -15 6q-4 3 -4 5q1 3 10 3q5 0 11 -2q4 -1 5 4q1 4 -3 5zM245 116q-11 9 -23 9q-14 0 -14 -10q0 -11 22 -24 q4 -2 6 2t-2 6v0q-18 10 -18 15q0 1 1.5 1.5t4.5 0.5q9 0 18 -7q3 -2 6 1t-1 6zM256 21q14 37 14 69q0 40 -23 68q-21 25 -44 35t-56 9q-46 -3 -80 -35q-30 -28 -46 -75q-17 -3 -17 -19q0 -11 7 -16.5t16 -3.5q5 -12 20 -33q11 -18 22 -30q-6 -7 -6 -14q0 -9 6.5 -15.5 t14.5 -5.5q12 2 15 16q8 4 31 4q8 0 22 -7q16 -8 23 -9q5 -1 10 -1q35 0 58 38q7 -6 13 -5q8 2 8 12q0 9 -8 18zM174 -29q-6 1 -21 9q-14 7 -24 7q-27 -1 -35 -7q-1 -1 -1 -2q-2 -9 -8 -10t-10 7q-1 2 -1 4q0 6 6 11q1 1 1 3t-1 3q-8 7 -20 26l7 14l-15 -3q-12 18 -14 27 q0 2 -2 3t-4 0q-6 -4 -10 0q-6 5 -4 13q3 6 11 6q3 0 4 3q18 55 53 80q25 18 60 22q30 1 50.5 -8t38.5 -31q20 -24 20 -60q0 -30 -13 -63q-23 -54 -59 -54h-9zM250 4l-1 -2q-2 0 -7 4l4 8q5 -6 4 -10zM180 161q8 0 11 -11q4 -7 4 -10q2 -4 7 -27q2 -2 4 -11q2 -6 2 -13v-21 q0 -3 -5 -19q-3 -6 -9 -19q-4 -4 -7 -8q-10 -11 -21 -13l-12 -1h-4q-5 0 -21 4q-15 10 -15 13q-7 6 -10 13q-8 13 -10 24q-2 1 -4 16q-1 0 -3 11q-1 0 -6 28l-5 14q-1 5 -1 8q0 7 9 9q8 -2 8 -10q5 -12 10 -39q2 -4 5 -20q0 -4 5 -15q0 -6 9 -19q0 -4 7 -10q4 -5 8 -7 q10 -2 11 -3h4q20 0 26 11q4 4 8 16q3 2 5 14v3v21q0 6 -6 25q-3 15 -6 21q0 1 -3 6q-4 8 -4 11q1 8 9 8z"/>
<glyph unicode="V" horiz-adv-x="270" glyph-name="V" d="M89.5 32q-0.5 -4 3.5 -5t5 4v0q3 14 -14 20l1 1q0 11 -6 16q-5 5 -11 5q-4 0 -4 -4t4 -4v0q8 -1 8 -12q-1 -3 1 -6t6 -4q3 -1 5 -4t1.5 -7zM86 24q-4 1 -5 -3q0 -5 4 -6q9 -2 12 -11q1 -4 0 -5v0q-3 -3 0 -6t6 0q4 5 2 13q-3 14 -19 18zM38 92q-5 1 -5 -4q0 -4 5 -4v0 q4 0 7 -6.5t1.5 -10.5t2.5 -5t6 3v5q0 9 -5 15.5t-12 6.5zM206 5q-8 1 -14 1q-16 0 -18 -9q-1 -6 4 -11q7 -7 21 -10q4 -1 5 3t-3 5q-9 2 -15 6q-4 3 -4 5q1 3 10 3q6 0 12 -2q4 -1 5 4q1 4 -3 5zM251 21q15 36 15 68q0 40 -23 67q-21 25 -43.5 35t-56.5 9q-45 -3 -78 -34 q-30 -29 -46 -75q-16 -3 -16 -19q0 -10 6.5 -16t15.5 -3q5 -13 19 -34q12 -17 22 -29q-5 -6 -5 -14t6 -14.5t15 -5.5q11 1 15 15q7 4 29 4q9 0 23 -7q16 -8 23 -9q5 -1 10 -1q34 0 57 38q6 -6 13 -5q8 2 8 12q0 9 -9 18zM172 -29q-7 1 -22 9q-14 7 -24 7q-26 -1 -34 -7 q-2 -1 -2 -2q-2 -9 -8 -10t-9 7q-1 2 -1 4q0 6 5 11q1 1 1 3t-1 3q-7 7 -20 26l7 14l-14 -3q-12 18 -14 27q-1 2 -3 3t-4 0q-6 -4 -10 0q-6 5 -3 13q2 6 10 6q3 0 4 3q18 55 54 80q24 18 59 22q31 1 51 -8t39 -31q20 -24 20 -60q0 -30 -14 -63q-22 -54 -59 -54h-8zM247 4 q0 -2 -1 -2q-2 0 -6 4q2 4 3 8q5 -6 4 -10zM206 154q10 -2 10 -10q0 -1 -3 -6q0 -4 -5 -12q-2 -6 -3 -12q-1 0 -5 -12q-4 -5 -15 -31q0 -1 -6 -11q0 -2 -5 -8q-10 -21 -15 -31q-16 -19 -20 -19l-3 -1q-8 0 -10 9q-1 1 -3 7q-5 10 -6 15q-1 0 -5 16q-1 3 -8 29q-3 2 -6 15 q-5 12 -16 28q-10 18 -10 20v2q2 8 9 8t11 -12q1 0 10 -16q4 -5 11 -18q4 -13 10 -28q1 -6 10 -35l2 -5q0 -4 4 -11q5 5 8 14q2 2 5 10q2 3 7 13q10 14 12 22q3 5 5 12q9 15 11 23q1 1 4 13q3 3 7 16q3 6 8 6z"/>
<glyph unicode="W" horiz-adv-x="271" glyph-name="W" d="M90.5 32q-0.5 -4 3.5 -5t5 4v0q3 14 -13 20v1q0 11 -6 16q-5 5 -11 5q-4 0 -4 -4t4 -4v0q8 -1 8 -12q-1 -3 1 -6t6 -4t5.5 -4t1 -7zM88 24q-4 1 -6 -3q0 -5 4 -6q10 -2 12 -11q1 -4 0 -5v0q-3 -3 0 -6t6 0q5 5 3 13q-4 14 -19 18zM39 92q-4 1 -4 -4q0 -4 4 -4v0 q4 0 7 -6.5t1.5 -10.5t2.5 -5q5 -1 6 3v5q0 9 -5 15.5t-12 6.5zM207 5q-8 1 -13 1q-17 0 -19 -9q-1 -6 5 -11q6 -7 20 -10q4 -1 5 3t-3 5q-9 2 -15 6q-4 3 -3 5q0 3 10 3q5 0 11 -2q4 -1 5 4q1 4 -3 5zM254 21q14 36 14 68q0 40 -22 68q-21 24 -43.5 34t-56.5 10 q-45 -4 -78 -35q-30 -28 -46 -74q-17 -3 -17 -20q0 -10 7 -15.5t16 -3.5q5 -12 19 -33q12 -18 22 -29q-6 -7 -6 -14q0 -9 6.5 -15.5t15.5 -5.5q11 2 14 15q8 4 30 5q9 0 23 -7q16 -8 23 -9q5 -1 10 -1q34 0 57 38q6 -7 13 -5q8 2 8 11q0 10 -9 18zM173 -29q-7 1 -22 9 q-13 7 -23 7q-27 -1 -35 -7q-2 -1 -2 -2q-2 -9 -7 -10q-7 -1 -10 7q-1 2 -1 4q0 6 5 11q1 1 1 3t-1 3q-7 7 -20 26l8 14l-15 -3q-12 18 -14 27q-1 2 -3 3t-3 0q-7 -4 -11 0q-6 5 -3 13q2 6 10 6q4 0 4 3q18 55 54 80q24 18 59 22q31 1 51 -8t39 -31q20 -24 20 -60 q0 -30 -14 -63q-22 -54 -58 -54h-9zM248 4q0 -2 -1 -2q-2 0 -6 4l4 8q4 -6 3 -10zM67 137q7 0 10 -10q14 -19 14 -23q14 -17 17 -29q2 -1 6 -19q1 -2 7 -19q1 2 7 17q1 3 4 16q3 6 7 25q5 12 5 20q0 15 7 20h4q4 0 8 -5q0 -14 12 -56q2 -5 6 -24q1 -1 4 -10h1q11 19 11 27 q2 4 4 11q9 21 14 34q5 7 5 12l7 11q2 2 6 2q9 -1 9 -9v-1q0 -4 -4 -10q-3 -6 -8 -14q-1 -6 -12 -33q-3 -8 -6 -17q-3 -10 -18 -37q-4 -6 -9 -6q-8 0 -12 13q-2 3 -4 12q-6 10 -8 23l-6 21v1h-1q0 -4 -5 -18q-3 -13 -7 -22q-1 -2 -7 -15q-7 -18 -15 -18q-6 0 -10 9 q-2 1 -5 13q-8 18 -13 38l-5 12q-13 18 -13 20q0 1 -15 24q-1 4 -1 5q2 9 9 9z"/>
<glyph unicode="X" horiz-adv-x="269" glyph-name="X" d="M88.5 32q-0.5 -4 3.5 -5t5 4v0q3 14 -13 20v1q0 11 -6 16q-5 5 -11 5q-4 0 -4 -4t4 -4v0q8 -1 8 -12q-1 -3 1 -6t6 -4t5.5 -4t1 -7zM86 24q-5 1 -6 -3q0 -5 4 -6q10 -2 12 -11q1 -4 0 -5v0q-3 -3 0 -6t6 0q5 5 3 13q-4 14 -19 18zM37 92q-4 1 -4 -4q0 -4 4 -4v0 q4 0 7 -6.5t1.5 -10.5t2.5 -5q5 -1 6 3v5q0 9 -5 15.5t-12 6.5zM205 5q-8 1 -13 1q-17 0 -19 -9q-1 -6 4 -11q7 -7 21 -10q4 -1 5 3t-3 5q-9 2 -15 6q-4 3 -3 5q0 3 10 3q5 0 11 -2q4 -1 5 4q1 4 -3 5zM234 119q-12 9 -24 9q-14 0 -14 -10q0 -11 22 -23q4 -2 6 2q2 3 -1 5v0 q-19 10 -19 16l1.5 1t4.5 1q9 0 18 -8q4 -2 6 1q3 4 0 6zM249 23q14 35 14 67q0 40 -23 67q-20 24 -42.5 34t-55.5 9q-46 -3 -78 -34q-30 -28 -46 -74q-16 -2 -16 -19q0 -10 6.5 -16t15.5 -3q5 -12 19 -33q12 -17 22 -29q-6 -7 -6 -14q0 -8 6.5 -14.5t14.5 -5.5q11 1 15 15 q7 4 30 4q8 0 22 -7q16 -8 23 -9q5 -1 9 -1q34 0 57 38q7 -7 13 -5q8 2 8 12q0 9 -8 18zM171 -29q-7 1 -22 9q-13 7 -23 7q-27 -1 -35 -7q-2 -1 -2 -2q-2 -9 -8 -10t-9 7q-1 2 -1 4q0 6 5 11q1 1 1 3t-1 3q-7 7 -20 26l8 14l-15 -3q-12 18 -14 27q-1 2 -3 3t-3 0 q-7 -4 -11 0q-6 5 -3 13q2 6 10 6q4 0 4 3q18 55 54 80q24 18 59 22q31 1 51 -8t39 -31q20 -24 20 -60q0 -30 -14 -63q-22 -54 -58 -54h-9zM246 4q0 -2 -1 -2q-2 0 -6 4l4 8q4 -6 3 -10zM193 170q9 -2 9 -9q0 -5 -9 -12q-28 -30 -32 -40q-9 -9 -9 -13l18 -9q5 -4 14 -8 q10 -6 14 -8q3 -1 10 -4q0 -2 7 -4q7 -5 13 -10q2 -4 5 -5q4 -4 4 -9q-1 -9 -9 -9q-6 0 -13 10q-1 0 -7 6q-3 0 -17 9q-1 0 -11 6q-12 6 -21 12q-2 0 -13 7h-1q-3 -10 -10 -25q-9 -22 -13 -42q-3 -8 -10 -8t-9 10q3 7 3 11l3 12l8 18q2 7 5 13q0 1 4 10q1 5 4 11 q-31 18 -42 26q-3 5 -13 12q-6 6 -6 10q1 9 9 9q4 0 11 -7q12 -9 13 -11q21 -16 35 -22q3 6 12 17q0 2 19 24q18 22 25 22v0z"/>
<glyph unicode="Y" horiz-adv-x="275" glyph-name="Y" d="M92 32q-1 -4 3 -5q5 -1 6 4v0q3 14 -14 20v1q0 11 -6 16q-4 5 -10 5q-4 0 -5 -4q0 -4 4 -4v0q9 -1 9 -12q-1 -3 0 -6q2 -3 6 -4t6 -4t1 -7zM89 24q-4 1 -5 -3q-1 -5 3 -6q10 -2 13 -11q1 -4 0 -5v0q-4 -3 0 -6q2 -3 5 0q5 5 3 13q-4 14 -19 18zM40 92q-4 1 -4 -4 q0 -4 4 -4v0q4 0 7 -6.5t2 -10.5t3 -5t5 3q1 2 1 5q0 9 -5.5 15.5t-12.5 6.5zM208 5q-7 1 -13 1q-16 0 -18 -9q-1 -6 4 -11q6 -7 21 -10q4 -1 5 3t-3 5q-10 2 -15 6q-4 3 -4 5q1 3 10 3q5 0 11 -2q4 -1 5 4q1 4 -3 5zM237 119q-12 9 -24 9q-13 0 -14 -10q0 -11 23 -23 q4 -2 6 2q2 3 -2 5v0q-18 10 -18 16l1.5 1t3.5 1q9 0 19 -8q3 -2 6 1q2 4 -1 6zM253 21q14 36 14 68q0 40 -22 68q-21 24 -43.5 34t-56.5 10q-45 -4 -78 -35q-30 -28 -46 -74q-17 -3 -17 -20q0 -10 7 -15.5t16 -3.5q5 -12 19 -33q12 -18 22 -29q-6 -7 -6 -14q0 -9 6.5 -15.5 t14.5 -5.5q12 2 15 15q8 4 30 5q9 0 23 -7q15 -8 23 -9q5 -1 9 -1q35 0 58 38q6 -7 13 -5q8 2 8 11q0 10 -9 18zM174 -29q-6 1 -21 9q-14 7 -24 7q-27 -1 -35 -7q-1 -1 -1 -2q-2 -9 -8 -10t-10 7q-1 2 -1 4q0 6 6 11q1 1 1 3t-1 3q-8 7 -20 26l7 14l-15 -3q-12 18 -14 27 q0 2 -2 3t-4 0q-6 -4 -10 0q-6 5 -4 13q3 6 11 6q3 0 4 3q18 55 53 80q25 18 60 22q30 1 50.5 -8t38.5 -31q20 -24 20 -60q0 -30 -13 -63q-23 -54 -59 -54h-9zM250 4l-1 -2q-2 0 -7 4l4 8q5 -6 4 -10zM211 164q9 -2 9 -9q0 -5 -13 -17q-15 -15 -18 -15q-11 -12 -21 -19 q0 -2 -7 -8l-4 -6v-10v-41q3 -11 3 -14v-24q0 -11 -9 -11q-7 0 -9 8v5v19q0 3 -3 16v44q-8 13 -18 23q-24 24 -27 30q-8 8 -8 15q0 8 9 10q7 0 9 -10q9 -8 11 -14q1 0 20 -20q1 0 10 -11v0q4 6 7 7q0 3 13 12q9 10 10 10q5 5 11 8q12 12 17 18q4 4 8 4z"/>
<glyph unicode="Z" glyph-name="Z" d="M247 45q0 37 -16 68q-17 29 -33 58q8 9 8 18q0 4 -2 7q-5 9 -17 9q-16 0 -20 -17q-34 6 -60 6q-11 0 -18 -1q-8 14 -22 14q-7 0 -11.5 -4.5t-4.5 -11.5t4 -14l-32 -58q-17 -33 -17 -66q0 -19 3 -27q8 -24 23 -38q-13 -9 -11 -19t16 -10q15 0 23 13q16 -5 45 -5q4 0 12 -1 q35 -1 62 7q5 -7 14 -10q7 -3 15 -2q10 1 11 8q2 7 -11 15q11 7 19 15q20 20 20 46zM37 -28q-4 1 -5 3q-1 5 10 11q6 -4 12 -7q-6 -8 -17 -7zM207 -25q-2 -2 -9 -1q-8 1 -13 6q6 2 11 4q10 -6 11 -9zM117 -21h-12q-31 1 -47 7q-27 12 -37 44q-3 12 -3 24q0 23 8 44 q6 15 19 36q15 26 21 38q1 2 -1 4q-4 6 -4 11q0 8 8 7q9 0 16 -11q1 -3 4 -3q11 4 35 2l6 -17l7 15q18 -2 30 -4q5 -1 5 3q1 12 10 13q5 1 8.5 -1t3.5 -6q0 -6 -7 -13q-2 -2 -1 -5q6 -13 21 -38q13 -22 18 -36q8 -22 9 -47q0 -21 -17 -38q-30 -31 -100 -29zM177 163 q-4 0 -7 -2.5t-3 -6.5t3 -7t7 -3t7 3t3 7t-3 6.5t-7 2.5zM80 171q-4 0 -7 -3t-3 -8q0 -4 3 -7t7 -3q5 0 8 3t3 7q0 5 -3 8t-8 3zM153 148q3 3 0 5q-3 3 -5.5 0.5t-5.5 -2.5q-4 0 -8 3q-2 2 -5 3q-2 1 -5.5 -1.5t-6.5 -2.5q-4 0 -6 3t-5 1q-4 -3 -1 -6q4 -5 11 -6q5 0 12 4 q1 -3 6 -4.5t8 -1.5q7 0 11 5zM116 139q-4 0 -3 -4q2 -12 -1 -15q-4 1 -7 14q-2 4 -5 3q-4 -2 -3 -5q6 -23 17 -20q8 2 8 15q0 4 -1 9q-1 4 -5 3zM157 134q-3 2 -5 -1q-7 -14 -11 -13q-3 1 -1 11q1 4 -3 5t-4.5 -3t-0.5 -7q0 -14 9 -14t18 17v0q2 3 -2 5zM149 114h26 q20 -2 20 -7q1 0 1 -5q0 -7 -11 -15q-10 -11 -17 -13q-24 -15 -39 -24q-14 -10 -27 -27q-1 0 -6 -9h1q10 4 32 4q26 0 46 3q8 1 11 1q10 -2 10 -10q0 -6 -8 -9q-4 0 -44 -4q-36 0 -38 -2q-28 -9 -30 -9q-8 0 -10 10q0 4 5 9q8 13 15 27q0 1 6 7q3 5 17 18q18 12 32 20 q7 5 25 15v1h-17q-1 0 -16 -1h-28q-4 0 -31 -8q-1 0 -5 -1q-8 0 -9 10q0 7 11 10q2 0 26 7h11h25q1 0 16 2z"/>
<glyph unicode="[" horiz-adv-x="236" glyph-name="bracketleft" d="M122 220q21 2 43 -34q41 -23 44 -71l-1 -9v-3q21 -5 24 -32q1 -20 -28 -34q-8 -54 -30 -55l-33 -7l-10 -1q-89 3 -90 24l-3 37q-35 1 -36 25l-1 16q9 22 20 24l-2 2q-4 59 59 89q6 0 25 23zM42 114l2 -21l3 -2v-5q-16 -1 -24 -16q1 -11 16 -16l29 11l12 -29q8 -4 15 -4h5 q11 1 24 20h7q12 -14 27 -14q21 5 20 21l3 3l3 1l20 -1l5 8v4q-1 11 -20 9l-4 3v3v31q-2 31 -28 47l-4 -1q-1 -11 -19 -12l-18 -2q-15 -1 -30 18q-46 -19 -44 -56zM60 25v-15q3 -11 19 -10v11q-6 0 -19 14zM101 7l2 -2l1 -3l-2 -6l10 1l21 -1l3 19l-3 6h-2q-13 -13 -30 -15 v1zM167 18l-10 -1l-2 -17l1 -1q22 2 20 21l-5 -1z"/>
<glyph unicode="\" horiz-adv-x="198" glyph-name="backslash" d="M90 220q13 0 15 -13q0 -2 -6 -17l-2 -6h-3q7 4 20 8v1q26 -3 30 -6q6 -1 18 -13q4 -3 11 -11q1 0 10 -14q12 -27 12 -34v-3v-7v-2v-1q0 -20 -14 -42q-16 -16 -19 -17l12 -21q11 -20 11 -23v-1q0 -7 -9 -17q-3 -4 -7 -7q0 -2 -15 -5h-3h-3h-3h-4q-16 3 -16 7q-2 3 -8 19 l-9 25l-18 -3h-10h-2q-19 4 -29 10q-6 0 -26 21q-3 7 -10 26q-4 9 -4 18q-1 0 -1 6v4v2v1v4q2 25 4 25q1 7 14 21q3 6 15 9q6 4 25 6q3 19 8 32q5 16 10 16q3 2 6 2zM91 150q1 -5 -1 -5q8 12 14 12h2q9 0 11 -10v-1q-1 -10 -21 -26q-10 -6 -20 -6v1l-2 -1h-4q-20 5 -20 16 q2 11 11 11h1q3 0 5 -2v-4q-1 3 -2 8v0q-9 0 -19 -5q-9 -11 -9 -16l-1 -13v-7v-2l-4 34v-20q8 -37 11 -40v0q2 1 3 3q6 10 18 12q8 0 18 -8q2 -1 5 -1h3l1 4q5 8 9 8q3 3 8 3l13 -4q7 0 7 1v-2h-1q0 18 11 27l8 1h6h6q3 0 5 5v2q-4 12 -13 23q-5 6 -13 12q-6 5 -14 5l-4 1 q-13 -5 -19 -12q-2 0 -7 -4h-2zM155 96h-4v0v0q0 -12 -3 -15q0 -6 -17 -12l-11 -1l-13 4v0q5 -3 -4 -11q-6 -4 -15 -4q-13 0 -23 9l1 -1q-7 -10 -10 -10q0 -1 -2 -1v2q5 -4 11 -8q11 -4 17 -4h2h4q15 1 29 6q24 8 35 20q11 10 13 20q3 5 3 7q-4 -1 -13 -1zM133 27v1l14 -32 h1h3q4 0 4 1l-18 35v-3z"/>
<glyph unicode="]" horiz-adv-x="236" glyph-name="bracketright" d="M122 220q21 2 43 -34q41 -23 44 -71l-1 -9v-3q21 -5 24 -32q1 -20 -28 -34q-8 -54 -30 -55l-33 -7l-10 -1q-89 3 -90 24l-3 37q-35 1 -36 25l-1 16q9 22 20 24l-2 2q-4 59 59 89q6 0 25 23zM42 114l2 -21l3 -2v-5q-16 -1 -24 -16q1 -11 16 -16l29 11l12 -29q8 -4 15 -4h5 q11 1 24 20h7q12 -14 27 -14q21 5 20 21l3 3l3 1l20 -1l5 8v4q-1 11 -20 9l-4 3v3v31q-2 31 -28 47l-4 -1q-1 -11 -19 -12l-18 -2q-15 -1 -30 18q-46 -19 -44 -56zM60 25v-15q3 -11 19 -10v11q-6 0 -19 14zM101 7l2 -2l1 -3l-2 -6l10 1l21 -1l3 19l-3 6h-2q-13 -13 -30 -15 v1zM167 18l-10 -1l-2 -17l1 -1q22 2 20 21l-5 -1z"/>
<glyph unicode="^" glyph-name="asciicircum" d="M188 9q-10 2 -18 6t-16 14.5t-11.5 25.5t-5.5 28l-5 1q-2 -15 -5 -30.5t-13.5 -26.5t-23.5 -13.5t-25 -1.5t-19 5t-13 9.5t-11 15.5t-8.5 21.5t-1.5 24.5q1 5 5.5 15.5t14 23.5t28.5 32q10 8 23 7q7 -3 13 -8q14 -16 14 -25l-3 -5q-5 -4 -12 -4l-6 3l-11 13 q-11 -7 -15.5 -12t-8.5 -11t-6 -10q82 2 170 0q-22 35 -29 41q-8 -5 -14 -15l-3 -7q-5 -4 -13 -4l-5 3q-5 5 -4 12q3 8 8 13.5t10 12.5q6 4 12.5 7.5t15.5 2.5l9 -6q24 -32 33.5 -44t11.5 -27q-1 -48 -3 -55.5t-11 -16t-21.5 -12t-26.5 -3.5zM215 38q5 5 8 10.5t2 34.5h-19 q1 -1 5.5 -6.5t4.5 -12.5q-2 -5 -7 -7h-6q-6 6 -10.5 12.5t-11.5 13.5h1q1 -2 5 -8t10 -12v-6q-2 -5 -7 -7h-5q-10 7 -15 16t-7 10q1 -5 4 -16.5t11 -19.5t18.5 -6.5t18.5 4.5zM92 39q5 4 8 11t4.5 16.5t2.5 16.5h-13q7 -6 9 -18q-2 -5 -7 -7h-6q-7 6 -12 13.5t-10 11.5h-2 l7.5 -12.5t5.5 -15.5q-2 -5 -7 -7h-6q-7 5 -10 13q-3 6 -6.5 12t-6.5 10h-7q3 -16 5 -23.5t8 -14t12 -9t14.5 -2t16.5 4.5z"/>
<glyph unicode="_" horiz-adv-x="243" glyph-name="underscore" d="M137 210l9 2q51 -78 72 -151q18 0 25 -32v-6q-2 -34 -29 -34v1q-5 -12 -26 -16h-10l-12 5q0 -2 -19 -9l-15 1l-19 7l-10 -7l-18 -1q-23 8 -30 28q-43 0 -47 37l-1 2q2 26 26 37q41 67 104 136zM56 62q20 -15 67 -20h20q53 11 53 12q-26 64 -56 123q-20 -22 -84 -115z M139 137l12 -10l2 -16l-12 -10l-14 3l-9 7v18zM104 90l16 -16l-6 -12l-8 -7l-10 3l-13 8l2 18zM162 90l16 -16l-14 -18l-5 2l-4 -1l-11 8l-1 19zM36 45l-4 -6q3 -19 15 -19h4l20 3q12 -28 21 -28l18 11h11q9 -11 15 -11h7l16 14h6l10 -11l10 -3q9 2 9 21h13l8 -5q6 2 6 12v3 q0 10 -6 12h-4q-21 -19 -84 -19q-54 0 -91 26z"/>
<glyph unicode="`" horiz-adv-x="267" glyph-name="grave" d="M102 157h12q47 -3 54 -5q19 -3 41 -22q4 -5 4 -14q-3 0 27 29l5 1h1q13 0 16 -23q5 -32 5 -43v-11v-9q0 -36 -6 -43q-4 -4 -11 -4q-13 5 -29 18l-3 2h-15q19 6 13 -5q-12 -18 -40 -27l-20 -3l-23 1h-7h-17q-53 2 -59 8q-12 3 -31 19q-15 19 -15 43q0 20 8 39q16 33 40 41 q0 4 50 8zM27 67q0 -30 39 -44q25 -3 32 -3h4q5 0 12 35l2 19q0 28 -7 53q-3 9 -4 9h-4q-33 0 -43 -7q-11 -7 -21 -23t-10 -39zM124 151q15 -39 15 -76v-1q0 -27 -10 -54q-1 -1 -1 -14q-6 11 -6 14h19l16 -1q16 0 33 13q13 13 13 33q1 0 2 16v8q0 9 -9 22q-17 17 -32 19 q0 2 -33 4v0q-7 5 -7 17zM226 102v-1l2 -14v-3l-3 -31q0 -1 14 -8l8 -6h-3q0 -2 1 19v0v6q0 15 -6 57v2q8 0 -11 -20zM57 100q20 -5 20 -21q-1 -9 -8 -16q-4 -2 -12 -3q-15 0 -20 14l-1 6q3 20 21 20z"/>
<glyph unicode="a" horiz-adv-x="219" glyph-name="a" d="M207 33q0 25 -6 44q-5 13 -16 30q-14 23 -19 33q7 8 7 15q0 4 -2 7q-4 8 -14 8q-13 0 -17 -15q-30 5 -52 5q-9 0 -15 -1q-8 13 -19 13q-6 0 -10 -4t-4 -11q0 -6 3 -12q-4 -11 -18 -33q-11 -18 -16 -31q-7 -18 -7 -40q0 -17 3 -24q11 -36 40 -49q16 -8 46 -9l4 -1 q1 -10 14 -10q6 0 9 3q5 3 5 8q43 5 65 28q20 20 19 46zM111 -41q-6 -2 -9 2h14q-1 -2 -5 -2zM181 -4q-26 -27 -82 -25h-7q-28 2 -42 8q-26 11 -35 42q-2 11 -2 21q0 19 7 37q4 11 15 29q13 20 18 30q1 2 -1 4q-3 5 -3 9q0 7 7 7q8 0 13 -10q1 -3 4 -2q9 2 30 1l5 -15l7 14 q15 -2 25 -4q4 -1 4 3q2 10 9 11q4 1 7.5 -1t3.5 -5q0 -6 -7 -12q-1 -2 0 -4q2 -5 10 -18q14 -19 19 -33q10 -23 10 -49q0 -22 -15 -38zM151 116q4 0 6.5 2.5t2.5 6.5q0 3 -2.5 6t-6.5 3t-6.5 -3t-2.5 -6q0 -4 2.5 -6.5t6.5 -2.5zM63 121q4 0 7 3t3 7t-3 6.5t-7 2.5 t-6.5 -2.5t-2.5 -6.5t2.5 -7t6.5 -3zM95 108q4 -1 10 3q2 -2 6 -3.5t7 -1.5q6 0 10 4q3 3 0 5q-2 3 -4.5 0.5t-5.5 -2.5t-7 3q-2 2 -4 3q-3 0 -6 -2t-5 -2q-4 0 -6 3v0q-2 3 -5 1q-2 -2 0 -5q4 -6 10 -6zM172 84v0q-11 -10 -15 -8q-2 3 7 13v0q2 3 -1 6t-5 0q-9 -11 -9 -19 q0 -9 8 -9q9 0 20 11q3 3 0 6q-2 3 -5 0zM37 86q9 -6 17 -6q7 0 11 5q1 2 1 5q0 8 -12 17q-4 2 -6 -1q-2 -4 1 -6q11 -7 9 -11q-1 -1 -4 -1q-6 0 -13 5q-3 2 -5 -2q-2 -3 1 -5zM162 22q-5 1 -9 -4q-3 -4 -3 -10q-5 3 -12 -2v6q0 10 5 28q1 5 1 11q0 19 -13 32t-23 17 q-10 5 -27 4q-4 0 -7 -2.5t-3 -6.5t3 -7t7 -3h10l10 -2q7 -5 19 -17q-6 5 -20 7q-9 1 -16 1q-11 0 -19 -4q-17 -8 -21 -29q-2 -5 -1 -11q-4 7 -11 5q-11 -4 -13 -24v0q0 -4 3 -4q4 -1 4 3q2 16 8 18q1 0 2 -1q2 -2 2 -7q0 -7 -4 -18q-1 -3 2 -4q3 -2 4 1q5 12 5 21 q4 -10 13 -15q10 -6 21 -6q21 0 41 24q-2 -13 0 -23v-1q0 -2 2 -4v-1v-1q2 -3 4 -4l4 -2v0q2 -1 4 -1q5 -2 9 0h-1q3 1 9 6v-1q0 1 1 2q1 -4 3.5 -7t5.5 -1t1 5v0q-5 7 -5 15q0 5 1 8q2 2 3 2q6 -1 9 -21q1 -4 5 -3q3 0 2 4q-4 25 -15 27zM84 19q-3 -1 -6 -1q-8 0 -13 6 q-3 4 -3 10q0 12 11 18q6 3 13 3t22 -4q1 -1 5 -3q-9 -22 -29 -29z"/>
<glyph unicode="b" horiz-adv-x="217" glyph-name="b" d="M148 113q3 0 5.5 2.5t2.5 5.5q0 4 -2.5 6.5t-5.5 2.5q-4 0 -6.5 -2.5t-2.5 -6.5q0 -3 2.5 -5.5t6.5 -2.5zM61 115q4 0 7 3t3 6q0 4 -3 7t-7 3t-6.5 -3t-2.5 -7q0 -3 2.5 -6t6.5 -3zM208 32q0 25 -6 43q-4 13 -16 30q-14 22 -19 32q6 8 6 16q0 3 -1 6q-5 8 -15 8 q-14 0 -18 -15q-30 6 -53 6q-10 0 -16 -2q-8 13 -20 13q-6 0 -10 -4t-4 -11q0 -6 4 -12q-6 -10 -20 -32q-11 -19 -16 -31q-7 -18 -7 -39q0 -17 2 -25q11 -35 41 -48q17 -7 49 -9h1q0 -5 5 -8t11 -3q5 0 10 3q6 3 6 8q45 5 68 28q19 20 18 46zM107 -42q-8 -2 -10 2h16 q-1 -2 -6 -2zM96 -33q-2 0 -7 1q-29 1 -44 7q-26 12 -36 43q-2 11 -2 21q0 20 7 38q4 11 16 29q13 20 18 31q1 2 0 3q-4 6 -4 10q0 7 7 7q9 0 14 -11q1 -2 4 -2q10 3 32 1l5 -15l6 14q16 -2 27 -4q4 -1 4 3q2 11 10 12q3 1 6.5 -1t3.5 -6q0 -5 -6 -11q-2 -2 -1 -5 q3 -5 11 -18q14 -19 20 -33q10 -23 10 -49q0 -23 -16 -39q-26 -27 -85 -26zM93 101q4 0 10 5q4 -5 11 -5q8 0 12 6q2 3 -1 5t-5 -1v0q-2 -3 -6 -3q-2 0 -6 2q-2 3 -4 3q-3 0 -6 -2.5t-5 -2.5q-3 0 -6 2v0q-2 3 -5 0q-1 -1 -1 -2q0 -2 1 -3q5 -4 11 -4zM169 81q-9 -9 -13 -7 q-1 3 6 11q3 3 0 5t-5 0q-8 -9 -8 -16q0 -8 8 -8q7 0 17 10v0q3 2 0 5q-2 3 -5 0zM31 36q-10 -3 -12 -23q0 -4 3 -4q4 0 4 3q1 15 8 18q1 0 2 -1q2 -2 2 -7q0 -7 -4 -17q-2 -3 2 -5q3 -1 4 2q5 11 5 20q0 8 -4 12t-10 2zM159 20q-6 1 -10 -6q-2 -5 -2 -11q0 -10 6 -19 q2 -3 5 -1q3 3 1 6v0q-5 6 -5 14q0 5 2 8q1 2 2 1q6 -1 9 -20q1 -3 4 -3q4 1 3 4q-4 24 -15 27zM96 66q-7 -1 -13 -4v2q-1 2 -3 17q-1 10 -1 17q0 4 -3 7t-7 3t-6.5 -3t-2.5 -7v-7q-3 5 -10 10q-3 3 -5 0t1 -5q9 -7 7 -10q0 -1 -3 -1q-5 0 -12 4q-2 2 -4 -1t1 -5v0 q8 -5 15 -5t10 4v2q2 -13 4 -37q1 -7 3 -19q3 -15 4 -19v-13q1 -7 4 -11t8 -4q3 0 6 1q1 1 2 1q12 4 25 9q14 6 22 14q9 10 8 23q0 17 -11 27t-30 10h-9zM122 17q-10 -7 -31 -13q-1 2 -6 37l6 3h-0.5h-0.5q7 3 14 3q8 0 14 -3q9 -4 9 -15q0 -7 -5 -12z"/>
<glyph unicode="c" horiz-adv-x="219" glyph-name="c" d="M148 109q3 0 5.5 2t2.5 6q0 3 -2.5 5.5t-5.5 2.5q-4 0 -6.5 -2.5t-2.5 -5.5q0 -4 2.5 -6t6.5 -2zM62 113q4 0 6.5 3t2.5 7t-2.5 6.5t-6.5 2.5t-7 -2.5t-3 -6.5t3 -7t7 -3zM206 31q0 25 -6 43q-4 13 -15 30q-15 22 -20 32q7 8 7 15q0 4 -2 7q-4 8 -14 8q-14 0 -18 -15 q-30 5 -53 5q-10 0 -16 -1q-8 12 -19 12q-7 0 -11 -3.5t-4 -10.5q0 -6 4 -12q-5 -10 -19 -32q-12 -18 -16 -31q-7 -18 -7 -39q0 -16 2 -24q10 -31 34 -44q19 -11 55 -13q1 -4 7 -7q5 -2 11 -2q7 0 11 3t4 7q44 4 67 27q19 20 18 45zM113 -40q-2 -1 -7 -1q-4 0 -7 1v0 q7 0 14 1v-1zM96 -33q-2 1 -7 1q-28 1 -43 7q-26 12 -36 42q-2 11 -2 21q0 20 7 37q4 11 16 30q13 19 18 30q1 2 0 3q-4 6 -4 10q0 7 7 7q8 0 14 -11q1 -2 4 -2q9 3 31 1l5 -14l6 13q16 -2 27 -4q4 0 4 3q1 11 9 12q4 1 7.5 -1t3.5 -6q0 -5 -7 -11q-2 -2 0 -4q2 -6 11 -18 q13 -20 19 -33q10 -23 10 -49q0 -22 -16 -39q-26 -26 -84 -25zM93 101q4 -1 10 3q1 -2 5.5 -3.5t6.5 -1.5q7 0 10 4q3 3 0 5q-2 2 -5 0v0q-1 -2 -5 -2q-3 0 -6 3q-2 2 -4 2q-3 1 -6 -1t-6 -2t-5 2.5t-5 0.5q-2 -2 0 -5q4 -5 10 -5zM27 33q-10 -3 -12 -23q-1 -4 3 -4q3 0 4 3 v0q1 15 7 18q2 0 3 -1q1 -2 1 -7q0 -7 -4 -17q-1 -3 2 -4q4 -2 5 1v0q4 11 4 20q0 8 -3.5 12t-9.5 2zM164 36q-6 1 -9 -5q-3 -5 -3 -12q0 -9 6 -18q2 -3 5 -1t1 5q-5 7 -5 14q0 5 2 8q1 2 2 2q5 -1 9 -20q1 -4 4 -3q4 1 3 4q-4 24 -15 26zM134 21q-5 -2 -8 -4l-3 -3 q-12 -6 -25 -6q-19 0 -30 14q-5 8 -5 17q0 10 5.5 18t15.5 11q5 2 10 2q8 0 18 -3q2 -1 18 -7h3q8 0 10 7q1 -1 4 -1q7 0 17 9q2 3 0 5q-3 2 -5 0v0q-10 -9 -13 -7q-1 3 6 11q2 3 0 5q-3 2 -5 0v0q-6 -7 -8 -12q-1 1 -2 1q-29 12 -44 12q-16 0 -27 -9q0 8 -10 15q-4 2 -5 -1 q-3 -3 0 -5v0q10 -6 8 -10h-3q-5 0 -12 4v0q-3 1 -5 -2t2 -5v0q8 -5 16 -4q-13 -15 -13 -33q0 -25 17 -39q10 -8 23 -11q9 -1 17 -1q18 0 29 8v-1q3 1 4 3l1 1q1 0 3 2q3 1 4 1q6 3 6 9q0 4 -3 7t-7 3q-2 0 -4 -1z"/>
<glyph unicode="d" horiz-adv-x="218" glyph-name="d" d="M207 31q0 24 -7 42q-4 13 -15 30q-15 22 -20 32q7 8 7 15q0 4 -2 7q-4 8 -14 8q-14 0 -18 -15q-30 5 -53 5q-9 0 -16 -1q-8 12 -19 12q-7 1 -11 -3t-4 -11q0 -6 4 -12q-5 -10 -19 -32q-12 -18 -16 -30q-7 -19 -7 -39q0 -17 2 -25q12 -34 41 -47q17 -8 48 -9h2v-1 q1 -4 6 -7q4 -2 10 -2q7 0 11 3t4 7q44 4 67 27q20 20 19 46zM109 -41q-6 -2 -11 1q7 0 14 1q0 -1 -3 -2zM95 -33q-2 1 -7 1q-29 1 -44 7q-26 12 -35 42q-2 11 -2 22q0 20 6 37q5 11 17 29q12 20 18 31q0 2 -1 3q-3 6 -3 10q0 7 7 7q8 0 13 -11q2 -2 5 -2q9 3 31 1l5 -14 l6 13q16 -2 27 -4q4 0 4 3q2 11 9 12q4 1 7.5 -1t3.5 -6q0 -5 -7 -11q-1 -2 0 -4q2 -6 11 -18q13 -20 20 -34q10 -23 10 -49q0 -22 -17 -38q-26 -27 -84 -26zM147 112q3 0 5.5 2.5t2.5 5.5q0 4 -2.5 6.5t-5.5 2.5q-4 0 -6.5 -2.5t-2.5 -6.5q0 -3 2.5 -5.5t6.5 -2.5zM61 114 q4 0 6.5 3t2.5 7t-2.5 6.5t-6.5 2.5t-7 -2.5t-3 -6.5t3 -7t7 -3zM92 102q4 -1 10 3q2 -2 6 -3.5t7 -1.5q6 0 10 4q2 2 0 5q-3 2 -5.5 0t-4.5 -2q-4 0 -7 2q-2 3 -4 3q-3 1 -6 -1t-6 -2t-5 2.5t-5 0.5q-2 -2 0 -5q4 -5 10 -5zM154 52q4 1 3 4q0 4 -4 3q-13 -2 -15 1q1 3 11 6 q4 1 3 5q-1 3 -4 2v0q-7 -2 -11 -4q2 11 5 23q1 4 -1.5 7t-5.5 4q-5 1 -8 -1.5t-4 -6.5q-3 -13 -6 -28q-13 9 -29 9q-11 0 -21 -5q-1 7 -11 14q-3 2 -5 -1t1 -5q10 -6 8 -10h-3q-6 0 -12 4q-3 2 -5 -2q-2 -3 1 -4q7 -5 13 -5q-10 -12 -10 -30q0 -12 5 -22q20 -29 63 -34 q5 -1 9 4q6 2 7 7q0 14 2 41l4 26q4 -3 11 -3q4 0 9 1zM66 19q-3 6 -3 13q0 12 8 19q6 5 16 5q11 0 22 -7h-1q2 -3 5 -4q-1 -6 -2 -14q0 -11 -2 -35q-28 5 -43 23zM26 34q-11 -4 -13 -24v0q0 -3 3 -4q4 0 4 4v0q2 15 8 17q1 0 2 -1q2 -2 2 -7q0 -7 -4 -17v0q-2 -3 2 -4 q3 -2 4 2q5 11 5 20q0 7 -4 11.5t-9 2.5zM165 33q-6 1 -10 -5q-3 -5 -3 -12q0 -10 6 -18q3 -3 5 -1q3 2 1 5q-5 7 -5 14q0 5 2 8q1 2 2 2q6 -1 9 -20q1 -4 5 -3q3 0 3 4q-5 24 -15 26z"/>
<glyph unicode="e" horiz-adv-x="218" glyph-name="e" d="M210 34q0 24 -7 43q-4 13 -15 30q-15 23 -20 32q6 8 6 16q0 4 -1 7q-4 8 -15 8q-14 0 -18 -15q-30 5 -53 5q-10 0 -17 -1q-8 12 -19 12q-7 1 -11 -3.5t-4 -10.5t4 -12q-5 -11 -19 -33q-12 -18 -17 -31q-7 -18 -7 -40q0 -16 2 -24q12 -35 42 -49q17 -7 49 -9h4q1 -4 6 -7 q5 -2 10 -2q6 0 9.5 2.5t3.5 7.5q45 4 68 27q20 20 19 47zM102 -40q6 0 12 1l-1 -1q-1 -3 -4 -3q-1 0 -7 3zM96 -32h-6q-30 1 -45 8q-26 12 -36 42q-2 12 -2 22q0 20 7 37q4 12 16 30q13 20 18 31q1 2 0 3q-4 6 -4 10q0 7 7 7q9 0 14 -10q2 -3 4 -3q10 3 32 2l5 -25l7 23 q16 -1 27 -4q4 0 4 3q1 11 9 12q4 1 7.5 -1t3.5 -5q0 -6 -7 -12q-1 -2 0 -4q2 -6 11 -18q13 -20 19 -34q11 -24 11 -50q0 -22 -17 -39q-26 -27 -85 -25zM147 103q4 0 6.5 2.5t2.5 6.5q0 3 -2.5 5.5t-6.5 2.5q-3 0 -6 -2.5t-3 -5.5q0 -4 3 -6.5t6 -2.5zM60 105q4 0 7 3t3 7 t-3 6.5t-7 2.5t-7 -2.5t-3 -6.5t3 -7t7 -3zM92 92q4 0 10 4q2 -2 6 -4t7 -2q6 0 10 5q2 2 0 5q-3 2 -5 -0.5t-5 -2.5t-7 3q-2 2 -4 3q-3 0 -6 -2t-6 -2q-3 1 -5 3.5t-5 0.5t-1 -5q4 -5 11 -6zM163 59q3 1 3 5q-1 3 -5 2q-13 -2 -14 1q0 4 11 7q3 1 2 4t-4 3v0 q-14 -4 -16 -12q-16 18 -37 18q-19 0 -34 -14q-1 7 -10 13q-3 2 -6 -1q-1 -3 1 -5v0q10 -6 8 -10q0 -1 -3 -1q-5 0 -12 5q-3 1 -5 -2t1 -5q9 -5 17 -4q-9 -15 -9 -32q0 -16 8.5 -27.5t23.5 -15.5q12 -3 23 -3q29 0 44 20q2 3 2 6q0 4 -2.5 7t-6.5 3q-5 0 -9 -4 q-11 -13 -23 -13q-18 1 -23 3q-12 3 -15 13q-2 4 -2 8h14q7 0 21 -0.5t21 -0.5h13v0q5 0 8 5l2 5v-1q1 5 1 8q0 8 -4 15q6 -2 16 0zM74 48q4 8 12 13.5t16 5.5q10 0 18 -6t11 -15q-8 0 -23 1t-22 1h-12zM31 50q-11 -4 -12 -23q-1 -4 3 -4q3 0 4 3v0q1 15 8 17q1 1 2 0 q2 -2 2 -7q0 -8 -5 -18q-1 -3 2 -4q4 -1 5 2v0q5 11 5 20q0 8 -4 12t-10 2zM172 46q-6 1 -10 -5q-3 -6 -3 -12q0 -10 7 -19q2 -3 5 0q2 2 0 5q-5 6 -5 14q0 5 2 8q1 2 3 2q5 -1 9 -21q1 -3 4 -3q4 1 3 5q-5 24 -15 26z"/>
<glyph unicode="f" horiz-adv-x="219" glyph-name="f" d="M79 32q1 5 -2 10t-9 6v0v0v1q0 8 -5 13q-3 3 -8 4v0q-4 0 -4 -3q0 -4 3 -4v0q7 -1 7 -10v1q-1 -3 0.5 -5.5t4.5 -2.5q7 -2 6 -9v0q-1 -3 2 -4q4 -1 5 3v0zM82 2q4 3 2 10q-3 12 -14 14v0q-4 1 -5 -2q0 -3 3 -4v0q8 -2 10 -10q1 -3 0 -3v0q-3 -3 0 -5q2 -2 4 0v0zM44 59v4 q0 7 -4 12.5t-10 5.5v0q-3 0 -3 -3t3 -3v0q4 -1 6 -5.5t1 -8.5v0q0 -3 3 -4t4 2v0zM155 -5q-8 2 -12 5q-3 2 -3 3q0 3 8 3q4 0 9 -1v0q3 -1 4 2q1 4 -3 4v0q-5 1 -10 1q-13 0 -14 -7q-1 -5 3 -9q5 -5 16 -8v0q4 0 4 3q1 3 -2 4v0zM194 96q-9 7 -19 7q-11 0 -11 -8 q0 -9 18 -19q3 -1 4 2q2 2 -1 4q-15 8 -14 13l1 0.5t3 0.5q7 0 15 -6q2 -2 4 1t0 5zM190 131q-17 20 -35 28t-45 7v0q-31 -4 -53 -18q-31 -22 -47 -69q-13 -2 -13 -16q0 -8 5.5 -12.5t12.5 -2.5q4 -10 15 -27q10 -14 18 -23q-4 -5 -4 -12q0 -6 5 -11t12 -5q8 1 11 12 q6 3 25 4q6 0 18 -6t18 -7q4 -1 8 -1q27 0 46 30q5 -5 10 -3q7 1 7 9t-7 14q11 29 11 54q0 33 -18 55zM133 -17q-6 1 -18 7q-10 5 -18 5q-22 0 -28 -5q-1 -1 -1 -2q-2 -7 -6 -8q-5 0 -8 5q-1 2 -1 4q0 5 4 9q1 1 1 2t-1 2q-6 6 -16 21l6 11l-12 -2q-9 14 -11 21q0 2 -2 3h-3 q-5 -3 -8 0q-5 4 -3 10q2 5 9 5q2 0 3 3q14 43 43 64q19 13 47 17q25 0 41 -6.5t30 -24.5q16 -19 16 -48q0 -24 -10 -50q-18 -44 -47 -44q-3 0 -7 1zM193 9q0 -2 -1 -2t-5 4q2 3 3 6q4 -5 3 -8zM156 120q-5 12 -16 19.5t-24 6.5q-8 -1 -13 -7q-6 -7 -7 -19q-1 -8 -1 -15 q-4 3 -10 5v0q-3 0 -4 -3t3 -4t6.5 -3.5t2.5 -3.5q-2 -2 -12 1q-3 1 -4 -2q-1 -4 2 -5q10 -3 16 -1v-3h-19q-4 0 -6.5 -2.5t-2.5 -6.5t2.5 -6.5t6.5 -2.5q5 0 20 -1l3 -40q-5 0 -11 -3q-3 -2 -2 -5q2 -3 5 -2q6 4 10 4q3 0 3 -3q0 -5 -7 -8q-3 -2 -1 -5q1 -3 4 -1h1l1 -4 q2 -5 9 -5q3 0 6 2.5t3 6.5q0 2 -1 4q-2 25 -5 59h23q4 0 7 3t3 6q0 4 -3 7t-7 3q-15 -1 -24 -1q0 17 1 34q1 6 3 8q7 1 13 -3.5t9 -10.5q2 -6 8 -6q4 0 7 2.5t3 6.5q0 2 -1 4z"/>
<glyph unicode="g" horiz-adv-x="218" glyph-name="g" d="M72 40q2 -3 1 -6t3 -4q3 -1 4 2q2 12 -11 17v1q0 9 -5 13q-3 4 -8 4v0q-4 0 -4 -3q0 -4 4 -4q6 0 6 -9q-1 -3 1 -5q1 -3 5 -4q2 0 4 -2zM197 136q-19 20 -38 28.5t-46 7.5h-1q-32 -4 -55 -20q-32 -22 -49 -71q-14 -2 -14 -16q0 -9 6 -13.5t13 -2.5q4 -11 16 -28 q10 -15 19 -24q-5 -6 -5 -12q0 -7 5.5 -12.5t12.5 -4.5q9 1 12 12q7 4 25 4q8 0 19 -6q13 -7 19 -7q5 -1 9 -1q29 0 48 31q6 -5 11 -4q7 2 7 10q0 7 -8 15q12 30 12 56q0 34 -18 58zM135 -18q-5 1 -17 8q-11 5 -20 5q-21 0 -28 -5q-1 -1 -1 -2q-2 -8 -6 -8q-6 -1 -8 5 q-1 2 -1 4q0 5 4 9q1 1 1 2q0 2 -1 3q-6 6 -16 20l6 12l-12 -2q-10 14 -12 21q0 2 -1 3q-2 1 -4 0q-5 -3 -8 0q-5 4 -3 10t9 6q2 0 3 2q15 45 44 65q19 14 48 18q25 1 41.5 -6.5t31.5 -25.5q16 -19 16 -49q0 -24 -11 -51q-18 -44 -48 -44h-7zM197 9q0 -2 -1 -2t-5 4q1 3 3 6 q4 -5 3 -8zM71 27v0q-4 1 -4 -3q-1 -3 2 -4v0q8 -2 10 -9q1 -3 0 -4v0q-2 -2 0 -5q2 -2 5 0q4 3 2 10q-3 12 -15 15zM31 83q-4 0 -4 -4q0 -3 4 -3v0q3 0 5.5 -5t1.5 -8.5t2 -4.5q4 -1 5 3v0v4q0 6 -4.5 12t-9.5 6zM163 10q-6 1 -11 1q-13 0 -14 -8q-2 -4 3 -9t17 -8 q3 -1 4 3q1 3 -3 4q-7 2 -12 5q-3 2 -3 4q1 2 8 2q4 0 9 -1q4 -1 4 2q1 4 -2 5zM197 98q-9 7 -19 7q-11 0 -11 -8q0 -9 18 -19q3 -2 5 1t-2 5q-14 8 -14 13l1 0.5t3 0.5q8 0 15 -6q3 -2 5 1t-1 5zM175 122q0 4 -2.5 6.5t-6.5 2.5h-4l-12 -4q-10 8 -23 8q-17 0 -28 -12 q-13 -14 -12 -33q-6 4 -13 4q-4 1 -4 -3q0 -3 4 -4v0q4 0 8 -2q3 -1 3 -3q-1 -2 -13 -2q-3 0 -3 -3t3 -3v0q14 -1 18 4q5 -10 13.5 -16.5t18.5 -6.5q16 0 24 12q1 -14 -1 -25q-10 -18 -22 -18q-3 0 -6 1q-11 17 -12 27q-1 4 -3.5 6.5t-6.5 2.5t-6.5 -3t-2.5 -7q1 -13 7 -25 l-4 -2q-3 -1 -1 -4q1 -4 4 -2q6 3 10 3t4 -3q0 -4 -7 -8q-3 -2 -2 -5q2 -3 5 -1q4 2 6 5q7 -4 14 -4h7q25 6 33 31q4 11 4 24q0 15 -9 50q6 1 12 3t6 9zM131 79q-3 -5 -8 -5q-4 0 -8.5 3t-6.5 7.5t-2 9.5q0 7 5 13.5t13 8.5q6 1 13 -3v0q1 -22 -6 -34z"/>
<glyph unicode="h" horiz-adv-x="219" glyph-name="h" d="M68 31q-1 -3 3 -4q3 -1 4 3v0q2 12 -11 17v1q0 8 -5 13q-4 3 -9 4q-3 0 -3 -4q0 -3 3 -3v0q7 -1 7 -10q-1 -2 0 -4q2 -3 5 -4t5 -3.5t1 -5.5zM65 24q-3 1 -4 -2q0 -4 3 -5q8 -1 10 -9q1 -3 0 -4v0q-3 -2 0 -4q2 -3 5 -1q3 4 2 11q-3 12 -16 14zM26 80q-4 1 -4 -3 q0 -3 4 -3v0q3 0 5 -5.5t1.5 -8.5t2.5 -4t4 2q1 2 1 4q0 7 -4.5 12.5t-9.5 5.5zM69 57q9 2 12 15q1 3 -2 4q-4 1 -5 -2v0q-1 -5 -3 -8q-3 -2 -4 -2q-2 2 1 12q1 4 -2 5q-4 1 -5 -3q-2 -6 -2 -11t2.5 -8t7.5 -2zM163 9q-6 1 -11 1q-13 0 -15 -8q-1 -4 3 -9q6 -5 17 -8 q4 -1 5 3q0 3 -3 4q-8 2 -12 5q-4 2 -3 4q0 2 8 2q4 0 9 -1q4 -1 4 3q1 3 -2 4zM186 102q-9 8 -19 8q-11 0 -11 -9q-1 -9 18 -19q3 -1 5 2q1 3 -2 4v0q-15 9 -15 13l1.5 1t3.5 1q7 0 15 -6q3 -2 5 1q2 2 -1 4zM203 22q12 30 12 56q0 33 -19 56q-18 20 -37 28t-46 8 q-38 -3 -66 -28q-25 -24 -38 -62q-14 -2 -14 -16q0 -8 6 -13t13 -3q4 -10 16 -27q10 -15 18 -24q-5 -5 -5 -12t5.5 -12t12.5 -4q9 1 12 12q7 3 26 4q7 0 18 -6q13 -7 19 -7q4 -1 9 -1q28 0 47 31q6 -5 11 -4q7 1 7 10q0 7 -7 14zM135 -18q-6 0 -18 7q-11 5 -19 5 q-22 0 -28 -5l-2 -2q-2 -8 -6 -8q-5 -1 -8 5q-1 2 -1 4q0 5 5 8q1 2 1 3q0 2 -1 3q-6 6 -17 21l6 11l-12 -2q-9 15 -11 22l-2 2q-2 1 -3 0q-6 -3 -9 0q-5 4 -2 11q1 5 8 5q3 0 3 3q15 44 44 65q20 14 49 18q25 1 41.5 -6.5t31.5 -25.5q16 -20 16 -49q0 -24 -11 -52 q-18 -44 -48 -44q-3 0 -7 1zM197 8l-1 -1q-2 -1 -6 3l4 6q4 -4 3 -8zM146 98q-25 2 -22 2q-5 0 -9 -1l2 38q1 3 -2 6t-7 3q-4 1 -7 -2t-3 -6q-1 -20 -2 -39q-1 -22 -1 -38q0 -27 4 -48q0 -4 2.5 -7t6.5 -3t7 3t3 7q-5 26 -3 63q0 1 1 2q2 2 8 2h8q5 -1 8 -1q4 1 7 -4 q3 -8 3 -17q0 -7 -3 -19t-3 -15q0 -8 8 -9q4 -1 7 1t4 6q6 22 6 37q0 31 -23 39zM88 43v0q-12 2 -12 6q0 2 3.5 3.5t8.5 1.5q3 0 3 3q1 3 -3 4q-8 0 -13 -3t-5 -9q-1 -11 18 -13v0q3 0 4 3q0 4 -4 4z"/>
<glyph unicode="i" horiz-adv-x="219" glyph-name="i" d="M68 33q-1 -3 3 -4q3 -1 4 3q2 12 -11 17v1q0 8 -5 13q-4 3 -9 4q-3 0 -3 -4q0 -3 3 -3v0q7 -1 7 -10q-1 -2 0 -4q2 -3 5 -4t5 -3.5t1 -5.5zM193 135q-18 21 -36.5 29t-45.5 8h-1q-31 -5 -53 -20q-32 -22 -48 -70q-14 -2 -14 -16q0 -8 6 -13t13 -3q4 -10 15 -27 q10 -15 18 -24q-4 -5 -4 -12t5 -12t12 -4q9 1 12 12q6 3 25 4q7 0 19 -6q12 -7 18 -7q4 -1 8 -1q28 0 47 31q6 -5 11 -4q7 2 7 10t-7 15q11 29 11 54q0 33 -18 56zM135 -16q-6 0 -18 7q-11 5 -19 5q-22 0 -28 -5l-2 -2q-2 -8 -6 -8q-5 -1 -8 5q-1 2 -1 4q0 5 5 9q1 1 1 2 q0 2 -1 3q-6 6 -17 21l6 11l-12 -2q-9 15 -11 22l-2 2q-2 1 -3 0q-6 -3 -9 0q-5 4 -2 11q1 5 8 5q3 0 3 3q15 44 44 65q20 14 49 18q25 1 41.5 -6.5t31.5 -25.5q16 -20 16 -49q0 -24 -11 -52q-18 -44 -48 -44q-3 0 -7 1zM197 10q0 -1 -1 -1q-2 0 -6 3q2 3 4 7q4 -5 3 -9z M65 26q-3 1 -4 -2q0 -4 3 -4q8 -2 10 -10q1 -3 0 -4v0q-3 -2 0 -4q2 -3 5 -1q3 4 2 11q-3 12 -16 14zM26 82q-4 1 -4 -3q0 -3 4 -3v0q3 0 5 -5.5t1.5 -8.5t2.5 -4t4 2q1 2 1 4q0 7 -4.5 12.5t-9.5 5.5zM96 76q2 3 0 7q-4 8 -17 8q-3 0 -3 -3q0 -4 3 -4q5 0 9 -2q3 -2 3 -3 q-2 -2 -13 -2q-3 0 -4 -3q0 -4 4 -4q15 0 18 6zM170 60q-10 6 -17 6q-11 0 -11 -8q0 -9 16 -19q2 -1 4 2t-1 4q-6 4 -10 9q-2 3 -2 4q1 1 4 1q5 0 13 -5v0q3 -1 5 2q2 2 -1 4zM175 83q-11 -6 -17 -6h-1.5t-0.5 1q0 3 4 7t10 6q3 2 2 5t-5 2q-8 -3 -12.5 -8.5t-5.5 -10.5 q-1 -9 9 -9q8 0 20 7q3 2 2 5q-2 3 -5 1zM119 146q-7 -2 -7 -9q0 -3 0.5 -7t0.5 -7q0 -4 2.5 -6.5t6.5 -2.5t7 2.5t3 6.5q0 10 -2 16q-2 7 -9 7h-2zM130 94q0 4 -2.5 6.5t-6.5 2.5t-6.5 -2.5t-2.5 -6.5q0 -14 -2 -43q-2 4 -8 4q-7 0 -15 -6q-3 -2 0 -5q2 -3 5 -1q6 5 10 5 q3 0 3 -2q0 -5 -5 -10q-3 -2 -1 -4q2 -3 5 -1v0q4 3 6 7q-1 -11 -1 -22q0 -4 3 -6.5t7 -2.5t6.5 2.5t2.5 6.5q0 14 1.5 39.5t0.5 38.5z"/>
<glyph unicode="j" horiz-adv-x="219" glyph-name="j" d="M64 26q-3 0 -4 -3q0 -3 3 -4q8 -2 10 -9q1 -3 0 -4v0q-3 -2 0 -5q2 -2 4 0q4 3 3 10q-4 12 -16 15zM25 81q-3 0 -3 -3q0 -4 3 -4v0q3 0 5.5 -5t1.5 -8.5t2 -3.5q4 -1 5 2v4q0 7 -4 12.5t-10 5.5zM71 90v0v0v0zM179 55q-10 6 -17 6q-6 0 -8 -4q-2 16 -8 53q0 4 -2.5 7 t-6.5 3t-6.5 -3t-2.5 -7q0 -5 4 -30q3 -18 3 -29q0 -7 -1 -13q-2 -15 -9 -17q-4 -2 -9 -2q-12 0 -19 8.5t-7 18.5q0 13 9 23q2 2 2 6q0 3 -2.5 6t-6.5 3q-3 0 -5 -1q-5 6 -16 7q-3 0 -4 -4q0 -3 4 -3t7.5 -2t3.5 -3q-1 -2 -12 -2q-4 0 -4 -3q0 -4 3 -4h8q-7 -13 -6 -27 q-2 3 -8 6v1q0 8 -5 13q-4 3 -8 3q-4 1 -4 -3q0 -3 3 -4v0q7 0 7 -9q-1 -2 1 -5q1 -2 4 -3q8 -2 6 -8q-1 -4 3 -5q3 0 4 3q3 -10 10 -17q13 -14 33 -14t29 15q9 14 8 26v6q4 -6 13 -12q3 -2 5 1t-1 5v0q-7 4 -10 8q-3 3 -2 4t3 1q5 0 14 -5q3 -1 4 2q2 3 -1 4zM180 78 q-11 -6 -16 -6q-2 0 -2.5 0.5t-0.5 1.5q1 2 4 6q4 4 10 7q3 1 2 4t-4 2q-8 -3 -13 -8.5t-5 -10.5q-1 -9 9 -9q7 0 19 8q3 1 2 4q-2 3 -5 1zM197 23q12 30 12 56q0 32 -18 54q-18 21 -36 29t-45 7h-1q-31 -4 -53 -19q-31 -22 -47 -69q-14 -2 -14 -16q0 -8 5.5 -13t12.5 -3 q4 -10 16 -27q10 -14 18 -23q-5 -6 -5 -12q0 -7 5 -12t12 -4q9 1 12 12q7 3 25 3q7 1 18 -5q13 -7 19 -8h8q27 0 46 30q6 -5 11 -4q7 2 7 10q0 9 -8 14zM133 -17q-5 1 -18 7q-10 6 -19 6q-21 0 -27 -5l-2 -2q-2 -8 -6 -8q-5 -1 -8 5q-1 2 -1 4q0 4 5 8q1 1 1 3q0 1 -1 2 q-6 6 -16 21l6 11l-12 -2q-10 15 -12 22q0 1 -2 2q-1 1 -3 0q-5 -3 -8 0q-5 4 -3 10t9 6q2 0 3 2q15 44 43 65q20 14 48 17q25 1 41 -6t31 -25q16 -20 16 -49q0 -23 -11 -50q-18 -44 -47 -44h-7zM194 9q0 -1 -1 -1t-5 4q1 3 3 6q4 -5 3 -9zM128 126q4 0 7 2.5t3 6.5v3 q0 3 -3 6t-7 3q-3 0 -6 -3t-3 -6v-3q0 -4 3 -6.5t6 -2.5z"/>
<glyph unicode="k" horiz-adv-x="218" glyph-name="k" d="M208 33q0 32 -14 60q-14 25 -29 50q7 8 7 15q0 3 -1 7q-5 8 -15 8q-14 0 -17 -15q-30 5 -52 5q-10 0 -16 -1q-8 12 -20 12q-6 0 -10 -4t-4 -10t4 -12q-14 -25 -28 -51q-15 -28 -15 -57q0 -16 3 -24q7 -21 20 -33q-12 -8 -10 -16q2 -9 14 -9q13 0 20 11q14 -4 39 -4 q4 0 11 -1q30 0 54 6q4 -6 12 -8q7 -3 13 -2q9 1 10 7t-10 13q10 6 17 12q18 18 17 41zM25 -33q-4 1 -5 3q-1 4 8 10q6 -4 12 -7q-6 -7 -15 -6zM174 -30q-2 -2 -8 -1q-8 1 -12 5q5 1 10 4q9 -5 10 -8zM95 -27h-11q-28 1 -41 7q-24 10 -33 38q-2 10 -2 21q0 20 7 39 q5 12 16 32q14 22 19 32q0 2 -1 4q-4 5 -4 9q0 7 7 7q9 0 14 -10q1 -3 4 -2q10 3 31 1l5 -15l7 14q15 -2 26 -4q3 -1 4 3q1 10 9 12q4 0 7 -1.5t3 -5.5q0 -5 -6 -12q-2 -1 0 -4q4 -11 18 -33q12 -20 16 -32q7 -19 7 -41q0 -19 -15 -34q-26 -27 -87 -25zM148 135 q-4 0 -6.5 -2.5t-2.5 -5.5q0 -4 2.5 -6.5t6.5 -2.5q3 0 5.5 2.5t2.5 6.5q0 3 -2.5 5.5t-5.5 2.5zM72 132q0 4 -3 6.5t-7 2.5q-3 0 -6 -2.5t-3 -6.5t3 -6.5t6 -2.5q4 0 7 2.5t3 6.5zM94 119q4 0 10 3q2 -2 6 -3.5t6 -1.5q7 0 10 4v0q3 3 0 5q-2 2 -4.5 0t-4.5 -2q-4 0 -8 3 q-1 2 -3 2q-3 1 -6 -1t-5 -2q-4 0 -6 2.5t-4 0.5q-3 -2 -1 -5q4 -5 10 -5zM83 108q4 1 8 1q5 0 6 -2q0 -2 -7 -6q-4 -2 -2 -5t5 -1q7 3 10 8q2 -6 12 -12q3 -1 5 2t-2 4q-9 6 -9 9q3 2 14 -3q3 -1 4 2q2 3 -2 5q-8 4 -14 4t-8 -4q-2 6 -12 6q-5 0 -10 -2q-3 0 -3 -3 q1 -4 5 -3zM152 6q-9 10 -37 38q10 2 29 7q6 3 6 9q0 4 -3 7t-7 3q-2 0 -4 -1q-11 -3 -35 -9q-9 -3 -22 -11l-4 51q0 5 -2.5 7.5t-6.5 2.5t-7 -3t-3 -7q1 -8 4 -57q3 -35 7 -57h-1q0 -4 3 -6.5t7 -2.5t6.5 2.5t2.5 6.5q0 5 -1 7v0v-1q-1 15 -3 36q5 3 14 8q8 -9 22 -23 q19 -18 23 -22q3 -2 6 -2q4 0 7 2.5t3 6.5q0 5 -4 8z"/>
<glyph unicode="l" horiz-adv-x="218" glyph-name="l" d="M209 35q0 32 -13 59q-15 25 -29 51q7 8 7 15q0 3 -2 6q-4 8 -14 8q-14 0 -18 -15q-29 6 -52 6q-9 0 -16 -1q-7 12 -19 12q-6 0 -10 -4t-4 -10t4 -12q-14 -26 -28 -51q-15 -28 -15 -57q0 -16 3 -24q6 -20 20 -33q-12 -8 -10 -16q2 -9 14 -9q13 0 20 12q14 -5 39 -5 q4 0 11 -1q30 0 54 6q3 -5 11 -8q7 -3 14 -2q9 1 10 7t-10 13q9 6 16 13q18 18 17 40zM26 -31q-4 1 -5 3q0 4 9 10q5 -4 11 -6q-6 -8 -15 -7zM176 -28q-2 -2 -9 -1t-11 5l10 4q9 -5 10 -8zM97 -25h-11q-28 1 -42 7q-23 10 -33 39q-2 10 -2 21q0 20 7 38q5 13 16 32 q14 23 19 33q1 2 -1 4q-3 5 -3 9q0 7 7 7q8 0 14 -10q1 -3 4 -2q9 3 31 1l5 -15l6 14q16 -2 26 -4q4 -1 5 3q1 10 9 11q3 1 6.5 -0.5t3.5 -5.5q0 -5 -6 -12q-2 -2 -1 -4q5 -11 19 -33q11 -20 16 -32q7 -19 7 -41q0 -19 -15 -34q-27 -27 -87 -26zM149 138q-3 0 -5.5 -2.5 t-2.5 -6.5q0 -3 2.5 -5.5t5.5 -2.5q4 0 6.5 2.5t2.5 5.5q0 4 -2.5 6.5t-6.5 2.5zM73 135q0 4 -2.5 6.5t-6.5 2.5t-7 -2.5t-3 -6.5t3 -6.5t7 -2.5t6.5 2.5t2.5 6.5zM96 122q4 -1 10 3q1 -2 5 -3.5t7 -1.5q6 0 10 4v0q3 3 0 5t-5 0t-5 -2t-7 3q-1 2 -4 2q-3 1 -6 -1t-5 -2 q-3 0 -5 2.5t-5 0.5t0 -5q3 -5 10 -5zM130 95q-9 4 -15 4q-4 0 -7 -2q0 6 -1 10.5t-5 8t-9 3.5q-4 1 -7 -1t-4 -6t1.5 -7.5t5.5 -4.5v-2q-3 2 -10 2q-4 0 -9 -1v0q-4 0 -3 -4t4 -3q5 1 8 1q6 0 6 -1q1 -3 -7 -7q-3 -1 -1 -5q1 -3 4 -1q6 3 9 7v-48q-1 -34 -1 -47 q0 -4 2 -7.5t6 -3.5q4 -1 7.5 1t3.5 6q0 14 1 37q1 24 1 36q0 14 -1 25q4 -5 10 -8q3 -2 5 1t-1 5q-10 5 -10 8q3 3 14 -2q3 -2 4 1q2 4 -1 5zM90 100l-1 1v0zM88 103l1 -2zM90 100v-1v1v0z"/>
<glyph unicode="m" horiz-adv-x="218" glyph-name="m" d="M209 30q0 33 -14 60q-14 26 -29 52q7 7 7 15q0 4 -2 7q-4 8 -14 8q-14 0 -18 -15q-31 5 -53 5q-10 0 -16 -1q-8 12 -20 12q-6 0 -10 -4t-4 -10t3 -13q-14 -25 -28 -51q-15 -29 -15 -58q0 -17 2 -24q7 -21 21 -34q-12 -8 -10 -16q2 -9 14 -9q14 0 21 11q14 -4 39 -5h11 q31 -1 55 6q4 -6 12 -9q7 -2 14 -1q9 0 10 6q1 7 -10 14q10 6 17 13q18 18 17 41zM24 -35q-4 1 -4 3q-1 4 8 10q5 -4 11 -6q-6 -8 -15 -7zM175 -32q-2 -2 -8 -1q-8 1 -12 5l10 4q9 -5 10 -8zM95 -29h-11q-28 1 -42 7q-23 10 -33 39q-2 10 -2 21q0 20 8 39q4 13 16 32 q13 23 18 33q1 2 0 4q-4 5 -4 9q0 7 7 7q9 0 14 -10q1 -3 4 -2q10 2 31 1l5 -15l7 14q15 -2 26 -4q4 -1 5 3q1 10 9 11q3 1 6.5 -0.5t3.5 -5.5q0 -5 -6 -12q-2 -2 -1 -4q5 -11 19 -34q11 -19 16 -32q7 -19 7 -41q0 -19 -15 -34q-27 -27 -88 -26zM148 118q4 0 6.5 2.5 t2.5 5.5t-2.5 5.5t-6.5 2.5q-3 0 -6 -2.5t-3 -5.5t3 -5.5t6 -2.5zM62 122q4 0 7 3t3 7t-3 6.5t-7 2.5t-6.5 -2.5t-2.5 -6.5t2.5 -7t6.5 -3zM94 119q4 -1 10 3q2 -2 6 -4t7 -2q6 0 10 5v0q2 2 0 5q-3 2 -5 -0.5t-5 -2.5q-4 0 -7 3q-2 2 -4 3q-3 0 -6 -1.5t-5 -1.5 q-4 0 -6 2.5t-4 0.5q-3 -2 -1 -5q4 -5 10 -5zM86 106q4 1 8 1q5 0 6 -2t-7 -7q-3 -1 -2 -4q2 -4 5 -2q7 4 9 8q3 -6 13 -11q3 -2 5 1q1 3 -2 5q-9 5 -9 9q3 2 13 -3q3 -2 5 2q2 3 -2 4q-8 4 -14 4t-8 -3q-2 5 -12 5q-4 0 -10 -1v0q-3 0 -3 -4q1 -3 5 -2zM177 23q-2 1 -5 1 q-5 0 -8 -4q-1 0 -8 -8q-3 5 -1 14q6 23 6 35q0 24 -19 31l-6 2q-2 0 -4 -1l-5 -2q-12 -7 -18 -13q-7 10 -19 10q-13 0 -25 -9q-1 6 -4 11l-5 6q-3 1 -5 1h-2q-13 1 -21 -13q-1 -2 -1 -4q0 -4 2.5 -7t6.5 -3t6 2l4 4q1 -3 1 -10q1 -22 2 -67q1 -4 3.5 -7t6.5 -3t7 3t3 7 q-2 26 -2 55q3 1 5 4q11 11 17 11q2 0 3 -1q3 0 3 -5q3 -12 2 -29q0 -34 0 -30q0 -4 3 -7t7 -3t7 3t2 7q1 17 0 51q2 2 3 4q4 8 17 15q6 -2 5 -14q0 -6 -3 -19.5t-3 -20.5q0 -5 1 -9q2 -8 7.5 -13.5t12.5 -5.5q5 0 10 3q7 6 14 14q1 3 1 6q0 5 -4 8zM157 12l2 -2z"/>
<glyph unicode="n" horiz-adv-x="218" glyph-name="n" d="M211 34q0 33 -14 61q-15 26 -29 52q7 8 7 15q0 4 -2 7q-5 8 -15 8q-14 0 -18 -15q-31 5 -54 5q-9 0 -16 -1q-8 12 -19 12q-7 1 -11 -3t-4 -11q0 -6 4 -12q-15 -26 -29 -52q-15 -30 -15 -59q0 -17 2 -25q7 -21 21 -34q-12 -8 -10 -16q2 -9 14 -9q14 0 21 11q14 -4 40 -5 h11q31 -1 56 6q4 -6 12 -9q7 -2 14 -2q9 1 10 7q1 7 -10 14q9 6 17 13q18 18 17 42zM23 -33q-4 1 -4 3q-1 4 8 10l12 -6q-6 -8 -16 -7zM176 -30q-2 -2 -8 -1q-8 1 -12 5l10 4q9 -5 10 -8zM95 -27q-3 0 -11 1q-28 0 -42 6q-24 10 -34 40q-1 10 -1 21q0 21 7 40q4 13 16 32 q14 24 19 34q1 2 0 3q-4 6 -4 10q0 7 7 7q8 0 14 -11q1 -2 4 -2q10 3 32 1l5 -15l6 14q16 -1 27 -4q4 0 4 3q2 11 10 12q4 1 7 -1t3 -6q0 -5 -6 -11q-2 -2 -1 -4q5 -12 19 -35q12 -20 16 -32q8 -19 8 -42q0 -19 -15 -34q-27 -28 -90 -27zM149 139q-3 0 -6 -2.5t-3 -6.5 q0 -3 3 -5.5t6 -2.5q4 0 6.5 2.5t2.5 5.5q0 4 -2.5 6.5t-6.5 2.5zM62 127q4 0 7 2.5t3 6.5t-3 7t-7 3t-7 -3t-3 -7t3 -6.5t7 -2.5zM94 123q4 -1 11 3q1 -2 5 -3.5t7 -1.5q7 0 11 4v0q2 3 -1 5q-2 2 -4 0t-6 -2q-3 0 -7 3q-1 2 -4 2q-2 1 -5.5 -1t-5.5 -2q-3 0 -5.5 3t-4.5 0 q-3 -2 -1 -5q4 -5 10 -5zM86 111q5 1 8 1q6 0 6 -1q1 -3 -7 -7q-3 -2 -1 -5q1 -3 5 -1q6 3 8 7q4 -5 12 -10q3 -2 5 1t-1 5q-10 6 -10 9q3 2 14 -3q3 -1 5 2q1 3 -2 5q-9 4 -15 4q-5 0 -7 -3q-3 4 -12 4q-4 0 -9 -1v0q-4 0 -3 -4q1 -3 4 -3zM141 10q0 -1 1 -2q-5 5 -5 10 q0 6 1 16.5t1 15.5q0 20 -9 32q-5 8 -25 8q-16 0 -28 -7q-4 7 -13 8q-4 0 -7.5 -2t-4.5 -6q0 -4 2.5 -7.5t6.5 -3.5l-1 2q3 -3 4 -16q1 -10 1 -28t1 -27q1 -4 4.5 -6.5t7.5 -1.5t6 4.5t2 7.5q0 -1 -0.5 -2t-0.5 -2v30q0 18 -2 29q8 8 14 9h11q8 0 9 -3l-1 1q1 -3 2 -11v-39 q-1 -18 13 -26q3 -2 5 -2q4 0 7 3t3 7q0 6 -5 9z"/>
<glyph unicode="o" horiz-adv-x="217" glyph-name="o" d="M208 31q0 33 -14 60l-28 50q6 8 6 15q0 4 -1 7q-5 8 -15 8q-14 0 -17 -15q-30 5 -52 5q-10 0 -16 -1q-8 12 -19 12q-6 0 -10 -4t-4 -10t3 -12l-28 -50q-14 -29 -14 -58q0 -16 2 -23q7 -21 20 -33q-11 -8 -10 -16q2 -9 14 -9q13 0 20 11q14 -4 39 -5h11q30 -1 55 6 q3 -6 11 -9q7 -2 13 -1q9 0 10 6q2 7 -10 14q10 5 17 12q17 18 17 40zM26 -33q-4 1 -5 3q-1 4 8 10q5 -4 11 -7q-6 -7 -14 -6zM173 -30q-2 -2 -8 -1q-7 1 -11 5q5 1 9 4q9 -5 10 -8zM95 -27h-11q-27 1 -40 7q-24 9 -33 38q-2 10 -2 20q0 20 7 39q5 12 16 31q13 23 18 33 q1 1 0 3q-4 5 -4 9q0 7 7 7q8 0 14 -10q1 -3 4 -2q9 3 30 1l5 -15l6 14q16 -2 26 -4q4 -1 4 3q2 10 9 11q4 1 7.5 -1t3.5 -5q0 -5 -7 -12q-1 -1 0 -3q5 -12 18 -34q11 -19 16 -31q7 -19 7 -40q0 -19 -14 -34q-27 -26 -87 -25zM94 117q4 0 10 4q2 -3 5.5 -4.5t6.5 -1.5 q6 0 10 4v0q3 3 0 5q-3 3 -5 0.5t-5 -2.5t-7 3q-1 2 -3 3q-3 0 -6 -2t-5 -2q-4 0 -6 3t-4 1q-3 -3 -1 -5q4 -5 10 -6zM147 133q-4 0 -6 -2.5t-2 -5.5q0 -4 2 -6t6 -2t6.5 2t2.5 6q0 3 -2.5 5.5t-6.5 2.5zM63 121q4 0 6.5 3t2.5 6q0 4 -2.5 6.5t-6.5 2.5t-6.5 -2.5t-2.5 -6.5 q0 -3 2.5 -6t6.5 -3zM125 83q4 1 7 3t2 5q-2 3 -5 1q-9 -4 -12 -3q0 4 10 10q3 2 1 5t-5 1q-13 -8 -13 -16q0 -2 1 -3h-3q-8 1 -17 -1q1 1 1 3q0 7 -12 16q-2 2 -5 -1q-2 -2 1 -4q10 -9 9 -11q-1 -3 -10 1v0q-3 1 -4 -2t2 -4.5t7 -2.5q-13 -6 -20.5 -19t-6.5 -27 q1 -24 11 -35q15 -17 32 -16q26 1 38.5 13.5t14.5 24.5q1 10 1 19q0 22 -12 35q-5 5 -13 8zM123 12q-10 -10 -29 -10q-5 0 -11 4q-12 9 -12 26q0 11 6 21q9 14 27 14h4q3 0 5 1h1q17 -5 17 -31q0 -5 -0.5 -10.5t-7.5 -14.5z"/>
<glyph unicode="p" horiz-adv-x="219" glyph-name="p" d="M182 121q-10 15 -13 22q3 6 3 12q0 7 -5 11t-12 3q-11 -2 -16 -15q-10 2 -26 2q-25 0 -44 -3q-4 15 -18 15q-10 0 -15 -7q-1 -4 -1 -7q0 -8 7 -16q-14 -23 -28 -48t-14 -57q0 -26 19 -45q21 -22 62 -27q0 -5 5 -8.5t11 -3.5q14 0 14 10v0h1q2 0 7 1q80 4 90 57q2 13 2 24 q0 23 -9 45q-6 13 -20 35zM102 -39q-6 -3 -11 1l-2 2q7 -1 15 -1zM198 21q-10 -30 -34 -42q-17 -7 -53 -9h-10q10 9 14 67q-7 -1 -13 -1q1 -43 -2 -66q-50 2 -73 25q-16 17 -16 39q0 26 10 49q6 14 19 34q5 6 12 18q1 2 -1 4q-7 6 -7 11q0 4 3.5 6t7.5 1q8 -1 9 -12 q1 -3 4 -3q9 2 27 3q1 -6 1 -11q7 1 15 0q-1 6 -3 12q21 0 30 -3q4 -1 5 3q3 10 11 12q4 0 6 -2t2 -5q0 -4 -3 -9q-1 -1 0 -3q5 -11 18 -31q11 -18 16 -29q7 -17 7 -37q0 -11 -2 -21zM98 104l2 -37q9 -1 16 0q0 18 -1 35q-8 3 -17 2zM78 124q-2 -1 -4 -3q-7 -2 -6 -9 q1 -106 1 -123q0 -4 3 -6.5t7 -2.5t6.5 2.5t2.5 6.5v55q8 -3 18 -3q14 0 30 6q17 7 17 31q0 8 -2 20q-6 15 -20 23t-30 8q-13 0 -23 -5zM133 69q-8 -8 -23 -8q-18 0 -22 5l-1 41q7 3 15 3q10 0 18 -5q9 -4 12 -13q1 -3 1 -7v-8v-8z"/>
<glyph unicode="q" horiz-adv-x="219" glyph-name="q" d="M179 120q-10 15 -13 22q3 6 3 12q0 7 -5 11t-12 2q-11 -1 -16 -14q-10 2 -26 2q-24 0 -43 -3q-4 15 -18 15q-10 0 -14 -8q-2 -3 -2 -6q0 -8 7 -15l-28 -48q-13 -26 -14 -57q0 -26 19 -45q23 -23 67 -27q0 -5 3.5 -8t9.5 -3q4 0 8.5 3t5.5 7q84 5 94 58q3 12 3 23 q0 23 -10 44q-5 13 -19 35zM94 -39q-3 1 -3 2h11q-3 -3 -8 -2zM194 20q-10 -30 -34 -41q-17 -7 -52 -9h-10q4 4 8 20q-4 3 -7 6q0 -15 -2 -26q-49 2 -73 25q-16 16 -15 38q0 26 10 49q5 14 19 33q4 6 11 18q1 2 -1 4q-6 6 -6 12q0 3 3 5t7 1q8 -1 10 -11q0 -4 4 -3q8 1 26 2 q0 -6 1 -11q8 -1 15 -4q-1 9 -3 16q21 0 30 -3q3 0 4 3q3 11 12 12q3 0 5.5 -2t2.5 -5q0 -4 -4 -8q-1 -2 0 -4q5 -10 18 -30q11 -18 16 -29q7 -17 7 -37q0 -10 -2 -21zM98 100q-2 1 -3 1l1 -17q1 4 4 10v1.5t1 1.5q-2 1 -3 3zM155 39q-4 0 -7 -3t-2 -7q0 -19 -11 -23h-5 q-6 0 -10.5 4t-7.5 11q-2 7 -2 16q0 11 5 25q9 12 9 26v2q0 2 -1 3q4 2 6 6h6q1 -1 3 -1q4 0 6.5 3t2.5 7q0 7 -6 9t-25 1q-14 9 -30 9q-12 0 -21 -5q-20 -10 -20 -33q0 -13 7 -24q6 -11 18 -15q11 -4 21 -2q-1 -7 -1 -13q0 -30 23 -44q9 -5 18 -5q6 0 11 2q12 5 18 17 q5 11 5 24q0 4 -3 6.5t-7 3.5zM105 93v-1q-3 -6 -8 -21q-5 -4 -14 -4t-14 7t-5 15q0 4 1 8q3 7 14 10q4 1 7 1q8 0 15 -4q3 -5 9 -6q-4 -1 -5 -5z"/>
<glyph unicode="r" horiz-adv-x="218" glyph-name="r" d="M209 32q0 25 -7 43q-4 13 -15 29q-15 23 -20 32q7 8 7 15q0 4 -2 7q-4 8 -14 8q-14 0 -18 -15q-19 3 -42 3q-17 0 -26 -2q-5 13 -16 14q-7 1 -12 -3t-5 -11q0 -5 3 -11q-5 -10 -18 -31q-12 -19 -17 -31q-7 -18 -7 -39q0 -16 3 -24q11 -34 40 -47q17 -7 48 -9h3q1 -5 6 -7 q4 -2 10 -2t10 2.5t3 7.5q44 4 67 27q19 19 19 44zM111 -38q-5 -1 -10 1h12q0 -1 -7 -2zM107 -30q-2 14 -2 35q0 23 3 67h-1q-8 -1 -12 -8v0v-1q-1 -1 -3 -2q1 -33 5 -59.5t10 -31.5h-10h-7q-28 2 -43 8q-25 11 -35 41q-2 11 -2 21q0 19 7 36q4 11 16 29q12 20 17 30 q1 2 0 4q-3 4 -3 8q0 3 2 5t6 1q8 -1 11 -11q1 -3 4 -3q9 3 30 3q-5 -17 -7 -44q8 3 17 3q2 25 2 40q18 -1 27 -2q4 -1 4 3q1 10 9 11q4 1 7 -1t3 -6q0 -5 -6 -11q-2 -2 -1 -4q3 -5 11 -18q13 -19 19 -32q10 -23 10 -48q0 -22 -16 -38q-23 -24 -72 -25zM102 95q-8 -1 -16 -6 v16q0 4 -2.5 7t-6.5 3t-7 -3t-3 -7q1 -35 1 -104q0 -3 3 -6t7 -3t6.5 2.5t2.5 6.5q1 20 0 62q2 1 3 3q5 10 17 11q5 0 12.5 -3.5t8.5 -8.5q3 -4 8 -4q4 0 6.5 3t2.5 6q0 4 -2 7q-14 19 -35 19q-3 0 -6 -1z"/>
<glyph unicode="s" horiz-adv-x="217" glyph-name="s" d="M209 35q0 26 -7 44q-4 13 -15 30q-15 23 -21 33q7 8 7 15q0 4 -1 7q-5 8 -15 8q-14 0 -18 -15q-19 3 -44 3q-17 0 -26 -2q-5 13 -17 14q-7 1 -12 -3t-5 -11q0 -5 3 -11q-5 -11 -19 -33q-12 -18 -17 -31q-7 -18 -7 -40q0 -16 3 -24q11 -35 41 -49q17 -7 49 -9h4v-1 q0 -4 6 -7q4 -2 9 -2q7 0 11 3t3 7q46 5 69 28q20 20 19 46zM110 -37q-7 -2 -10 1q7 0 14 1q-1 -2 -4 -2zM107 -29q-1 12 -1 29q-5 1 -9 2q4 -25 10 -31h-10q-2 0 -7 1q-29 1 -44 8q-26 11 -35 41q-3 11 -3 22q0 19 7 36q5 12 17 30q12 20 17 30q1 2 0 4q-3 4 -3 8 q0 3 2.5 5t5.5 2q8 -1 11 -12q1 -3 5 -3q9 3 30 3q-3 -12 -5 -28q8 2 16 1q1 15 1 26q19 -1 27 -2q4 -1 5 2q1 11 9 12q4 1 7 -1t3 -6q0 -5 -6 -11q-2 -2 -1 -4q3 -6 11 -18q14 -20 19 -33q10 -23 11 -49q0 -22 -16 -39q-24 -23 -74 -25zM93 39q6 -6 13 -8q0 9 1 19 q-8 2 -15 5q1 -8 1 -16zM102 89q-1 -3 0.5 -5t6.5 -4v8q-4 1 -7 1zM139 102q-17 11 -34 11q-5 0 -10 -1q-13 -2 -17 -16q-1 -5 -1 -10q0 -10 6 -17q10 -13 37 -15q12 0 12 -18q0 -4 -1 -8v3q-6 -7 -16 -7q-6 0 -13 2q-11 4 -20 19q0 -1 1 -2v7q1 -1 1 -2q1 2 1 3q0 4 -3 6.5 t-7 2.5q-7 0 -10 -7q-1 -4 -1 -8q0 -11 10 -22q8 -9 20 -14q9 -4 20 -4q16 0 28 9q10 8 10 22q0 16 -11 29q-5 6 -14 8l-16 2q-10 1 -13 5q-2 3 -2 7q0 3 3 7h5q11 0 24 -7q3 -2 6 -2q4 0 6.5 3t2.5 7q0 5 -4 7v0z"/>
<glyph unicode="t" horiz-adv-x="217" glyph-name="t" d="M207 33q0 25 -6 43q-5 13 -16 30q-15 22 -20 32q7 8 7 15q0 4 -2 7q-4 8 -14 8q-14 0 -18 -15q-19 3 -43 3q-17 0 -26 -2q-5 13 -17 14q-7 1 -12 -3t-5 -11q0 -5 4 -11q-5 -10 -19 -32q-12 -19 -17 -31q-7 -18 -7 -39q0 -17 2 -24q12 -35 42 -48q16 -8 48 -9h2q1 -5 6 -8 q4 -2 10 -2q7 0 11 3t4 7q44 5 67 28q20 19 19 45zM112 -37q-2 -2 -6 -2t-7 1q0 1 -1 1q8 0 15 1q0 -1 -1 -1zM106 -30q-1 7 -1 15q-3 0 -6 1q4 -12 7 -16h-10q-2 0 -7 1q-29 1 -44 8q-26 11 -35 41q-2 11 -2 21q0 20 7 37q4 11 16 30q12 20 17 30q1 2 0 3q-3 5 -3 9 q0 3 2.5 5t5.5 2q8 -2 11 -12q1 -4 5 -3q9 3 30 3q-4 -15 -6 -37v-12h16l3 48q18 -1 26 -3q4 0 5 3q1 11 9 12q4 1 7 -1t3 -6q0 -5 -6 -11q-2 -2 -1 -4q3 -6 11 -18q14 -20 20 -33q10 -23 10 -49q0 -22 -16 -39q-24 -23 -74 -25zM94 66l1 -21q0 -10 1 -14q2 -9 6 -14 q1 -1 3 -2q0 20 2 51h-13zM146 72q4 0 7 3t3 7q-1 4 -4 6.5t-6 2.5h-58q-1 16 0 38q0 4 -3 6.5t-7 2.5t-7 -2.5t-3 -6.5v-39q-10 0 -24 -1q-4 0 -7 -3t-3 -7t3 -6.5t7 -2.5q15 1 25 1l1 -22q1 -22 8 -40q3 -9 12 -14t19 -5q16 0 27 12q10 12 10 29q0 9 -4 16q-3 7 -9 7 q-4 0 -6.5 -3t-2.5 -7v-4q3 -4 3 -9q0 -7 -5 -14q-4 -8 -14 -8q-6 0 -11 5q-4 6 -6 16q-1 5 -1 17q-1 11 -2 24q47 0 58 1z"/>
<glyph unicode="u" horiz-adv-x="219" glyph-name="u" d="M195 95v0q-8 11 -16 21q-9 13 -13 23q4 7 4 14q0 4 -2 8q-4 7 -13 7q-12 0 -17 -13q-10 3 -31 6q-21 2 -32 2q-1 6 -6 10.5t-12 4.5q-8 0 -13 -6q-4 -4 -4 -11q0 -6 3 -12l-6 -17q-3 -7 -9 -22l-2 -6q-3 -8 -9 -30q-19 -9 -19 -21q-1 -6 5 -9q5 -3 12 -1q-1 -30 11 -45 q6 -8 15 -15q-17 -6 -15 -13q1 -8 24 -8q16 0 31 3v1q19 -4 40 -4q13 0 20 1q17 3 31 14q9 -5 16 -5q10 0 9 8q0 6 -11 10q23 25 23 58q0 24 -14 47zM36 -26q4 3 15 7q8 -5 17 -8q-23 -2 -32 1zM187 -19q-4 -1 -11 3l2 2v0q7 -2 9 -5zM138 -27q-9 -1 -18 -1q-60 0 -86 32 q-10 11 -10 35q0 5 1 10q0 2 -2 3t-4 0q-5 -4 -9 -2q-2 1 -2 3q0 7 16 14q2 1 3 3q3 15 8 30l2 6l8 21l8 17q0 2 -1 3q-3 6 -3 11q0 9 9 9q2 0 4 -1q7 -3 7 -11q0 -4 4 -4q6 2 26 0l3 -10l9 8q22 -3 27 -5q2 -1 3.5 0t1.5 3q2 8 9 10q3 0 6 -2t3 -6t-4 -10q-1 -2 0 -4 q5 -13 17 -28q4 -5 13 -17q12 -20 12 -42q0 -16 -7 -31q-8 -18 -22.5 -29.5t-31.5 -14.5zM143 119q3 0 5.5 2.5t2.5 6.5q0 3 -2.5 5.5t-5.5 2.5q-4 0 -6.5 -2.5t-2.5 -5.5q0 -4 2.5 -6.5t6.5 -2.5zM65 126q4 0 6.5 3t2.5 7q0 3 -2.5 6t-6.5 3q-5 0 -7.5 -3t-2.5 -6 q0 -4 2.5 -7t7.5 -3zM91 117q4 0 11 3q1 -2 5 -4t7 -2q6 0 10 4q3 3 0 5q-2 3 -4.5 0.5t-5.5 -2.5t-7 3q-1 3 -4 3q-2 1 -5.5 -1t-5.5 -2q-3 1 -5 3.5t-5 0.5t-1 -5q4 -5 10 -6zM53 42q-8 -5 -14 -5q-5 0 -5 3q0 4 9 10v0q3 2 1 4q-2 4 -5 2q-12 -9 -12 -16q0 -10 12 -10 q8 0 18 6v0q3 2 1 5t-5 1zM156 82l-2 5q-3 7 -9 7q-4 0 -7 -3t-3 -7v-3q-1 -13 -2 -27q-2 -15 -8 -26q-3 -5 -8.5 -8.5t-11.5 -3.5q-5 0 -9 2q-17 12 -17 36q0 14 7 33v3q0 4 -2.5 7t-7.5 3q-6 0 -9 -7q-7 -18 -7 -38q0 -21 8 -35q9 -17 28 -22q4 -1 10 -1q10 0 19.5 5.5 t15.5 15t9 22.5q4 -9 7 -16v0q0 -4 3.5 -6.5t7.5 -1.5t6 4t2 7q-2 8 -11 27q-7 18 -9 28z"/>
<glyph unicode="v" horiz-adv-x="218" glyph-name="v" d="M199 99v0q-8 11 -16 21q-9 13 -13 23q4 7 4 14q0 4 -2 8q-4 7 -13 7q-13 0 -17 -13q-11 3 -32 6q-21 2 -32 2q-1 6 -6 10.5t-12 4.5q-8 0 -13 -6q-4 -4 -4 -11q0 -6 3 -12l-6 -17q-4 -7 -9 -22q0 -1 -3 -7q-2 -7 -8 -30q-20 -9 -20 -20q0 -7 6 -10q5 -3 11 -1 q-1 -30 11 -45q6 -8 17 -15q-19 -6 -17 -14q2 -7 24 -7q17 0 32 3v1q19 -4 41 -4q12 0 19 1q17 3 32 14q8 -6 16 -6q10 0 9 8q0 6 -11 10q23 26 23 59q0 25 -14 48zM39 -24q4 3 15 7q8 -4 17 -7q-23 -3 -32 0zM189 -16q-4 -1 -11 2l2 2v0q7 -2 9 -4zM140 -25q-8 -1 -18 -1 q-59 0 -86 32q-9 11 -9 35q0 5 1 10q0 2 -2 3t-4 0q-5 -4 -9 -2q-2 1 -2 3q0 7 16 14q2 1 3 2q3 16 8 30l2 6q0 1 8 21l8 18q0 1 -1 3q-3 5 -3 10q0 3 2 6q4 5 11 2q7 -2 7 -11q0 -4 3 -3q7 1 27 -1l7 -20l7 18q20 -2 24 -5q2 0 3.5 0.5t1.5 2.5q2 9 9 10q4 1 6.5 -1.5 t2.5 -5.5q0 -5 -4 -11q-1 -2 0 -3q5 -13 17 -28q4 -5 13 -18q12 -19 12 -41q0 -16 -7 -31q-8 -17 -22 -29t-32 -15zM146 114q4 0 6 2t2 6q0 3 -2 5.5t-6 2.5t-6.5 -2.5t-2.5 -5.5q0 -4 2.5 -6t6.5 -2zM68 120q4 0 7 3t3 7t-3 6.5t-7 2.5t-6.5 -2.5t-2.5 -6.5t2.5 -7t6.5 -3z M85 112q4 -5 10 -6q4 0 10 3q2 -2 6 -4t7 -2q6 0 10 4v0q2 3 0 5q-3 3 -5 0q-2 -2 -5 -2q-4 0 -7 3q-2 3 -4 3q-3 1 -6 -1t-5 -2q-4 1 -5.5 3.5t-4.5 0.5t-1 -5v0zM56 44q-8 -5 -14 -5q-5 0 -5 3q0 4 9 10v0q3 1 1 5q-2 2 -5 0q-12 -7 -12 -15q0 -10 12 -10q8 0 18 7 q3 1 1 4t-5 1zM167 95h-4q-6 0 -9 -6q-6 -13 -20 -33q-16 -24 -21 -32q-8 18 -28 55q-2 4 -6 14q-3 6 -9 6q-4 0 -7 -3t-3 -7q0 -2 1 -4q2 -6 8 -18q6 -10 17 -33t18 -34v0q3 -6 9 -6q5 0 8 4l2 4l26 40q15 23 23 40q1 2 1 4q0 6 -6 9z"/>
<glyph unicode="w" horiz-adv-x="218" glyph-name="w" d="M195 97v0q-8 11 -16 21q-10 13 -14 23q5 7 5 14q0 4 -3 8q-4 7 -13 7q-12 0 -16 -13q-11 3 -32 5q-21 3 -33 3q-1 6 -6 10.5t-11 4.5q-8 0 -14 -6q-3 -4 -3 -11q0 -6 3 -12l-6 -17q-4 -7 -10 -22l-2 -7t-8 -30q-19 -9 -20 -20q0 -6 6 -9q5 -3 11 -1q-1 -31 11 -46 q6 -7 16 -14q-18 -7 -16 -14q2 -8 24 -8q17 0 32 4v1q19 -5 40 -5q13 0 20 1q17 3 32 14q8 -5 15 -5q11 0 10 8q-1 6 -11 10q23 25 23 58q0 25 -14 48zM35 -25q3 4 15 7q8 -4 17 -7q-24 -3 -32 0zM185 -17q-4 -1 -11 2q1 1 2 3l1 -1q6 -2 8 -4zM136 -26h-18q-59 0 -86 31 q-9 11 -9 36v9q0 3 -2 4t-3 0q-6 -4 -10 -2q-1 1 -1 3q0 7 16 13q2 1 2 3q4 16 9 30l2 6q0 1 8 21l7 18q1 1 0 3q-3 5 -3 10q0 3 2 6q4 5 11 2q6 -2 6 -11q0 -4 4 -3q7 1 26 -1l8 -20l7 18q20 -2 24 -5q2 -1 3.5 0t1.5 3q2 8 9 10q4 1 6.5 -1.5t2.5 -5.5q0 -5 -4 -11 q-1 -2 0 -3q5 -13 17 -29q4 -4 13 -17q12 -20 12 -41q0 -17 -7 -32q-8 -17 -22 -28.5t-32 -15.5zM142 113q3 0 5.5 2.5t2.5 6.5q0 3 -2.5 5.5t-5.5 2.5q-4 0 -6.5 -2.5t-2.5 -5.5q0 -4 2.5 -6.5t6.5 -2.5zM64 120q4 0 7 3t3 7q0 3 -3 6t-7 3t-7 -3t-3 -6q0 -4 3 -7t7 -3z M81 112q3 -5 10 -6q4 0 10 3q1 -2 5.5 -4t7.5 -2q5 0 10 4v0q2 2 0 5q-3 2 -5 0t-5 -2q-4 0 -7 3q-2 3 -4 3q-3 1 -6 -1.5t-5 -1.5q-4 0 -6 3t-4 1q-3 -3 -1 -5v0zM49 49q-7 -5 -12 -5q-6 0 -6 3q0 5 7 9q3 2 1 4q-1 4 -4 2q-11 -6 -11 -15q0 -4 3.5 -7t8.5 -3q8 0 16 6 q3 2 1 4q-1 3 -4 2zM173 98q-4 0 -6.5 -3t-2.5 -7v1.5t1 1.5q-1 -2 -9 -28q-3 -10 -17 -36q-4 7 -8 19q-4 10 -7 20l-1 3q0 4 -3 6l-1 1v0q-3 2 -6 2q-5 0 -8 -3l-2 -3q-7 -13 -23 -40q-2 6 -10 31q-6 19 -11 30q-2 7 -9 7q-4 0 -7 -3t-3 -7q0 -1 1 -3q3 -9 10 -28l8 -26 q4 -15 10 -24h-1q3 -7 9 -7q2 0 3 1l5 3q9 12 25 40q9 -26 21 -41q2 -6 8 -6h3h1q3 1 5 3l2 3q17 33 25 53q0 3 2 10q2 5 5 14q1 4 1 6q0 4 -3 7t-7 3zM104 65v0v0v0zM120 62v0v1v-1z"/>
<glyph unicode="x" horiz-adv-x="219" glyph-name="x" d="M196 97v0q-8 10 -16 21q-9 13 -13 23q4 7 4 14q0 5 -2 8q-5 7 -14 7q-12 0 -16 -13q-11 3 -32 6q-21 2 -33 2q-1 7 -6 11t-12 4q-8 0 -13 -5q-3 -5 -3 -12q0 -6 3 -12l-7 -17q-3 -7 -9 -22q0 -1 -2 -7q-3 -7 -9 -30q-19 -9 -19 -20q-1 -7 5 -10q5 -3 12 -1q-1 -30 11 -46 q6 -7 16 -14q-18 -7 -16 -14t24 -7q16 0 32 3v1q19 -5 40 -5q13 0 20 1q17 4 32 14q8 -5 16 -5q10 0 9 8q0 6 -11 10q23 26 23 59q0 24 -14 48zM37 -23q4 3 15 7q8 -4 17 -7q-23 -3 -32 0zM186 -16q-5 -1 -11 3q0 1 2 2v0q6 -2 9 -5zM137 -24q-8 -1 -18 -1q-58 0 -84 32 q-9 10 -9 34v10q0 2 -2 3t-3 0q-6 -4 -10 -2q-2 1 -1 3q0 7 16 14q1 0 2 2q3 16 8 30l2 6l8 20l7 17q1 2 0 4q-3 5 -3 10q0 3 2 5q4 5 11 3q6 -3 6 -11q0 -4 4 -3q6 1 24 -1l7 -20l8 18q21 -3 25 -5q2 -1 3.5 0t1.5 3q2 8 8 9q4 2 7 -0.5t3 -6.5t-4 -10q-1 -1 0 -3 q4 -13 16 -28q4 -5 13 -17q12 -20 12 -41q0 -16 -7 -31q-8 -17 -22 -28.5t-31 -14.5zM139 116q4 0 6.5 2t2.5 6q0 3 -2.5 5.5t-6.5 2.5t-6.5 -2.5t-2.5 -5.5q0 -4 2.5 -6t6.5 -2zM66 124q4 0 6.5 3t2.5 6q0 4 -2.5 7t-6.5 3t-7 -3t-3 -7q0 -3 3 -6t7 -3zM80 114q4 -5 10 -6 q4 -1 10 3q2 -3 6 -4.5t7 -1.5q5 0 10 4q2 2 -1 5q-2 2 -5 0v0q-1 -2 -4 -2q-4 0 -7 3q-2 2 -4 3q-2 0 -5.5 -2t-5.5 -1q-3 0 -5 3t-5 1q-3 -3 -1 -5v0zM64 43q-1 3 -4 1q-7 -4 -12 -4t-5 4t6 8q4 1 2 4t-5 2q-10 -6 -10 -15q0 -5 3.5 -7.5t8.5 -2.5q7 0 15 5q3 3 1 5z M118 50q11 14 15 19q9 10 18 17q4 2 4 8q0 3 -3 6t-7 3q-2 0 -5 -2q-15 -10 -36 -38q-16 15 -33 30q-2 2 -6 2t-7 -2.5t-3 -6.5q0 -5 4 -8q15 -13 34 -30q-8 -10 -16 -19q-9 -11 -15 -19q-1 -3 -1 -5q0 -4 2.5 -7t6.5 -3q5 0 9 5q5 8 13 18q8 8 15 17q16 -15 38 -37 q2 -2 6 -2t7 2.5t3 6.5t-3 7q-24 24 -40 38z"/>
<glyph unicode="y" horiz-adv-x="219" glyph-name="y" d="M196 96v0q-8 11 -16 21q-9 13 -13 23q4 8 4 14q0 5 -2 8q-5 7 -14 7q-12 0 -16 -13q-11 3 -32 6q-21 2 -32 2q-1 7 -6 11t-12 4q-8 0 -13 -5q-4 -5 -4 -12q0 -6 3 -12l-7 -17q-3 -7 -9 -22l-2 -7t-8 -30q-20 -9 -20 -20q0 -6 6 -9q5 -3 11 -1q-1 -31 11 -46q6 -7 16 -14 q-18 -7 -16 -14q2 -8 24 -8q17 0 32 3v2q19 -5 41 -5q12 0 19 1q17 4 32 14q8 -5 15 -5q11 0 10 8q-1 6 -11 10q23 25 23 58q0 25 -14 48zM37 -26q3 3 14 7q8 -4 17 -7q-23 -3 -31 0zM185 -18q-4 -2 -11 2l2 2v0q7 -2 9 -4zM137 -27q-9 -1 -18 -1q-59 0 -85 32q-9 11 -9 34 q0 5 1 10q0 2 -2 3t-4 0q-5 -4 -9 -2q-2 1 -2 3q0 7 16 14q2 1 2 2q4 16 9 30l2 6q0 1 8 20l7 18v3q-3 5 -3 10q0 3 1 6q4 4 11 2t7 -11q0 -4 4 -3q6 1 24 -1l7 -20l7 18q21 -2 26 -5q1 0 3 0.5t2 2.5q1 8 8 10q4 1 6.5 -1.5t2.5 -6.5t-3 -10q-1 -1 -1 -3q5 -13 16 -28 q5 -5 13 -17q12 -19 12 -41q0 -16 -6 -31q-8 -16 -22 -27.5t-31 -15.5zM138 113q4 0 6.5 2.5t2.5 5.5t-2.5 5.5t-6.5 2.5q-3 0 -5.5 -2.5t-2.5 -5.5t2.5 -5.5t5.5 -2.5zM74 131q0 3 -2.5 6t-6.5 3t-6.5 -3t-2.5 -6q0 -4 2.5 -6.5t6.5 -2.5t6.5 2.5t2.5 6.5zM80 111 q3 -5 10 -6q4 0 10 3q1 -2 5 -4t7 -2q6 0 10 4q2 3 0 5q-3 2 -5 0v0q-2 -2 -5 -2t-7 3q-1 2 -3 3q-3 1 -6 -1t-6 -2t-5 3t-5 1q-2 -3 0 -5v0zM59 42q-6 -5 -12 -5q-5 0 -5 4t7 8q3 1 1 4q-1 4 -4 2q-11 -6 -11 -14q0 -5 3.5 -7.5t8.5 -2.5q8 0 16 5q3 2 1 5t-5 1zM154 90 q0 3 -2.5 6t-6.5 3t-7 -3t-3 -6v-3q0 -7 -5 -15q-4 -7 -9 -13q-7 -3 -14 -3q-8 0 -14 4q-3 6 -3 17q1 8 1 17q-1 4 -3.5 6.5t-6.5 2.5t-7 -2.5t-3 -6.5v-9v-10q0 -22 11 -31q11 -8 25 -8q17 0 30 13q-1 -13 -4.5 -24t-11.5 -18q-9 -8 -19 -8q-4 0 -8 1q-7 2 -7 11q0 6 4 11 q1 2 1 4q0 4 -2.5 7t-6.5 3q-6 0 -9 -5q-5 -8 -5 -19q0 -9 3 -17q8 -15 28 -15q5 0 11 1q15 4 26 15q10 11 14 26q5 17 5 39q0 12 -1 25z"/>
<glyph unicode="z" horiz-adv-x="221" glyph-name="z" d="M209 34q0 24 -7 42q-4 13 -15 30q-14 22 -20 32q7 8 7 16q0 3 -1 6q-5 8 -15 8q-14 0 -18 -15q-30 6 -53 6q-9 0 -16 -2q-7 13 -19 13q-6 0 -10.5 -4t-4.5 -11q0 -5 4 -12q-5 -10 -18 -32q-12 -18 -17 -30q-7 -18 -7 -40q0 -16 2 -24q11 -33 37 -45q18 -9 58 -12v-1 q0 -9 13 -9q6 0 10 3t4 8q44 4 67 27q20 20 19 46zM113 -37q-4 -3 -10 0q-1 0 -1 1h12zM97 -29h-7q-28 2 -43 8q-26 12 -35 42q-3 11 -3 21q0 20 7 37q5 11 16 29q13 20 18 30q1 2 0 4q-4 5 -4 9q0 7 7 7q8 0 14 -10q1 -3 4 -2q9 3 31 1l5 -15l6 14q16 -2 27 -4q3 -1 4 3 q1 10 9 11q4 1 7 -1t3 -5q0 -6 -6 -12q-2 -2 -1 -4q3 -5 11 -18q14 -19 19 -33q10 -23 11 -48q0 -23 -16 -39q-26 -26 -84 -25zM63 117q4 0 7 2.5t3 6.5t-3 6.5t-7 2.5t-6.5 -2.5t-2.5 -6.5t2.5 -6.5t6.5 -2.5zM94 104q4 0 10 4q2 -3 5.5 -4.5t6.5 -1.5q6 0 11 5v0q2 2 -1 4 q-2 3 -4.5 0.5t-4.5 -2.5q-4 0 -7 3q-2 2 -4 3q-3 0 -6 -2t-5 -2q-4 0 -6 3t-5 1q-2 -2 0 -5q4 -5 10 -6zM159 20q-6 1 -10 -6q-3 3 -7 3h-57q11 10 29 25q21 18 29 25l2 3q2 2 2 5q8 0 18 10q2 2 0 4q-2 3 -5 0v0q-9 -9 -13 -7q-1 3 6 12q2 2 0 5q-3 2 -5 -1v0 q-6 -7 -7 -13q-2 1 -3 1h-3q-15 0 -49 2q-7 0 -21 1q1 1 1 4q0 7 -11 14q-2 2 -5 0q-2 -3 1 -5q10 -7 8 -10q-1 -1 -4 -1q-5 0 -11 4q-3 2 -5 -1t1 -5q7 -4 13 -5q-1 -2 -1 -5q0 -7 7 -9q7 -1 17 -2h8q10 -1 28 -2q-15 -12 -45 -40q-2 -2 -7 -5t-7 -5v0q-1 0 -2 -1 q1 8 -3 12.5t-10 2.5q-10 -4 -12 -23q-1 -4 3 -4q4 -1 4 3v0q1 15 7 17q2 1 3 0q1 -2 1 -7q0 -7 -4 -17v0q-1 -3 2 -5q3 -1 4.5 2t2.5 6q3 -4 7 -4h3h83q2 0 5 1q1 -7 6 -14v0q2 -2 5 0t1 5q-5 6 -5 14q0 5 1 7q2 2 3 2q6 -1 9 -20q1 -3 4 -3q4 1 3 4q-4 24 -15 26zM130 122 q3 -7 11 -8q9 0 14 8q2 3 -1 5t-5 -1q-3 -5 -7 -5q-3 0 -6 4q-2 3 -5 2t-1 -5v0z"/>
<glyph unicode="{" horiz-adv-x="225" glyph-name="braceleft" d="M-1 66q0 -34 23 -60q-10 -4 -11 -10q-1 -9 10 -9q7 0 16 6q15 -11 32 -15q7 -1 20 -1q22 0 42 5v-1q15 -3 32 -3q23 0 24 7q2 8 -16 14q11 8 16 15q13 16 12 47q6 -2 12 1t5 10q0 12 -20 21q-6 23 -9 31q-2 6 -2 7q-6 15 -9 22l-7 18q4 7 4 13t-4 11q-5 6 -14 6 q-7 0 -12 -4.5t-6 -11.5q-11 1 -33 -2t-32 -5q-5 12 -17 12q-10 0 -14 -6q-2 -4 -2 -9q0 -7 4 -14q-4 -11 -13 -24q-9 -11 -17 -22v0q-14 -24 -14 -49zM145 -14q10 4 18 8q12 -4 16 -7q-9 -3 -34 -1zM28 0v0q2 -1 2 -2q-7 -4 -11 -3q2 3 9 5zM41.5 9q-14.5 11 -21.5 28 q-7 14 -7 30q0 21 12 40q9 12 13 17q11 14 16 27q1 1 0 3q-4 6 -4 10t3 6t6 1q7 -1 9 -9q0 -2 1.5 -3t3.5 0q4 2 24 5l7 -18l7 19q19 2 26 1q4 0 4 4q0 8 6 10q7 3 11 -2q2 -2 2 -6t-3 -10q-1 -1 0 -3l7 -17q8 -19 8 -20l2 -6q5 -13 9 -28q0 -2 2 -3q16 -7 16 -13 q0 -2 -2 -3q-4 -2 -9 2q-2 1 -4 0t-2 -3q1 -5 1 -10q0 -23 -9 -34q-27 -30 -85 -30q-10 0 -18 1q-17 3 -31.5 14zM71.5 137.5q2.5 2.5 2.5 6.5t-2.5 6.5t-6.5 2.5t-6.5 -2.5t-2.5 -6.5t2.5 -6.5t6.5 -2.5t6.5 2.5zM155 145q3 3 3 7q0 5 -3 7.5t-7 2.5t-7 -2.5t-3 -7.5 q0 -4 3 -7t7 -3t7 3zM134 133q3 5 -1 8q-4 4 -6.5 -0.5t-6.5 -5.5q-3 0 -7 3t-7 2q-3 0 -5 -4q-5 -5 -9 -5t-6 3q-3 4 -7 0q-3 -4 0 -9v0q6 -7 13 -7q4 0 9 3t7 7q8 -5 13 -5q8 2 13 10v0zM131 68q-3 -4 1 -7q14 -8 25 -8q17 0 17 13q0 11 -16 22q-5 3 -7 -1q-3 -4 1 -7v0 q12 -8 12 -14q0 -3 -6 -3q-9 0 -20 7q-4 2 -7 -2z"/>
<glyph unicode="|" horiz-adv-x="53" glyph-name="bar" d="M41 184v-153q-1 -11 -14 -12q-14 1 -14 12v153q0 12 14 13q13 -1 14 -13z"/>
<glyph unicode="}" horiz-adv-x="222" glyph-name="braceright" d="M206 113v0l-16 22q-10 13 -14 23q5 7 5 14q0 4 -3 8q-4 7 -13 7q-12 0 -17 -13q-10 3 -31 5q-22 3 -33 3q-1 6 -6 10.5t-12 4.5q-8 0 -13 -6q-4 -4 -4 -11q0 -6 3 -12l-7 -17q-3 -7 -9 -23l-2 -6q-2 -8 -9 -30q-19 -10 -19 -21q-1 -6 5 -9q5 -3 12 -1q-1 -31 11 -46 q6 -8 16 -15q-18 -7 -16 -14t24 -7q17 0 32 3v1q19 -4 41 -4q13 0 19 1q18 3 33 14q8 -6 15 -6q11 0 10 8q-1 6 -11 10q23 26 23 59q0 25 -14 48zM42 -12q4 3 16 7q8 -4 18 -8q-24 -2 -34 1zM200 -4q-4 -1 -11 3q1 0 2 2v-1q7 -2 9 -4zM147 -5h-17q-58 0 -84 30q-9 10 -9 33 v9q0 2 -2 3t-3 0q-6 -4 -9 -2q-2 1 -2 3q0 6 16 13l2 2q3 15 8 28l2 6q0 1 8 20l7 17q1 1 0 2q-3 6 -3 10q0 3 2 5q4 5 11 3q6 -3 6 -10q0 -4 4 -4q6 1 25 -1l7 -19l7 18q20 -3 24 -5q2 0 3.5 0.5t1.5 2.5q2 8 8 9q4 1 7 -1t3 -6t-4 -10q-1 -1 -1 -3q5 -12 17 -26 q3 -5 12 -17q12 -18 12 -39q0 -15 -7 -29q-7 -16 -21 -27.5t-31 -14.5zM155 133q4 0 6.5 2.5t2.5 6.5q0 3 -2.5 5.5t-6.5 2.5t-6.5 -2.5t-2.5 -5.5q0 -4 2.5 -6.5t6.5 -2.5zM73 140q4 0 7 3t3 7t-3 6.5t-7 2.5t-7 -2.5t-3 -6.5t3 -7t7 -3zM87 131q5 -8 12 -10q6 0 13 5 q2 -4 7 -7t9 -3q7 0 13 7v0q3 4 0 8q-4 4 -7 0q-2 -3 -6 -3t-9 5q-1 4 -5 5q-3 1 -7 -2.5t-6 -2.5q-4 1 -7 5t-6 1q-4 -4 -1 -8v0zM83 69q-11 -7 -19 -7q-7 0 -7 3q0 6 12 14v0q4 3 1 7q-2 4 -6 1q-17 -11 -17 -22q0 -13 17 -13q11 0 24 9q4 2 2 6q-3 5 -7 2z"/>
<glyph unicode="~" horiz-adv-x="260" glyph-name="asciitilde" d="M161 91h2l4 -4v-2q-3 -25 -28 -55q-18 -15 -32 -18q-25 -33 -63 -33h-4q-15 0 -15 11q0 5 29 8l34 15v1q-29 16 -29 45v1q0 24 27 24q28 0 31 -36v-12q29 20 38 51zM77 59q0 -21 23 -29l2 16v3q-3 18 -16 18q-9 0 -9 -8zM176 176q18 22 30.5 26.5t21.5 0.5q7 -5 10 -16 t-2 -21q-3 -8 -11.5 -19t-19.5 -20q-11 -8 -21.5 -13t-15.5 -3q-7 0 -14.5 5.5t-15.5 13.5q-6 9 -12.5 19.5t-10.5 19.5q-8 18 -1.5 31.5t18.5 17.5q11 3 24.5 -7t19.5 -35z"/>
<glyph unicode="" horiz-adv-x="242" glyph-name="currency" d="M90 52l-14 -13q-4 -3 -6 -3q-7 0 -8 4q-4 2 -3 8q-1 2 3 5l13 14q-10 10 -10 31q0 23 10 32l-13 14q-4 2 -3 5q-1 5 3 8q1 3 8 4q2 0 6 -3l14 -12q13 9 32 10q18 -1 32 -10l14 12q3 3 6 3q6 -1 8 -4q3 -3 3 -8q0 -3 -3 -5l-13 -14q9 -9 10 -32q-1 -21 -10 -31l13 -14 q3 -3 3 -5q0 -6 -3 -8q-2 -4 -8 -4q-3 0 -6 3l-14 13q-11 -11 -32 -11q-22 0 -32 11zM122 130q-28 -3 -30 -32q2 -29 30 -31q27 2 30 31q-3 29 -30 32z"/>
<glyph unicode="" horiz-adv-x="242" glyph-name="section" d="M120 185q54 -4 57 -34q-2 -15 -15 -16q-7 0 -16 9q-12 11 -21 11q-16 -1 -17 -16q0 -9 20 -17q11 -4 18 -7q37 -14 37 -39q1 -26 -24 -41q10 -13 10 -23q-3 -38 -49 -42q-50 5 -56 35q1 14 18 15q5 0 13 -7q11 -12 22 -12q14 1 16 13q0 8 -28 19l-8 4q-37 12 -36 41 q-1 23 20 40q-12 12 -11 24q2 39 50 43zM107 67l29 -12q11 5 11 17q-1 10 -17 17l-25 10q-11 -8 -10 -17q0 -11 12 -15z"/>
<glyph unicode="" horiz-adv-x="247" glyph-name="dieresis" d="M132 175q1 14 17 16q15 -2 17 -16q-2 -15 -17 -17q-16 1 -17 17zM81 175q1 14 17 16q15 -2 16 -16q-1 -16 -16 -17q-15 2 -17 17z"/>
<glyph unicode="" horiz-adv-x="248" glyph-name="degree" d="M28 148q2 -17 19 -19q17 1 19 19q-2 17 -19 19q-18 -2 -19 -19zM10 148q3 33 37 37q33 -4 37 -37q-4 -34 -37 -37q-34 3 -37 37z"/>
<glyph unicode="" horiz-adv-x="242" glyph-name="plusminus" d="M108 104v15q1 13 13 14q12 -1 14 -14v-15h33q14 -1 14 -13q0 -15 -14 -15h-33v-14q-2 -14 -14 -14t-13 14v14h-34q-14 0 -14 15q0 12 14 13h34zM74 41h94q14 -1 14 -14q0 -14 -14 -14h-94q-14 0 -14 14q0 13 14 14z"/>
<glyph unicode="" horiz-adv-x="251" glyph-name="periodcentered" d="M126 114q19 -2 21 -22q-2 -20 -21 -21q-21 1 -22 21q1 20 22 22z"/>
<glyph unicode="" horiz-adv-x="244" glyph-name="multiply" d="M93 118l29 -28l29 28q4 4 9 4q6 -1 10 -4q4 -4 4 -10q0 -4 -4 -8l-29 -29l29 -29q4 -5 4 -9q0 -6 -4 -10q-5 -4 -11 -4q-5 0 -8 4l-29 29l-29 -29q-3 -4 -8 -4q-7 0 -10 4q-5 4 -5 10q0 4 5 9l28 29l-28 29q-5 4 -5 8q0 6 5 10q3 3 9 4q5 0 9 -4z"/>
<glyph unicode="" horiz-adv-x="243" glyph-name="agrave" d="M117 195l27 -10l2 -1q5 -4 6 -9q-2 -17 -13 -17h-4q-2 0 -5 2l-25 10q-10 2 -10 14q2 12 13 14q4 0 9 -3zM181 122v-81q1 -21 -16 -21q-14 0 -17 12q-12 -13 -31 -13q-52 3 -55 62q4 59 55 64q21 -1 31 -15q2 12 17 14q17 0 16 -22zM95 81q2 -32 26 -33q24 2 27 33 q-3 32 -27 33q-24 -1 -26 -33z"/>
<glyph unicode="" horiz-adv-x="243" glyph-name="aacute" d="M103 185l27 10q5 3 9 3q10 -2 13 -14q-1 -11 -9 -14l-26 -10q-3 -2 -5 -2h-4q-12 0 -13 17q0 5 7 9zM181 122v-81q1 -21 -16 -21q-14 0 -17 12q-12 -13 -31 -13q-52 3 -55 62q4 59 55 64q21 -1 31 -15q2 12 17 14q17 0 16 -22zM95 81q2 -32 26 -33q24 2 27 33 q-3 32 -27 33q-24 -1 -26 -33z"/>
<glyph unicode="" horiz-adv-x="243" glyph-name="egrave" d="M114 195l27 -10l2 -1q6 -4 6 -9q-1 -17 -11 -17h-6q-2 1 -3 2l-26 10q-9 3 -9 14q0 12 11 14q4 0 9 -3zM166 70h-71q5 -23 32 -24q10 0 24 8q9 5 14 5q11 -1 13 -14q-6 -23 -54 -26q-59 2 -62 62q5 59 59 64q53 -5 60 -60q0 -16 -15 -15zM95 92h53q-5 25 -27 26 q-23 -2 -26 -26z"/>
<glyph unicode="" horiz-adv-x="243" glyph-name="eacute" d="M102 185l27 10q4 3 9 3q10 -2 11 -14q-1 -11 -9 -14l-26 -10q-2 -2 -4 -2q-2 -1 -5 0q-11 0 -11 17q-1 5 6 9zM166 70h-71q5 -23 32 -24q10 0 24 8q9 5 14 5q11 -1 13 -14q-6 -23 -54 -26q-59 2 -62 62q5 59 59 64q53 -5 60 -60q0 -16 -15 -15zM95 92h53q-5 25 -27 26 q-23 -2 -26 -26z"/>
<glyph unicode="" horiz-adv-x="243" glyph-name="ecircumflex" d="M97 186l24 10l25 -10q11 -4 11 -14q-2 -13 -15 -15q-4 0 -12 4l-9 4l-9 -4q-7 -4 -11 -4q-13 2 -15 15q0 10 11 14zM166 70h-71q5 -23 32 -24q10 0 24 8q9 5 14 5q11 -2 13 -14q-6 -24 -54 -26q-59 2 -62 62q5 58 59 64q53 -6 60 -61q0 -15 -15 -14zM95 92h53 q-5 25 -27 26q-23 -2 -26 -26z"/>
<glyph unicode="" horiz-adv-x="250" glyph-name="igrave" d="M118 195l27 -10l2 -1q6 -4 6 -9q-2 -17 -12 -17h-5q-3 1 -4 2l-26 10q-9 3 -9 14q1 12 12 14q3 0 9 -3zM109 37v88q0 18 16 19q15 -1 16 -19v-88q-1 -17 -16 -17q-16 0 -16 17z"/>
<glyph unicode="" horiz-adv-x="250" glyph-name="iacute" d="M106 185l27 10q5 3 9 3q10 -2 12 -14q-1 -11 -9 -14l-26 -10q-3 -2 -5 -2q-2 -1 -4 0q-11 0 -12 17q-1 5 6 9zM110 37v88q0 18 16 19q15 -1 16 -19v-88q-1 -17 -16 -17q-16 0 -16 17z"/>
<glyph unicode="" horiz-adv-x="243" glyph-name="ograve" d="M114 195l27 -10l2 -1q6 -4 6 -9q-1 -17 -11 -17h-6q-2 1 -3 2l-26 10q-9 3 -9 14q0 12 11 14q4 0 9 -3zM121 145q54 -5 60 -64q-5 -59 -60 -62q-55 3 -59 62q5 59 59 64zM121 114q-24 -1 -26 -33q2 -32 26 -33q24 1 27 33q-3 32 -27 33z"/>
<glyph unicode="" horiz-adv-x="243" glyph-name="oacute" d="M102 185l27 10q4 3 9 3q10 -2 11 -14q-1 -11 -9 -14l-26 -10q-2 -2 -4 -2q-2 -1 -5 0q-11 0 -11 17q-1 5 6 9zM121 145q54 -5 60 -64q-5 -59 -60 -62q-55 3 -59 62q5 59 59 64zM121 114q-24 -1 -26 -33q2 -32 26 -33q24 1 27 33q-3 32 -27 33z"/>
<glyph unicode="" horiz-adv-x="242" glyph-name="divide" d="M74 86h94q14 -1 14 -14q0 -14 -14 -14h-94q-14 0 -14 14q0 13 14 14zM103 25q1 16 18 18q16 -2 18 -18q-2 -15 -18 -17q-17 2 -18 17zM103 120q1 16 18 18q16 -2 18 -18q-2 -17 -18 -18q-17 1 -18 18z"/>
<glyph unicode="" horiz-adv-x="244" glyph-name="ugrave" d="M115 195l27 -10l2 -1q6 -4 6 -9q-2 -17 -12 -17h-5q-3 1 -4 2l-26 10q-9 3 -9 14q1 12 12 14q3 0 9 -3zM67 66v59q0 17 17 19q15 -1 16 -19v-59q1 -20 22 -21q20 1 22 21v59q0 18 16 19q16 -2 17 -19v-59q-2 -46 -55 -47q-54 1 -55 47z"/>
<glyph unicode="" horiz-adv-x="244" glyph-name="uacute" d="M102 185l27 10q5 3 9 3q10 -2 12 -14q-1 -11 -9 -14l-26 -10q-3 -2 -5 -2q-2 -1 -4 0q-11 0 -12 17q-1 5 6 9zM67 66v59q0 17 17 19q15 -1 16 -19v-59q1 -20 22 -21q20 1 22 21v59q0 18 16 19q16 -2 17 -19v-59q-2 -46 -55 -47q-54 1 -55 47z"/>
<glyph unicode="" horiz-adv-x="244" glyph-name="udieresis" d="M131 175q1 14 16 16q15 -2 17 -16q-2 -15 -17 -17q-15 1 -16 17zM80 175q1 14 17 16q14 -2 16 -16q-2 -16 -16 -17q-16 2 -17 17zM67 65v59q0 18 17 19q15 -1 16 -19v-59q1 -20 22 -21q20 1 22 21v59q0 18 16 19q16 -1 17 -19v-59q-2 -46 -55 -47q-54 1 -55 47z"/>
</font>
</defs>
</svg>
