<svg xmlns="http://www.w3.org/2000/svg" viewBox="0 0 20.32 20.318">
  <defs>
    <style>
      .cls-1 {
        fill: #005192;
      }
    </style>
  </defs>
  <g id="Group_1867" data-name="Group 1867" transform="translate(0.031 -0.025)">
    <path id="Path_367" data-name="Path 367" class="cls-1" d="M18.973,1.34a4.482,4.482,0,0,0-6.343,0L1,12.965a.582.582,0,0,0-.165.333L-.025,19.68a.58.58,0,0,0,.165.489.591.591,0,0,0,.411.173.471.471,0,0,0,.078,0l3.845-.52a.585.585,0,0,0-.156-1.16l-3.083.416.6-4.451,4.685,4.685a.591.591,0,0,0,.411.173.573.573,0,0,0,.411-.173L18.973,7.683a4.479,4.479,0,0,0,0-6.343ZM12.855,2.769l1.953,1.953L4.2,15.333,2.244,13.381ZM6.937,18.07,5.028,16.16,15.639,5.548l1.909,1.909ZM18.363,6.622,13.691,1.951a3.319,3.319,0,0,1,4.672,4.672Z"/>
  </g>
</svg>
