<svg xmlns="http://www.w3.org/2000/svg" viewBox="0 0 11.698 14.584">
  <defs>
    <style>
      .cls-1 {
        fill: #fff;
      }
    </style>
  </defs>
  <g id="Group_1831" data-name="Group 1831" transform="translate(0 0)">
    <g id="Group_1830" data-name="Group 1830">
      <path id="Path_350" data-name="Path 350" class="cls-1" d="M5.846,0A5.854,5.854,0,0,0,0,5.846a5.754,5.754,0,0,0,.1,1.1c0,.021.015.086.04.2A5.757,5.757,0,0,0,.535,8.292a16.388,16.388,0,0,0,5.054,6.2.414.414,0,0,0,.52,0,16.419,16.419,0,0,0,5.054-6.2,5.693,5.693,0,0,0,.391-1.153c.024-.11.037-.174.04-.2a6.012,6.012,0,0,0,.1-1.1A5.863,5.863,0,0,0,5.846,0Zm4.929,6.8c0,.006,0,.012,0,.018s-.012.061-.028.131v.006a4.854,4.854,0,0,1-.339,1s0,.009-.006.012A15.294,15.294,0,0,1,5.846,13.64,15.294,15.294,0,0,1,1.293,7.965s0-.009-.006-.012a5.178,5.178,0,0,1-.339-1V6.95C.929,6.879.923,6.834.92,6.818s0-.012,0-.021a5.02,5.02,0,1,1,9.949-.954A4.978,4.978,0,0,1,10.775,6.8Z"/>
      <path id="Path_351" data-name="Path 351" class="cls-1" d="M73.512,71.9a3.712,3.712,0,1,0,3.712,3.712A3.718,3.718,0,0,0,73.512,71.9Zm0,6.6A2.886,2.886,0,1,1,76.4,75.612,2.89,2.89,0,0,1,73.512,78.5Z" transform="translate(-67.666 -69.702)"/>
    </g>
  </g>
</svg>
