<svg id="Group_1818" data-name="Group 1818" xmlns="http://www.w3.org/2000/svg" viewBox="0 0 115.512 84.715">
  <defs>
    <style>
      .cls-1 {
        fill: #fff;
      }
    </style>
  </defs>
  <g id="Cloud__x2B__Sun_1_">
    <g id="Group_1817" data-name="Group 1817">
      <path id="Path_344" data-name="Path 344" class="cls-1" d="M99.434,49.524C97.35,34.216,87.319,23.03,71.422,23.03c-13.315,0-20.675,7.835-25.2,20a22.5,22.5,0,0,0-5.072-.589c-11.889,0-21.535,10.122-21.535,21.716,0,11.1,9.307,19.9,20.743,20.562h57.02a18.3,18.3,0,0,0,18.139-18C115.489,57.767,108.492,50.476,99.434,49.524ZM97.35,79.574H40.308c-8.243-.476-15.557-7.36-15.557-15.421,0-8.447,7.722-15.987,16.35-15.987a16.125,16.125,0,0,1,5.91,1.132l3.125,1.245.838-3.17c2.921-11.119,8.7-19.2,20.426-19.2,13.791,0,21.762,10.87,22.373,24.343l.136,2.921,3.578-.249c6.658,0,12.794,5.05,12.794,11.549C110.3,73.234,104.008,79.574,97.35,79.574ZM41.667,19.112A22.819,22.819,0,0,1,53.895,22.69a22.223,22.223,0,0,1,5.027-2.808A28.2,28.2,0,0,0,13.474,41.961a27.674,27.674,0,0,0,2.446,11.368,23.362,23.362,0,0,1,3.487-5.888,22.983,22.983,0,0,1-.747-5.457A22.968,22.968,0,0,1,41.667,19.112Zm.2-10.462a29.443,29.443,0,0,1,4.257.34h.294L41.87,0,37.319,8.99h.294A29.443,29.443,0,0,1,41.87,8.65ZM9.081,46.445V46.15a26.284,26.284,0,0,1,0-8.424v-.294L0,41.938Zm5.276-23.12a28.4,28.4,0,0,1,2.763-3.216,28.625,28.625,0,0,1,3.261-2.74l.2-.2-9.624-3.17,3.193,9.556Z"/>
    </g>
  </g>
</svg>
