<?xml version="1.0" encoding="utf-8"?>
<!-- Generator: Adobe Illustrator 16.0.0, SVG Export Plug-In . SVG Version: 6.00 Build 0)  -->
<!DOCTYPE svg PUBLIC "-//W3C//DTD SVG 1.1//EN" "http://www.w3.org/Graphics/SVG/1.1/DTD/svg11.dtd">
<svg version="1.1" id="Layer_1" xmlns="http://www.w3.org/2000/svg" xmlns:xlink="http://www.w3.org/1999/xlink" x="0px" y="0px"
	 width="480px" height="480px" viewBox="0 0 480 480" enable-background="new 0 0 480 480" xml:space="preserve">
<g>
	<path fill="#010101" d="M23.45,438.7l1.6-1.75c0.667-0.634,1.317-0.634,1.95,0L39.95,450L27,463.05c-0.7,0.634-1.383,0.634-2.05,0
		l-1.6-1.648c-0.6-0.635-0.567-1.302,0.1-2l9.35-9.4l-9.35-9.45C22.85,439.883,22.85,439.267,23.45,438.7 M460.25,22H444l-0.2-1
		l-0.25-0.45l-0.55-0.2h-3.65c-0.232,0-0.416,0.083-0.55,0.25c-0.167,0.1-0.25,0.3-0.25,0.6c0,0.267,0.083,0.483,0.25,0.65l0.55,0.2
		h2.95l2.352,11.4l-0.75,1.6L443.8,35.6l0.3,0.45c0.167,0.134,0.367,0.2,0.602,0.2h14.148c0.268,0,0.468-0.1,0.602-0.3l0.3-0.6
		l-0.3-0.6c-0.134-0.2-0.334-0.3-0.602-0.3H446.1l0.2-0.6l0.102-0.5l-0.15-0.8l14-1.55l0.851-0.3l0.25-0.8v-6.8l-0.25-0.8
		C460.833,22.1,460.55,22,460.25,22 M446.8,36.75c-0.333-0.3-0.732-0.45-1.2-0.45c-0.433,0-0.85,0.15-1.25,0.45
		c-0.3,0.333-0.448,0.733-0.448,1.2c0,0.466,0.148,0.9,0.448,1.3c0.4,0.267,0.817,0.4,1.25,0.4c0.468,0,0.867-0.133,1.2-0.4
		l0.45-1.3C447.25,37.483,447.1,37.083,446.8,36.75 M459.05,36.75c-0.3-0.3-0.7-0.45-1.2-0.45c-0.466,0-0.85,0.15-1.148,0.45
		c-0.333,0.333-0.5,0.733-0.5,1.2c0,0.466,0.167,0.9,0.5,1.3c0.3,0.267,0.684,0.4,1.148,0.4c0.5,0,0.9-0.133,1.2-0.4
		c0.333-0.4,0.5-0.833,0.5-1.3C459.55,37.483,459.383,37.083,459.05,36.75 M479,30c0,8-2.833,14.833-8.5,20.5S458,59,450,59
		s-14.833-2.833-20.5-8.5S421,38,421,30s2.833-14.833,8.5-20.5S442,1,450,1s14.833,2.833,20.5,8.5S479,22,479,30 M419,30
		c0,8-2.833,14.833-8.5,20.5S398,59,390,59s-14.833-2.833-20.5-8.5S361,38,361,30s2.833-14.833,8.5-20.5S382,1,390,1
		s14.833,2.833,20.5,8.5S419,22,419,30 M419,90c0,8-2.833,14.833-8.5,20.5S398,119,390,119s-14.833-2.833-20.5-8.5S361,98,361,90
		s2.833-14.833,8.5-20.5S382,61,390,61s14.833,2.833,20.5,8.5S419,82,419,90 M429.5,69.5C435.167,63.833,442,61,450,61
		s14.833,2.833,20.5,8.5S479,82,479,90s-2.833,14.833-8.5,20.5S458,119,450,119s-14.833-2.833-20.5-8.5S421,98,421,90
		S423.833,75.167,429.5,69.5 M458.05,79.35h-16.1v21.3h2.45V81.9H455.6v18.75h2.45V79.35 M453.7,90.8c0-0.4-0.134-0.767-0.4-1.1
		c-0.333-0.267-0.717-0.4-1.148-0.4c-0.435,0-0.802,0.134-1.102,0.4c-0.267,0.333-0.398,0.7-0.398,1.1
		c0,0.467,0.133,0.85,0.398,1.15c0.3,0.3,0.667,0.45,1.102,0.45l1.148-0.45C453.566,91.65,453.7,91.267,453.7,90.8 M398.65,22.45
		h-3.4l-2-2.1h-6.5l-1.95,2.1H381.4c-1.334,0.1-2.052,0.816-2.15,2.15v12.95c0.1,1.267,0.816,1.967,2.15,2.1h17.25
		c1.267-0.133,1.966-0.833,2.1-2.1V24.6C400.616,23.267,399.917,22.55,398.65,22.45 M390,36.45c-3.267-0.333-5.05-2.134-5.35-5.4
		c0.3-3.267,2.083-5.066,5.35-5.4c3.267,0.333,5.05,2.133,5.35,5.4C395.05,34.316,393.267,36.117,390,36.45 M386.5,30.95
		c0.167,2.133,1.316,3.283,3.45,3.45c2.1-0.167,3.25-1.316,3.45-3.45c-0.2-2.067-1.352-3.184-3.45-3.35
		C387.816,27.767,386.667,28.883,386.5,30.95 M335.35,20.35H322.45c-1.3,0.1-2,0.816-2.102,2.15v15
		c0.102,1.267,0.802,1.983,2.102,2.15h15.05c1.267-0.167,1.983-0.883,2.15-2.15V24.6L335.35,20.35 M326.75,34.3
		c0.2-1.966,1.283-3.033,3.25-3.2c1.967,0.167,3.033,1.233,3.2,3.2c-0.167,1.967-1.233,3.034-3.2,3.2
		C328.033,37.333,326.95,36.267,326.75,34.3 M359,30c0,8-2.833,14.833-8.5,20.5S338,59,330,59s-14.833-2.833-20.5-8.5S301,38,301,30
		s2.833-14.833,8.5-20.5S322,1,330,1s14.833,2.833,20.5,8.5S359,22,359,30 M333.2,26.75h-10.75V22.5h10.75V26.75 M337.35,84h-2
		c0.9,1.267,1.483,2.667,1.75,4.2h0.25c0.667,0,1-0.35,1-1.05V85C338.35,84.333,338.017,84,337.35,84 M333.6,83.2
		c-1.865-1.9-4.148-2.85-6.85-2.85c-2.634,0-4.9,0.95-6.8,2.85c-1.9,1.866-2.852,4.133-2.852,6.8s0.95,4.934,2.852,6.8
		c1.898,1.9,4.166,2.85,6.8,2.85l1.95-0.15h7.75V90l-0.102-1.8c-0.333-1.534-0.982-2.934-1.948-4.2L333.6,83.2 M331.35,85.4
		l0.802,0.95l0.898,1.85l0.2,1.8c0,1.767-0.634,3.3-1.9,4.6c-1.267,1.233-2.8,1.85-4.6,1.85c-1.733,0-3.25-0.617-4.55-1.85
		c-1.233-1.3-1.852-2.833-1.852-4.6s0.617-3.3,1.852-4.6c1.3-1.233,2.815-1.85,4.55-1.85C328.55,83.55,330.083,84.167,331.35,85.4
		 M341.8,95.25c-0.267,0-0.517,0.117-0.75,0.35l-0.25,0.75V97h-3.7v2.5h4.7c0.8,0.066,1.167-0.316,1.102-1.15v-2l-0.352-0.75
		C342.35,95.367,342.1,95.25,341.8,95.25 M330.35,86.45c-0.966-1-2.166-1.5-3.6-1.5c-1.333,0-2.5,0.5-3.5,1.5
		c-1,0.966-1.5,2.15-1.5,3.55s0.5,2.583,1.5,3.55c1,1,2.167,1.5,3.5,1.5c1.434,0,2.634-0.5,3.6-1.5c0.968-0.966,1.45-2.15,1.45-3.55
		S331.316,87.417,330.35,86.45 M359,90c0,8-2.833,14.833-8.5,20.5S338,119,330,119s-14.833-2.833-20.5-8.5S301,98,301,90
		s2.833-14.833,8.5-20.5S322,61,330,61s14.833,2.833,20.5,8.5S359,82,359,90 M395.6,89.2h-4.8v-7.3h4.8V89.2 M390.8,98.1v-7.3h4.8
		v7.3H390.8 M384.4,89.2v-7.3h4.8v7.3H384.4 M384.4,98.1v-7.3h4.8v7.3H384.4 M381.95,79.35v21.3h16.1v-21.3H381.95 M389.95,147.85
		l-0.05-0.05l-8.45-7.45v19.3l8.45-7.45h0.05l0.1-0.05l2.45-2.15L389.95,147.85 M391.4,140.35v6.35l3,2.6l0.25,0.45v0.5l-0.25,0.45
		l-3,2.6v6.35l11-9.65L391.4,140.35 M390,121c8,0,14.833,2.833,20.5,8.5S419,142,419,150s-2.833,14.833-8.5,20.5S398,179,390,179
		s-14.833-2.833-20.5-8.5S361,158,361,150s2.833-14.833,8.5-20.5S382,121,390,121 M350.5,129.5l3.65,4.4
		c3.232,4.7,4.85,10.067,4.85,16.1s-1.616,11.4-4.85,16.1l-3.65,4.4c-5.667,5.667-12.5,8.5-20.5,8.5s-14.833-2.833-20.5-8.5
		S301,158,301,150s2.833-14.833,8.5-20.5S322,121,330,121S344.833,123.833,350.5,129.5 M332.5,145.75
		c-1.333,2.967-1.45,6.15-0.35,9.55l4.25,1.05c1.398-1.733,2.198-4.233,2.398-7.5c-0.065-3-0.898-4.75-2.5-5.25
		C334.767,143.267,333.5,143.983,332.5,145.75 M330.75,158.65c-0.333,1.833,0.267,2.95,1.8,3.35c1.867,0.434,3.05-1.066,3.55-4.5
		l-4.3-1C331.3,157.2,330.95,157.917,330.75,158.65 M329.25,153l-1-2.2l-4.3,1.1c0.467,3.434,1.633,4.934,3.5,4.5
		C328.983,156,329.583,154.867,329.25,153 M350.5,189.5c5.667,5.667,8.5,12.5,8.5,20.5c0,8.033-2.833,14.867-8.5,20.5
		c-5.667,5.667-12.5,8.5-20.5,8.5c-8.033,0-14.884-2.833-20.55-8.5c-5.634-5.633-8.45-12.467-8.45-20.5c0-8,2.816-14.833,8.45-20.5
		c5.666-5.667,12.517-8.5,20.55-8.5C338,181,344.833,183.833,350.5,189.5 M390,181c8,0,14.833,2.833,20.5,8.5S419,202,419,210
		c0,8.033-2.833,14.867-8.5,20.5c-5.667,5.667-12.5,8.5-20.5,8.5c-8.033,0-14.883-2.833-20.55-8.5
		c-5.634-5.633-8.45-12.467-8.45-20.5c0-8,2.816-14.833,8.45-20.5C375.117,183.833,381.967,181,390,181 M456.1,140.55
		c0.567-0.667,0.567-1.283,0-1.85l-1.648-1.75c-0.634-0.634-1.283-0.634-1.95,0L439.55,150l12.95,13.05
		c0.733,0.634,1.417,0.634,2.05,0l1.65-1.65c0.565-0.633,0.533-1.3-0.102-2L446.7,150L456.1,140.55 M327.9,149.65
		c1.065-3.367,0.948-6.533-0.352-9.5c-1-1.8-2.283-2.517-3.85-2.15c-1.602,0.5-2.435,2.25-2.5,5.25c0.2,3.267,1,5.75,2.398,7.45
		L327.9,149.65 M470.5,129.5c5.667,5.667,8.5,12.5,8.5,20.5s-2.833,14.833-8.5,20.5S458,179,450,179s-14.833-2.833-20.5-8.5
		S421,158,421,150s2.833-14.833,8.5-20.5S442,121,450,121S464.833,123.833,470.5,129.5 M470.5,189.5c5.667,5.667,8.5,12.5,8.5,20.5
		c0,8.033-2.833,14.867-8.5,20.5c-5.667,5.667-12.5,8.5-20.5,8.5c-8.033,0-14.883-2.833-20.55-8.5
		c-5.634-5.633-8.45-12.467-8.45-20.5c0-8,2.816-14.833,8.45-20.5c5.667-5.667,12.517-8.5,20.55-8.5
		C458,181,464.833,183.833,470.5,189.5 M445.75,202.5c-1.3,0.8-2.283,1.883-2.95,3.25c-1.7,0.2-3.083,0.9-4.148,2.1
		c-1.067,1.167-1.635,2.6-1.7,4.3c0.065,1.9,0.717,3.434,1.95,4.6c1.166,1.267,2.698,1.917,4.6,1.95h14.1
		c1.534-0.034,2.835-0.55,3.9-1.55c1-1.066,1.517-2.367,1.55-3.9c-0.033-1.467-0.533-2.7-1.5-3.7c-0.898-1-2.083-1.566-3.55-1.7
		c-0.4-1.9-1.333-3.434-2.8-4.6c-1.435-1.233-3.167-1.883-5.2-1.95C448.434,201.367,447.017,201.767,445.75,202.5 M410.5,290.5
		c-5.667,5.666-12.5,8.5-20.5,8.5s-14.833-2.834-20.5-8.5S361,278,361,270s2.833-14.834,8.5-20.5S382,241,390,241
		s14.833,2.834,20.5,8.5S419,262,419,270S416.167,284.834,410.5,290.5 M441.8,269.85v8.852h6.15v-5.051
		c-0.066-0.565,0.217-0.815,0.85-0.75h2.4c0.633-0.065,0.916,0.185,0.85,0.75v5.051h6.15v-8.852h1.898
		c1.302,0.066,1.533-0.283,0.7-1.05l-10.8-9.45l-10.8,9.45c-0.833,0.767-0.602,1.116,0.7,1.05H441.8 M421,270
		c0-8,2.833-14.834,8.5-20.5S442,241,450,241s14.833,2.834,20.5,8.5S479,262,479,270s-2.833,14.834-8.5,20.5S458,299,450,299
		s-14.833-2.834-20.5-8.5S421,278,421,270 M397.95,207.85c-0.367-1.9-1.283-3.45-2.75-4.65c-1.435-1.233-3.167-1.867-5.2-1.9
		c-1.6,0.034-3.033,0.434-4.3,1.2c-1.268,0.8-2.233,1.867-2.9,3.2c-1.667,0.233-3.05,0.95-4.148,2.15
		c-1.102,1.167-1.667,2.6-1.7,4.3c0.033,1.9,0.666,3.45,1.898,4.65c1.233,1.233,2.784,1.867,4.65,1.9h14.15
		c1.5-0.034,2.767-0.567,3.8-1.6c1.033-1.034,1.565-2.3,1.6-3.8c-0.033-1.533-0.517-2.783-1.45-3.75
		C400.667,208.55,399.45,207.983,397.95,207.85 M387.85,211.1h-3.25l5.4-5.45l5.4,5.45h-3.25v4.35h-4.302L387.85,211.1
		 M333.75,206.85v-7.5h-7.5v7.5h-5l8.75,8.75l8.75-8.75H333.75 M338.75,218.1h-17.5v2.55h17.5V218.1 M359,270
		c0,8-2.833,14.834-8.5,20.5S338,299,330,299s-14.833-2.834-20.5-8.5S301,278,301,270s2.833-14.834,8.5-20.5S322,241,330,241
		s14.833,2.834,20.5,8.5S359,262,359,270 M334.95,267.85l-0.05-0.05l-8.5-7.45v19.301l8.5-7.449h0.05l0.1-0.051l2.45-2.149
		L334.95,267.85 M396.45,261.3h-3.2c-0.6,0-0.9,0.267-0.9,0.8v15.75c0,0.566,0.302,0.852,0.9,0.852h3.2c0.533,0,0.8-0.284,0.8-0.852
		v-15.8C397.25,261.55,396.983,261.3,396.45,261.3 M386.75,261.3h-3.2c-0.533,0-0.8,0.267-0.8,0.8v15.75
		c0,0.566,0.283,0.852,0.85,0.852h3.15c0.566,0,0.85-0.284,0.85-0.852v-15.8C387.6,261.55,387.316,261.3,386.75,261.3
		 M398.05,318.45c1.033,1.032,1.55,2.233,1.55,3.6c0,1.435-0.517,2.634-1.55,3.601c-0.934,1.033-2.1,1.551-3.5,1.551
		c-1.1,0-2.083-0.333-2.95-1l-3.198,2.25L388.6,330l-0.198,1.55l3.1,2.25c0.866-0.667,1.883-1,3.05-1c1.4,0,2.566,0.483,3.5,1.45
		c1.033,1.033,1.55,2.268,1.55,3.7c0,1.366-0.517,2.55-1.55,3.55c-0.934,1.033-2.1,1.55-3.5,1.55c-1.398,0-2.616-0.517-3.648-1.55
		c-0.968-1-1.45-2.184-1.45-3.55l0.2-1.5l-3.2-2.351c-0.8,0.666-1.783,1-2.95,1c-1.4,0-2.583-0.5-3.55-1.5
		c-1-0.968-1.5-2.166-1.5-3.601s0.5-2.633,1.5-3.601c0.967-1,2.148-1.5,3.55-1.5c1.167,0,2.184,0.334,3.05,1l3.102-2.25l-0.2-1.601
		c0-1.366,0.482-2.565,1.45-3.6c1.032-1,2.25-1.5,3.648-1.5C395.95,316.95,397.116,317.45,398.05,318.45 M366.3,330
		c0,6.566,2.333,12.166,7,16.8c4.634,4.667,10.2,7,16.7,7c6.566,0,12.167-2.333,16.8-7c4.667-4.634,7-10.233,7-16.8
		s-2.333-12.133-7-16.7c-4.633-4.667-10.232-7-16.8-7c-6.5,0-12.066,2.333-16.7,7C368.633,317.867,366.3,323.434,366.3,330 M390,301
		c8,0,14.833,2.834,20.5,8.5c5.667,5.732,8.5,12.566,8.5,20.5c0,8-2.833,14.834-8.5,20.5S398,359,390,359
		c-7.934,0-14.733-2.834-20.4-8.5c-5.732-5.666-8.6-12.5-8.6-20.5c0-7.934,2.866-14.768,8.6-20.5
		C375.267,303.834,382.066,301,390,301 M350.5,309.5c5.667,5.732,8.5,12.566,8.5,20.5c0,8-2.833,14.834-8.5,20.5S338,359,330,359
		c-7.934,0-14.733-2.834-20.4-8.5c-5.732-5.666-8.6-12.5-8.6-20.5c0-7.934,2.866-14.768,8.6-20.5c5.667-5.666,12.468-8.5,20.4-8.5
		C338,301,344.833,303.834,350.5,309.5 M339.6,319.35c0.7,0,1.052,0.352,1.052,1.051v19.25c0,0.666-0.352,1-1.052,1h-19.25
		c-0.666,0-1-0.334-1-1V320.4c0-0.7,0.334-1.051,1-1.051H339.6 M330,306.3c-6.5,0-12.066,2.333-16.7,7c-4.666,4.567-7,10.134-7,16.7
		s2.334,12.166,7,16.8c4.634,4.667,10.2,7,16.7,7c6.566,0,12.167-2.333,16.8-7c4.667-4.634,7-10.233,7-16.8s-2.333-12.133-7-16.7
		C342.167,308.633,336.566,306.3,330,306.3 M330.5,392.4l-1.4,1.05l1.95,1.95L324.4,402.1l2.398,2.4l9.102-9.1l-4.4-4.4L330.5,392.4
		 M330.3,389.8l0.3-1.55l-0.25-1.5c-0.232-0.533-0.565-1.018-1-1.45c-0.433-0.433-0.916-0.75-1.448-0.95l-1.5-0.3
		c-1.167,0-2.167,0.417-3,1.25c-0.867,0.833-1.284,1.817-1.25,2.95c0,1.166,0.433,2.166,1.3,3c0.8,0.8,1.783,1.2,2.95,1.2
		l1.448-0.25c0.567-0.2,1.052-0.517,1.45-0.95C329.767,390.816,330.1,390.334,330.3,389.8 M337.4,379.7l-2.4-2.4l-5.85,5.851
		c0.433,0.232,0.883,0.584,1.35,1.051l1,1.398L337.4,379.7 M350.5,369.5c5.667,5.666,8.5,12.5,8.5,20.5s-2.833,14.834-8.5,20.5
		S338,419,330,419s-14.833-2.834-20.5-8.5S301,398,301,390s2.833-14.834,8.5-20.5S322,361,330,361S344.833,363.834,350.5,369.5
		 M383.9,380.55L393.3,390l-9.398,9.4c-0.635,0.699-0.667,1.365-0.102,2l1.65,1.648c0.633,0.635,1.315,0.635,2.05,0L400.45,390
		l-12.95-13.05c-0.667-0.634-1.316-0.634-1.95,0l-1.648,1.75C383.333,379.268,383.333,379.883,383.9,380.55 M451.8,316.45
		c0.8,0,1.2,0.417,1.2,1.25v9.25h9.25c0.833,0.032,1.267,0.433,1.3,1.2v3.648c-0.033,0.801-0.467,1.2-1.3,1.2H453v9.2
		c0,0.898-0.434,1.35-1.3,1.35h-3.4c-0.898,0-1.35-0.449-1.35-1.35V333h-9.15c-0.898,0-1.35-0.434-1.35-1.3v-3.4
		c0-0.899,0.45-1.35,1.35-1.35h9.15v-9.2c0-0.867,0.434-1.3,1.3-1.3H451.8 M369.5,369.5c5.667-5.666,12.5-8.5,20.5-8.5
		s14.833,2.834,20.5,8.5S419,382,419,390s-2.833,14.834-8.5,20.5S398,419,390,419s-14.833-2.834-20.5-8.5S361,398,361,390
		S363.833,375.166,369.5,369.5 M479,330c0,8-2.833,14.834-8.5,20.5S458,359,450,359c-7.934,0-14.733-2.834-20.4-8.5
		c-5.732-5.666-8.6-12.5-8.6-20.5c0-7.934,2.866-14.768,8.6-20.5c5.667-5.666,12.468-8.5,20.4-8.5c8,0,14.833,2.834,20.5,8.5
		C476.167,315.232,479,322.066,479,330 M466.8,313.3c-4.633-4.667-10.232-7-16.8-7c-6.5,0-12.066,2.333-16.7,7
		c-4.667,4.567-7,10.134-7,16.7s2.333,12.166,7,16.8c4.634,4.667,10.2,7,16.7,7c6.566,0,12.167-2.333,16.8-7
		c4.667-4.634,7-10.233,7-16.8S471.467,317.867,466.8,313.3 M421,390c0-7.934,2.833-14.768,8.5-20.5c5.667-5.666,12.5-8.5,20.5-8.5
		c7.934,0,14.733,2.834,20.4,8.5c5.731,5.732,8.6,12.566,8.6,20.5c0,8-2.867,14.834-8.6,20.5c-5.667,5.666-12.468,8.5-20.4,8.5
		c-8,0-14.833-2.834-20.5-8.5S421,398,421,390 M433.2,373.3c-4.667,4.567-7,10.134-7,16.7s2.333,12.166,7,16.8
		c4.633,4.667,10.232,7,16.8,7c6.5,0,12.066-2.333,16.7-7c4.667-4.634,7-10.233,7-16.8s-2.333-12.133-7-16.7
		c-4.634-4.667-10.2-7-16.7-7C443.434,366.3,437.833,368.633,433.2,373.3 M439.55,387.1l6,5.9l14.8-14.9l4.552,4.5L445.55,401.9
		l-10.45-10.4L439.55,387.1 M299,30c0,8-2.834,14.833-8.5,20.5S278,59,270,59s-14.834-2.833-20.5-8.5S241,38,241,30
		s2.834-14.833,8.5-20.5l0.2-0.2C255.334,3.767,262.1,1,270,1c4.967,0,9.482,1.1,13.55,3.3c2.468,1.3,4.784,3.034,6.95,5.2
		C296.166,15.167,299,22,299,30 M272.95,21.75c1.065,0.133,1.667,0.717,1.8,1.75c-0.133,1.066-0.732,1.65-1.8,1.75
		c-1.067-0.1-1.667-0.684-1.8-1.75C271.283,22.467,271.883,21.883,272.95,21.75 M267.05,21.75c1.067,0.133,1.667,0.717,1.8,1.75
		c-0.133,1.066-0.731,1.65-1.8,1.75c-1.065-0.1-1.667-0.684-1.8-1.75C265.383,22.467,265.982,21.883,267.05,21.75 M276.5,30
		c-1.066-0.133-1.65-0.733-1.75-1.8c0.1-1.034,0.684-1.617,1.75-1.75c1.033,0.133,1.617,0.716,1.75,1.75
		C278.117,29.267,277.533,29.867,276.5,30 M280.65,28.85c-0.602-5.8-4.15-8.967-10.65-9.5c-6.5,0.6-10.05,4.15-10.65,10.65
		c0.602,6.5,4.15,10.05,10.65,10.65c1.066-0.133,1.666-0.733,1.8-1.8c0-0.467-0.149-0.833-0.45-1.1c-0.332-0.367-0.5-0.783-0.5-1.25
		c0.102-1.033,0.7-1.617,1.801-1.75h2.101C278.316,34.383,280.283,32.417,280.65,28.85 M263.5,30c-1.033-0.133-1.617-0.733-1.75-1.8
		c0.133-1.034,0.717-1.617,1.75-1.75c1.033,0.133,1.617,0.716,1.75,1.75C265.117,29.267,264.533,29.867,263.5,30 M260.65,97.95
		l5.75-0.75l8.699-8.65l-4.949-4.95l-8.602,8.6L260.65,97.95 M279.35,84.25l-4.949-4.9l-3.051,3.15l4.852,4.95L279.35,84.25 M270,61
		c8,0,14.834,2.833,20.5,8.5S299,82,299,90s-2.834,14.833-8.5,20.5S278,119,270,119s-14.834-2.833-20.5-8.5S241,98,241,90
		s2.834-14.833,8.5-20.5S262,61,270,61 M214.05,20.55l-1.15-1.2H207l-1.15,1.2h-4.15v2.35h16.5v-2.35H214.05 M202.9,24.1v14.15
		c0.133,1.434,0.917,2.233,2.35,2.4h9.45c1.366-0.167,2.133-0.966,2.3-2.4V24.1H202.9 M209.95,30.7l2.45-2.6l1.75,1.8l-2.55,2.5
		l2.55,2.45l-1.75,1.7L209.95,34l-2.45,2.55l-1.7-1.7l2.5-2.45l-2.5-2.5l1.65-1.8L209.95,30.7 M239,30c0,8-2.833,14.833-8.5,20.5
		S218,59,210,59s-14.833-2.833-20.5-8.5S181,38,181,30s2.833-14.833,8.5-20.5S202,1,210,1s14.833,2.833,20.5,8.5S239,22,239,30
		 M179,30c0,8-2.833,14.833-8.5,20.5S158,59,150,59s-14.833-2.833-20.5-8.5S121,38,121,30s2.833-14.833,8.5-20.5S142,1,150,1
		s14.833,2.833,20.5,8.5S179,22,179,30 M189.5,69.5C195.167,63.833,202,61,210,61s14.833,2.833,20.5,8.5S239,82,239,90
		s-2.833,14.833-8.5,20.5S218,119,210,119s-14.833-2.833-20.5-8.5S181,98,181,90S183.833,75.167,189.5,69.5 M179,90
		c0,8-2.833,14.833-8.5,20.5S158,119,150,119s-14.833-2.833-20.5-8.5S121,98,121,90s2.833-14.833,8.5-20.5S142,61,150,61
		s14.833,2.833,20.5,8.5S179,82,179,90 M211.15,137.9h-2.3v3c-2.034,0.267-3.8,1.15-5.3,2.65s-2.383,3.267-2.65,5.3h-3v2.3h3
		c0.267,2.034,1.15,3.8,2.65,5.3s3.267,2.383,5.3,2.65v3h2.3v-3c2.034-0.267,3.8-1.15,5.3-2.65s2.383-3.267,2.65-5.3h3v-2.3h-3
		c-0.267-2.034-1.15-3.8-2.65-5.3s-3.267-2.383-5.3-2.65V137.9 M212.5,86.25l-2.7,0.05c-1.2,0.7-2.267,1.634-3.2,2.8
		c-0.167,0.233-0.2,0.417-0.1,0.55l0.55-0.1c0.5-0.3,0.967-0.45,1.4-0.45c0.433-0.067,0.583,0.25,0.45,0.95l-1.65,6.7
		c-0.333,1.5-0.217,2.6,0.35,3.3l2.7-0.05c1.167-0.7,2.233-1.633,3.2-2.8c0.2-0.267,0.233-0.483,0.1-0.65L213,96.7
		c-0.467,0.333-0.9,0.5-1.3,0.5c-0.467,0.066-0.634-0.25-0.5-0.95l1.6-6.75C213.167,88.033,213.066,86.95,212.5,86.25 M212.95,83.7
		c0.433-0.5,0.65-1.1,0.65-1.8c0-0.7-0.217-1.283-0.65-1.75c-0.5-0.533-1.1-0.8-1.8-0.8c-0.7,0-1.283,0.267-1.75,0.8
		c-0.466,0.467-0.7,1.05-0.7,1.75c0,0.7,0.233,1.3,0.7,1.8c0.467,0.466,1.05,0.7,1.75,0.7C211.85,84.4,212.45,84.167,212.95,83.7
		 M210.6,144.65l0.3,0.05c1.1,0.167,2.067,0.667,2.9,1.5s1.333,1.8,1.5,2.9l0.1,0.9l-0.1,0.95c-0.167,1.066-0.667,2.017-1.5,2.85
		s-1.8,1.333-2.9,1.5l-0.9,0.1l-0.95-0.1c-1.066-0.167-2.017-0.667-2.85-1.5s-1.333-1.783-1.5-2.85l-0.05-0.3L204.6,150l0.1-0.9
		c0.167-1.1,0.667-2.067,1.5-2.9s1.783-1.333,2.85-1.5l0.55-0.1h0.8L210.6,144.65 M230.5,129.5c5.667,5.667,8.5,12.5,8.5,20.5
		s-2.833,14.833-8.5,20.5S218,179,210,179s-14.833-2.833-20.5-8.5S181,158,181,150s2.833-14.833,8.5-20.5S202,121,210,121
		S224.833,123.833,230.5,129.5 M170.5,170.5c-5.667,5.667-12.5,8.5-20.5,8.5s-14.833-2.833-20.5-8.5S121,158,121,150
		s2.833-14.833,8.5-20.5S142,121,150,121s14.833,2.833,20.5,8.5S179,142,179,150S176.167,164.833,170.5,170.5 M275.7,147.4
		c0.8,0,1.483,0.284,2.05,0.85c0.533,0.6,0.8,1.283,0.8,2.05c0,0.8-0.267,1.483-0.8,2.05c-0.566,0.566-1.25,0.85-2.05,0.85
		s-1.483-0.284-2.05-0.85c-0.566-0.567-0.852-1.25-0.852-2.05c0-0.767,0.284-1.45,0.852-2.05
		C274.217,147.684,274.9,147.4,275.7,147.4 M259.35,142.25c-1.6,0-2.398,0.816-2.398,2.45v10.6c0,1.634,0.8,2.45,2.398,2.45h6.102
		c0.6-0.033,1.066-0.4,1.398-1.1l1.602-3.95c0.267-0.567,0.783-0.85,1.55-0.85s1.283,0.283,1.55,0.85l1.602,3.95
		c0.332,0.7,0.8,1.067,1.398,1.1h6.102c1.6,0,2.398-0.816,2.398-2.45v-10.6c0-1.634-0.8-2.45-2.398-2.45H259.35 M274.85,100.65V99.4
		h-14.1v1.25H274.85 M210,181h29v58h-29c-8,0-14.833-2.833-20.5-8.5S181,218,181,210s2.833-14.833,8.5-20.5S202,181,210,181
		 M266.35,148.25c0.566,0.6,0.852,1.283,0.852,2.05c0,0.8-0.284,1.483-0.852,2.05c-0.565,0.566-1.25,0.85-2.05,0.85
		s-1.483-0.284-2.05-0.85c-0.533-0.567-0.8-1.25-0.8-2.05c0-0.767,0.267-1.45,0.8-2.05c0.566-0.566,1.25-0.85,2.05-0.85
		S265.783,147.684,266.35,148.25 M270,121c8,0,14.834,2.833,20.5,8.5S299,142,299,150s-2.834,14.833-8.5,20.5S278,179,270,179
		s-14.834-2.833-20.5-8.5S241,158,241,150s2.834-14.833,8.5-20.5S262,121,270,121 M270,181c8,0,14.834,2.833,20.5,8.5
		S299,202,299,210c0,8.033-2.834,14.867-8.5,20.5c-5.666,5.667-12.5,8.5-20.5,8.5c-8.033,0-14.883-2.833-20.55-8.5
		c-5.634-5.633-8.45-12.467-8.45-20.5c0-8,2.816-14.833,8.45-20.5C255.117,183.833,261.967,181,270,181 M154.65,22.25L150,26.9
		l-4.6-4.6c-0.433-0.433-0.883-0.433-1.35,0l-1.75,1.75c-0.4,0.434-0.383,0.867,0.05,1.3l4.6,4.6l-4.65,4.65
		c-0.433,0.433-0.433,0.883,0,1.35l1.75,1.75l1.3-0.05L150,33l4.7,4.7c0.4,0.4,0.816,0.4,1.25,0l1.8-1.8
		c0.367-0.4,0.367-0.816,0-1.25l-4.7-4.7l4.7-4.7c0.367-0.367,0.35-0.767-0.05-1.2l-1.75-1.75L154.65,22.25 M90,35.35
		c-0.733,0-1.35,0.283-1.85,0.85l-0.25,0.25c-0.333,0.466-0.5,0.983-0.5,1.55c0,0.733,0.25,1.35,0.75,1.85
		c0.5,0.533,1.117,0.8,1.85,0.8c0.7,0,1.317-0.267,1.85-0.8c0.433-0.5,0.65-1.117,0.65-1.85s-0.217-1.333-0.65-1.8
		C91.317,35.633,90.7,35.35,90,35.35 M92.05,28.4l-0.25-0.25c-0.5-0.5-1.117-0.75-1.85-0.75c-0.7,0-1.317,0.25-1.85,0.75
		c-0.467,0.5-0.7,1.117-0.7,1.85s0.233,1.35,0.7,1.85c0.533,0.5,1.15,0.75,1.85,0.75c0.733,0,1.35-0.25,1.85-0.75l0.25-0.25L92.5,30
		C92.5,29.434,92.35,28.9,92.05,28.4 M88.15,20.15c-0.5,0.5-0.75,1.117-0.75,1.85c0,0.566,0.167,1.083,0.5,1.55l0.25,0.25
		c0.5,0.567,1.117,0.85,1.85,0.85c0.7,0,1.317-0.283,1.85-0.85c0.433-0.466,0.65-1.066,0.65-1.8s-0.217-1.35-0.65-1.85
		c-0.533-0.533-1.15-0.8-1.85-0.8C89.267,19.35,88.65,19.617,88.15,20.15 M119,30c0,8-2.833,14.833-8.5,20.5S98,59,90,59
		s-14.833-2.833-20.5-8.5S61,38,61,30s2.833-14.833,8.5-20.5S82,1,90,1s14.833,2.833,20.5,8.5S119,22,119,30 M96.2,80.5l-5.85,5.85
		l-0.55,3.9l3.9-0.6l5.8-5.8L96.2,80.5 M84.85,84.65h3.7l3.65-3.75H81.1v18h18V87.8l-3.75,3.65v3.7h-10.5V84.65 M99.1,77.65
		l-2.15,2.1l3.3,3.3l2.1-2.15L99.1,77.65 M110.5,69.5C116.167,75.167,119,82,119,90s-2.833,14.833-8.5,20.5S98,119,90,119
		s-14.833-2.833-20.5-8.5S61,98,61,90s2.833-14.833,8.5-20.5S82,61,90,61S104.833,63.833,110.5,69.5 M144.3,87.85
		c-0.433,0.333-0.667,0.7-0.7,1.1l-1.9,9.75h16.1c0.5,0,0.95-0.184,1.35-0.55l0.35-0.65l0.25-0.75l1.45-7.8
		c0.133-0.4,0.066-0.767-0.2-1.1l-0.15-0.1c-0.233-0.2-0.517-0.3-0.85-0.3h-14.65C144.95,87.45,144.6,87.583,144.3,87.85
		 M139.15,81.85c-0.367,0.4-0.55,0.85-0.55,1.35v12.4c0,0.6,0.183,1.083,0.55,1.45l0.65,0.4l2.05-10.25
		c0.066-0.434,0.267-0.784,0.6-1.05c0.367-0.367,0.75-0.55,1.15-0.55h14.2v-0.35c0-0.533-0.2-1-0.6-1.4
		c-0.4-0.367-0.85-0.55-1.35-0.55h-7.9l-0.4-0.15l-1.6-1.65l-0.6-0.2h-4.8C140.017,81.3,139.55,81.483,139.15,81.85 M59,30
		c0,8-2.833,14.833-8.5,20.5S38,59,30,59s-14.833-2.833-20.5-8.5S1,38,1,30S3.833,15.167,9.5,9.5S22,1,30,1s14.833,2.833,20.5,8.5
		S59,22,59,30 M31.25,20.35h-2.5c-0.6,0-0.9,0.3-0.9,0.9v6.6H21.3c-0.633,0-0.95,0.316-0.95,0.95v2.4c0,0.633,0.316,0.95,0.95,0.95
		h6.55v6.55c0,0.633,0.316,0.95,0.95,0.95h2.4c0.633,0,0.95-0.316,0.95-0.95v-6.55h6.6c0.567,0,0.867-0.3,0.9-0.9V28.7
		c-0.033-0.567-0.333-0.85-0.9-0.85h-6.6V21.2C32.15,20.633,31.85,20.35,31.25,20.35 M28.9,89.2c-0.667,0.633-1.433,0.95-2.3,0.95
		c0,0.867,0.333,1.617,1,2.25c0.633,0.633,1.367,0.95,2.2,0.95H30c0.833-0.034,1.55-0.35,2.15-0.95c0.633-0.633,0.95-1.4,0.95-2.3
		c0-0.867-0.317-1.617-0.95-2.25c-0.6-0.667-1.316-1-2.15-1h-0.15C29.85,87.75,29.533,88.533,28.9,89.2 M29.8,83.6H30
		c1.733,0.033,3.217,0.667,4.45,1.9c1.267,1.267,1.9,2.8,1.9,4.6c0,1.733-0.633,3.25-1.9,4.55c-1.233,1.233-2.717,1.85-4.45,1.85
		h-0.2c-1.733,0-3.216-0.617-4.45-1.85c-1.267-1.3-1.9-2.816-1.9-4.55l0.2-1.85c0.3-1.033,0.867-1.95,1.7-2.75
		c0.733-0.767,1.6-1.3,2.6-1.6L29.8,83.6 M16.95,90.1c0,0.4,0.133,0.8,0.4,1.2c2.133,3.467,4.667,5.85,7.6,7.15
		c1.566,0.667,3.25,1.066,5.05,1.2c1.8-0.133,3.483-0.533,5.05-1.2c2.934-1.3,5.483-3.684,7.65-7.15l0.35-1.2
		c0-0.534-0.117-0.983-0.35-1.35c-2.167-3.5-4.717-5.9-7.65-7.2c-1.566-0.667-3.25-1.066-5.05-1.2c-1.8,0.133-3.483,0.533-5.05,1.2
		c-2.934,1.3-5.467,3.7-7.6,7.2C17.083,89.117,16.95,89.566,16.95,90.1 M30,61c8,0,14.833,2.833,20.5,8.5S59,82,59,90
		s-2.833,14.833-8.5,20.5S38,119,30,119s-14.833-2.833-20.5-8.5S1,98,1,90s2.833-14.833,8.5-20.5S22,61,30,61 M34,144.85
		c-3.067,0-5.683,1.083-7.85,3.25l-0.65,0.65l-0.1,0.15l-0.2,0.25l-0.05,0.1l-0.15,0.1l-0.05,0.15l-0.2,0.2l-3.45-3.4v10.8h10.85
		l-3.7-3.65l0.15-0.35l0.05-0.2l0.2-0.4l0.2-0.5c0.4-0.867,0.95-1.65,1.65-2.35c1.8-1.767,3.933-2.65,6.4-2.65
		c2.1,0,3.917,0.617,5.45,1.85l-0.65-0.75C39.7,145.934,37.067,144.85,34,144.85 M30,121c8,0,14.833,2.833,20.5,8.5S59,142,59,150
		s-2.833,14.833-8.5,20.5S38,179,30,179s-14.833-2.833-20.5-8.5S1,158,1,150s2.833-14.833,8.5-20.5S22,121,30,121 M29.9,196.45
		l-4.55,0.6c-1.4,0.4-2.55,0.85-3.45,1.35v4.85c1.467-0.9,2.883-1.55,4.25-1.95l3.65-0.6c1.1,0,2,0.233,2.7,0.7
		c0.733,0.5,1.1,1.2,1.1,2.1c0,1.033-0.65,2-1.95,2.9l-2.4,1.4l-2.45,1.15v6.65h3.95v-4.25c2.667-0.967,4.7-2.184,6.1-3.65
		c1.367-1.434,2.05-2.85,2.05-4.25c0-1.034-0.2-1.983-0.6-2.85c-0.367-0.833-0.917-1.567-1.65-2.2
		C35.05,197.1,32.8,196.45,29.9,196.45 M30,181c8,0,14.833,2.833,20.5,8.5S59,202,59,210s-2.833,14.833-8.5,20.5S38,239,30,239
		s-14.833-2.833-20.5-8.5S1,218,1,210s2.833-14.833,8.5-20.5S22,181,30,181 M61,150c0-8,2.833-14.833,8.5-20.5S82,121,90,121
		s14.833,2.833,20.5,8.5S119,142,119,150s-2.833,14.833-8.5,20.5S98,179,90,179s-14.833-2.833-20.5-8.5S61,158,61,150 M106.7,193.3
		c-4.633-4.667-10.2-7-16.7-7c-6.567,0-12.167,2.333-16.8,7c-4.667,4.567-7,10.134-7,16.7s2.333,12.167,7,16.8
		c4.633,4.667,10.233,7,16.8,7c6.5,0,12.067-2.333,16.7-7c4.667-4.633,7-10.233,7-16.8S111.367,197.867,106.7,193.3 M90,181
		c7.933,0,14.733,2.833,20.4,8.5c5.733,5.733,8.6,12.566,8.6,20.5c0,8-2.867,14.833-8.6,20.5c-5.667,5.667-12.467,8.5-20.4,8.5
		c-8,0-14.833-2.833-20.5-8.5S61,218,61,210c0-7.934,2.833-14.767,8.5-20.5C75.167,183.833,82,181,90,181 M102.1,144l-3.7-3.65
		l-12,12.05l-4.85-4.75l-3.65,3.55l8.5,8.45L102.1,144 M150.25,137.9c-1.033,0.034-1.617,0.583-1.75,1.65v9.5l-1.7-7.9
		c-0.433-1.167-1.15-1.667-2.15-1.5c-0.833,0.2-1.2,0.95-1.1,2.25l1.7,10.45l-1.65-2.2c-0.733-1.1-1.517-1.5-2.35-1.2
		c-0.967,0.333-1.183,1.216-0.65,2.65l2.15,4.4c0.5,0.967,1.25,1.883,2.25,2.75c1.133,0.934,1.95,2.05,2.45,3.35h8.25
		c0-0.567,0.3-1.383,0.9-2.45c0.6-1.1,1.066-2.517,1.4-4.25c0.4-1.7,0.567-3.35,0.5-4.95l1.1-6c0.033-1-0.3-1.6-1-1.8
		c-0.8-0.1-1.35,0.317-1.65,1.25l-1.85,6.2l1.2-8.9c-0.1-0.8-0.533-1.317-1.3-1.55c-1.067-0.2-1.733,0.267-2,1.4l-1,7.85v-9.4
		C151.867,138.4,151.283,137.867,150.25,137.9 M94.95,196.95l1.6,1.75c0.6,0.566,0.6,1.183,0,1.85L87.2,210l9.35,9.4
		c0.667,0.7,0.7,1.367,0.1,2l-1.6,1.65c-0.667,0.634-1.35,0.634-2.05,0L80.05,210L93,196.95
		C93.633,196.316,94.283,196.316,94.95,196.95 M116.1,270h2.9c0,1.967-0.167,3.867-0.5,5.7l-2.85-0.601
		C115.95,273.467,116.1,271.768,116.1,270 M115.65,264.95c-0.3-1.733-0.783-3.384-1.45-4.95l2.6-1.1
		c0.767,1.731,1.317,3.55,1.65,5.449L115.65,264.95 M114.1,253.9l-2.35,1.6c-0.933-1.4-2.033-2.717-3.3-3.95l2-2
		C111.817,250.95,113.033,252.4,114.1,253.9 M95.1,244.4l-5.1-0.5V241l5.7,0.55L95.1,244.4 M100.05,245.85l1.05-2.648
		c1.767,0.699,3.45,1.615,5.05,2.75l-1.55,2.35C103.133,247.3,101.617,246.482,100.05,245.85 M84.35,241.55l0.6,2.851
		c-1.767,0.267-3.417,0.732-4.95,1.399l-1.1-2.649C80.633,242.416,82.45,241.883,84.35,241.55 M155.1,244.4l-5.1-0.5V241l5.7,0.55
		L155.1,244.4 M160.05,245.85l1.05-2.648c1.767,0.699,3.45,1.615,5.05,2.75l-1.55,2.35C163.133,247.3,161.617,246.482,160.05,245.85
		 M140,245.8l-1.1-2.649c1.733-0.733,3.55-1.268,5.45-1.601l0.6,2.851C143.183,244.666,141.533,245.133,140,245.8 M143.15,216.65
		c8.2-0.8,12.7-5.3,13.5-13.5c-0.8-8.167-5.3-12.6-13.5-13.3c-8.167,0.7-12.6,5.133-13.3,13.3
		C130.55,211.35,134.983,215.85,143.15,216.65 M142.9,181h0.5c13.434,1.3,20.75,8.6,21.95,21.9v0.35
		c-0.1,4.167-1.133,7.95-3.1,11.35l0.8,0.6l15.2,15.1c0.5,0.467,0.75,1.034,0.75,1.7c0,0.633-0.25,1.2-0.75,1.7l-4.55,4.55
		c-0.5,0.5-1.067,0.75-1.7,0.75c-0.667,0-1.233-0.25-1.7-0.75l-15.1-15.2l-0.45-0.8c-3.5,1.967-7.333,3-11.5,3.1h-0.35
		c-13.3-1.2-20.6-8.517-21.9-21.95v-0.5C122.3,189.6,129.6,182.3,142.9,181 M91.05,269.7c0.3-0.267,0.667-0.4,1.1-0.4
		c0.434,0,0.817,0.134,1.15,0.4c0.267,0.333,0.4,0.7,0.4,1.1c0,0.468-0.133,0.851-0.4,1.15l-1.15,0.45c-0.433,0-0.8-0.15-1.1-0.45
		c-0.267-0.3-0.4-0.685-0.4-1.15C90.65,270.4,90.783,270.033,91.05,269.7 M98.05,259.35v21.301H95.6V261.9H84.4v18.75h-2.45V259.35
		H98.05 M108.45,288.45l2,2l-0.05,0.05l-4.25,3.6l-1.6-2.35l3.85-3.3H108.45 M114.2,280l2.65,1.1c-0.733,1.769-1.65,3.435-2.75,5
		l-2.35-1.6C112.75,283.066,113.567,281.566,114.2,280 M95.1,295.65c1.733-0.301,3.383-0.783,4.95-1.45l1.05,2.649
		c-1.733,0.733-3.55,1.282-5.45,1.649L95.1,295.65 M84.95,295.65L90,296.1v2.9l-5.65-0.5L84.95,295.65 M150.8,269.2h4.8v-7.3h-4.8
		V269.2 M144.4,269.2h4.8v-7.3h-4.8V269.2 M144.4,270.8v7.3h4.8v-7.3H144.4 M150.8,270.8v7.3h4.8v-7.3H150.8 M124.4,264.95
		c-0.333,1.6-0.5,3.282-0.5,5.05H121c0-1.967,0.183-3.85,0.55-5.65L124.4,264.95 M141.95,259.35h16.1v21.301h-16.1V259.35
		 M129.5,249.5c1.4-1.367,2.867-2.566,4.4-3.6l1.55,2.35c-1.4,0.9-2.717,1.982-3.95,3.25L129.5,249.5 M125.8,260l-2.6-1.1
		c0.7-1.769,1.6-3.435,2.7-5l2.35,1.55C127.25,256.916,126.433,258.434,125.8,260 M123.15,281.15c-0.733-1.769-1.267-3.584-1.6-5.45
		l2.85-0.55c0.267,1.699,0.733,3.332,1.4,4.898L123.15,281.15 M26.6,269.85c-0.167-0.266-0.4-0.266-0.7,0l-5.3,6.95h18.9v-3
		l-5.45-7.2c-0.2-0.231-0.433-0.231-0.7,0l-4.3,5.7l-0.6-0.1L26.6,269.85 M26.75,265.35c0-0.565-0.2-1.082-0.6-1.55
		c-0.467-0.399-0.983-0.6-1.55-0.6c-0.633,0-1.15,0.2-1.55,0.6c-0.466,0.468-0.7,0.983-0.7,1.55c0,0.635,0.233,1.15,0.7,1.551
		c0.4,0.468,0.917,0.699,1.55,0.699c0.566,0,1.083-0.231,1.55-0.699C26.55,266.5,26.75,265.982,26.75,265.35 M28.75,217.95h-0.2
		c-0.8,0-1.517,0.283-2.15,0.85c-0.633,0.5-0.95,1.15-0.95,1.95c0,0.833,0.316,1.5,0.95,2c0.634,0.5,1.35,0.767,2.15,0.8h0.2
		c0.967,0,1.767-0.267,2.4-0.8c0.667-0.5,1-1.167,1-2c0-0.8-0.333-1.45-1-1.95C30.517,218.233,29.717,217.95,28.75,217.95
		 M155.1,295.65c1.733-0.301,3.383-0.783,4.95-1.45l1.05,2.649c-1.733,0.733-3.55,1.282-5.45,1.649L155.1,295.65 M144.95,295.65
		L150,296.1v2.9l-5.65-0.5L144.95,295.65 M138.9,296.85c-1.767-0.731-3.45-1.633-5.05-2.699l1.6-2.351
		c1.466,0.968,2.983,1.767,4.55,2.4L138.9,296.85 M131.5,288.45l0.05,0.05l-2.05,2c-1.367-1.4-2.567-2.85-3.6-4.35l2.35-1.602
		C129.183,285.95,130.267,287.25,131.5,288.45 M9.45,249.5c5.667-5.666,12.517-8.5,20.55-8.5c8,0,14.833,2.834,20.5,8.5
		S59,262,59,270c0,8.033-2.833,14.867-8.5,20.5C44.833,296.166,38,299,30,299c-8.033,0-14.883-2.834-20.55-8.5
		C3.817,284.867,1,278.033,1,270C1,262,3.817,255.166,9.45,249.5 M16.95,260.6v18.852c0,0.8,0.4,1.199,1.2,1.199H41.9
		c0.767,0,1.15-0.399,1.15-1.199V260.6c0-0.832-0.383-1.25-1.15-1.25H18.15C17.35,259.35,16.95,259.768,16.95,260.6 M19.35,261.8
		H40.7v16.45H19.35V261.8 M71.5,251.5l-2-2c1.4-1.367,2.867-2.566,4.4-3.6l1.55,2.35C74.05,249.15,72.733,250.232,71.5,251.5
		 M64.4,264.95c-0.333,1.6-0.5,3.282-0.5,5.05H61c0-1.967,0.183-3.85,0.55-5.65L64.4,264.95 M65.9,253.9l2.35,1.55
		c-1,1.466-1.817,2.983-2.45,4.55l-2.6-1.1C63.9,257.133,64.8,255.467,65.9,253.9 M61.55,275.7l2.85-0.55
		c0.267,1.699,0.733,3.332,1.4,4.898l-2.65,1.102C62.417,279.383,61.883,277.566,61.55,275.7 M75.45,291.8
		c1.466,0.968,2.983,1.767,4.55,2.4l-1.1,2.649c-1.767-0.732-3.45-1.634-5.05-2.699L75.45,291.8 M69.5,290.5
		c-1.367-1.4-2.567-2.85-3.6-4.35l2.35-1.602c0.933,1.4,2.017,2.7,3.25,3.9l0.05,0.05L69.5,290.5 M69.5,309.5
		C75.167,303.834,82,301,90,301s14.833,2.834,20.5,8.5S119,322,119,330s-2.833,14.834-8.5,20.5S98,359,90,359
		s-14.833-2.834-20.5-8.5S61,338,61,330S63.833,315.166,69.5,309.5 M16.45,388.3c0-0.899,0.45-1.35,1.35-1.35h24.45
		c0.833,0.032,1.267,0.433,1.3,1.2v3.648c-0.033,0.801-0.466,1.2-1.3,1.2H17.8c-0.9,0-1.35-0.435-1.35-1.3V388.3 M31.45,332.3
		c0.466,0.4,0.7,0.917,0.7,1.55c0,0.635-0.2,1.135-0.6,1.5c-0.466,0.467-1,0.7-1.6,0.7c-0.633,0-1.15-0.2-1.55-0.6
		c-0.433-0.435-0.65-0.968-0.65-1.601c0-0.634,0.217-1.149,0.65-1.551c0.4-0.433,0.917-0.648,1.55-0.648
		C30.55,331.65,31.05,331.867,31.45,332.3 M27.5,321.45c0.667-0.634,1.467-0.95,2.4-0.95c1,0,1.817,0.316,2.45,0.95
		c0.633,0.667,0.983,1.466,1.05,2.399v2.25h-6.95v-2.25C26.45,322.916,26.8,322.117,27.5,321.45 M29.95,318.4
		c-1.534,0.065-2.817,0.615-3.85,1.648c-1.067,1-1.617,2.301-1.65,3.9v2.148h-1.1c-0.6,0.066-1.117,0.283-1.55,0.65
		c-0.4,0.467-0.617,0.982-0.65,1.55V339.4c0.033,0.633,0.25,1.133,0.65,1.5c0.434,0.467,0.95,0.699,1.55,0.699h13.2
		c0.633,0,1.167-0.232,1.6-0.699c0.4-0.367,0.633-0.867,0.7-1.5V328.3c-0.067-0.565-0.3-1.083-0.7-1.55
		c-0.433-0.367-0.967-0.584-1.6-0.65H35.5v-2.148c-0.067-1.602-0.617-2.9-1.65-3.9C32.783,319.018,31.483,318.467,29.95,318.4
		 M55.05,315.4c2.567,4.365,3.883,9.231,3.95,14.6c-0.067,5.4-1.383,10.283-3.95,14.65c-2.6,4.332-6.066,7.8-10.4,10.398
		c-4.367,2.567-9.25,3.885-14.65,3.95c-5.367-0.065-10.233-1.383-14.6-3.95c-4.333-2.6-7.8-6.066-10.4-10.398
		c-2.567-4.367-3.9-9.25-4-14.65c0.1-5.367,1.433-10.232,4-14.6c2.6-4.334,6.067-7.801,10.4-10.4c4.367-2.566,9.233-3.9,14.6-4
		c5.4,0.1,10.283,1.434,14.65,4C48.983,307.6,52.45,311.066,55.05,315.4 M79.35,318.05V328.9H90.2l-3.7-3.7l0.15-0.3l0.05-0.2
		l0.2-0.4l0.2-0.55c0.433-0.834,1-1.6,1.7-2.3c1.767-1.767,3.883-2.65,6.35-2.65c2.1,0,3.934,0.601,5.5,1.8l-0.7-0.699
		c-2.2-2.199-4.817-3.301-7.85-3.301c-3.067,0-5.7,1.102-7.9,3.301l-0.65,0.649l-0.05,0.101l-0.2,0.25l-0.05,0.101l-0.15,0.149
		L83,321.3l-0.2,0.2L79.35,318.05 M79.35,339.4l0.7,0.699c2.2,2.199,4.817,3.301,7.85,3.301c3.067,0,5.7-1.102,7.9-3.301l0.65-0.649
		l0.05-0.101l0.2-0.25l0.05-0.101l0.15-0.149L97,338.7l0.2-0.2l3.45,3.45V331.1H89.8l3.7,3.7l-0.15,0.3l-0.05,0.2l-0.2,0.4
		l-0.2,0.55c-0.433,0.834-1,1.6-1.7,2.3c-1.767,1.767-3.883,2.65-6.35,2.65C82.75,341.2,80.917,340.6,79.35,339.4 M6.3,390
		c0,6.566,2.333,12.166,7,16.8c4.633,4.667,10.2,7,16.7,7c6.567,0,12.167-2.333,16.8-7c4.667-4.634,7-10.233,7-16.8
		s-2.333-12.133-7-16.7c-4.633-4.667-10.233-7-16.8-7c-6.5,0-12.067,2.333-16.7,7C8.633,377.867,6.3,383.434,6.3,390 M30,361
		c8,0,14.833,2.834,20.5,8.5c5.667,5.732,8.5,12.566,8.5,20.5c0,8-2.833,14.834-8.5,20.5S38,419,30,419
		c-7.933,0-14.733-2.834-20.4-8.5C3.867,404.834,1,398,1,390c0-7.934,2.867-14.768,8.6-20.5C15.267,363.834,22.067,361,30,361
		 M69.5,369.5C75.167,363.834,82,361,90,361s14.833,2.834,20.5,8.5S119,382,119,390s-2.833,14.834-8.5,20.5S98,419,90,419
		s-14.833-2.834-20.5-8.5S61,398,61,390S63.833,375.166,69.5,369.5 M142.05,321.3c-0.5,0-0.75,0.267-0.75,0.8V337.9
		c0,0.533,0.25,0.8,0.75,0.8h15.85c0.533,0,0.8-0.267,0.8-0.8V322.1c0-0.533-0.267-0.8-0.8-0.8H142.05 M150,301
		c8,0,14.833,2.834,20.5,8.5S179,322,179,330s-2.833,14.834-8.5,20.5S158,359,150,359s-14.833-2.834-20.5-8.5S121,338,121,330
		s2.833-14.834,8.5-20.5S142,301,150,301 M90,393.35c-0.4,0-0.733-0.148-1-0.449l-9.15-7.949v13h20.3v-13l-9.1,7.949
		C90.75,393.2,90.4,393.35,90,393.35 M90,390.45c0.4,0,0.75-0.134,1.05-0.4l9.1-7.95h-20.3l9.15,7.95
		C89.267,390.316,89.6,390.45,90,390.45 M140.35,391.2c0,0.634,0.316,0.95,0.95,0.95h17.45c0.567,0,0.867-0.301,0.9-0.9v-2.55
		c-0.033-0.567-0.333-0.851-0.9-0.851H141.3c-0.633,0-0.95,0.315-0.95,0.949V391.2 M150,361c8,0,14.833,2.834,20.5,8.5
		S179,382,179,390s-2.833,14.834-8.5,20.5S158,419,150,419s-14.833-2.834-20.5-8.5S121,398,121,390s2.833-14.834,8.5-20.5
		S142,361,150,361 M274,207.75c1.166,0,2.133-0.434,2.9-1.3c0.832-0.8,1.25-1.784,1.25-2.95c0-1.1-0.418-2.066-1.25-2.9
		c-0.769-0.833-1.734-1.25-2.9-1.25c-1.133,0-2.117,0.417-2.95,1.25c-0.8,0.833-1.2,1.8-1.2,2.9l0.2,1.35l-2.55,1.8
		c-0.732-0.533-1.566-0.8-2.5-0.8c-1.133,0-2.117,0.4-2.95,1.2c-0.8,0.8-1.2,1.784-1.2,2.95s0.4,2.15,1.2,2.95
		c0.833,0.8,1.817,1.2,2.95,1.2c0.934,0,1.75-0.267,2.45-0.8l2.6,1.85l-0.2,1.3c0,1.1,0.4,2.066,1.2,2.9
		c0.833,0.833,1.817,1.25,2.95,1.25c1.166,0,2.133-0.417,2.9-1.25c0.832-0.833,1.25-1.8,1.25-2.9c0-1.167-0.418-2.167-1.25-3
		c-0.769-0.833-1.734-1.25-2.9-1.25c-0.934,0-1.75,0.283-2.45,0.85l-2.55-1.85l0.2-1.25l-0.2-1.25l2.6-1.85
		C272.3,207.467,273.1,207.75,274,207.75 M249.2,272.4V267.6l-2.4,2.4L249.2,272.4 M272.4,290.8H267.6l2.4,2.4L272.4,290.8
		 M290.8,272.4l2.4-2.4l-2.4-2.4V272.4 M267.6,249.2h4.801l-2.399-2.4L267.6,249.2 M290.5,290.5c-5.666,5.666-12.5,8.5-20.5,8.5
		s-14.816-2.834-20.45-8.5c-5.7-5.666-8.55-12.5-8.55-20.5s2.85-14.816,8.55-20.45C255.184,243.85,262,241,270,241
		s14.834,2.85,20.5,8.55c5.666,5.634,8.5,12.45,8.5,20.45S296.166,284.834,290.5,290.5 M212.85,205.25l-4.7,4.75l4.7,4.7
		c0.333,0.333,0.35,0.667,0.05,1l-0.8,0.8c-0.333,0.333-0.684,0.333-1.05,0l-6.45-6.5l6.45-6.5c0.333-0.333,0.667-0.333,1,0
		l0.8,0.85C213.15,204.65,213.15,204.95,212.85,205.25 M222.5,243.75c2.867,1.4,5.533,3.316,8,5.75c5.667,5.666,8.5,12.5,8.5,20.5
		s-2.833,14.834-8.5,20.5S218,299,210,299s-14.833-2.834-20.5-8.5S181,278,181,270s2.833-14.834,8.5-20.5
		c2.467-2.434,5.133-4.35,8-5.75c3.8-1.834,7.967-2.75,12.5-2.75S218.7,241.916,222.5,243.75 M205,319.35c0.833,0,1.25,0.334,1.25,1
		v19.2c0,0.733-0.434,1.101-1.3,1.101h-3.35c-0.9,0-1.35-0.366-1.35-1.101v-19.2c0-0.666,0.433-1,1.3-1H205 M215.05,319.35h3.5
		c0.8,0,1.2,0.334,1.2,1v19.2c0,0.733-0.434,1.101-1.3,1.101h-3.35c-0.9,0-1.35-0.366-1.35-1.101v-19.2
		C213.75,319.684,214.184,319.35,215.05,319.35 M208.5,286.6c-0.434,0.4-0.65,0.9-0.65,1.5c0,0.635,0.216,1.15,0.65,1.551
		c0.4,0.435,0.9,0.649,1.5,0.649s1.1-0.216,1.5-0.649c0.434-0.399,0.65-0.916,0.65-1.551c0-0.6-0.216-1.1-0.65-1.5
		c-0.4-0.434-0.9-0.648-1.5-0.648S208.9,286.166,208.5,286.6 M208.5,250.35c-0.434,0.4-0.65,0.918-0.65,1.551
		c0,0.601,0.216,1.101,0.65,1.5c0.4,0.435,0.9,0.649,1.5,0.649s1.1-0.216,1.5-0.649c0.434-0.399,0.65-0.899,0.65-1.5
		c0-0.633-0.216-1.149-0.65-1.551c-0.4-0.434-0.9-0.648-1.5-0.648S208.9,249.916,208.5,250.35 M228.1,267.85
		c-0.6,0-1.1,0.217-1.5,0.65c-0.434,0.4-0.65,0.9-0.65,1.5s0.216,1.1,0.65,1.5c0.4,0.434,0.9,0.65,1.5,0.65
		c0.633,0,1.15-0.217,1.55-0.65c0.434-0.4,0.65-0.9,0.65-1.5s-0.216-1.1-0.65-1.5C229.25,268.066,228.733,267.85,228.1,267.85
		 M170.45,290.45l-0.05,0.05l-4.25,3.6l-1.6-2.35l3.85-3.3h0.05L170.45,290.45 M174.2,280l2.65,1.1c-0.733,1.769-1.65,3.435-2.75,5
		l-2.35-1.6C172.75,283.066,173.567,281.566,174.2,280 M176.1,270h2.9c0,1.967-0.167,3.867-0.5,5.7l-2.85-0.601
		C175.95,273.467,176.1,271.768,176.1,270 M175.65,264.95c-0.3-1.733-0.783-3.384-1.45-4.95l2.6-1.1
		c0.767,1.731,1.317,3.55,1.65,5.449L175.65,264.95 M171.75,255.5c-0.933-1.4-2.033-2.717-3.3-3.95l2-2
		c1.367,1.4,2.583,2.851,3.65,4.351L171.75,255.5 M191.9,267.85c-0.633,0-1.15,0.217-1.55,0.65c-0.434,0.4-0.65,0.9-0.65,1.5
		s0.216,1.1,0.65,1.5c0.4,0.434,0.917,0.65,1.55,0.65c0.6,0,1.1-0.217,1.5-0.65c0.434-0.4,0.65-0.9,0.65-1.5s-0.216-1.1-0.65-1.5
		C193,268.066,192.5,267.85,191.9,267.85 M210,224.5c4,0,7.417-1.417,10.25-4.25S224.5,214,224.5,210s-1.417-7.417-4.25-10.25
		S214,195.5,210,195.5s-7.417,1.417-10.25,4.25S195.5,206,195.5,210s1.417,7.417,4.25,10.25S206,224.5,210,224.5 M210,306.3
		c-6.5,0-12.067,2.333-16.7,7c-4.667,4.567-7,10.134-7,16.7s2.333,12.166,7,16.8c4.633,4.667,10.2,7,16.7,7
		c6.566,0,12.167-2.333,16.8-7c4.667-4.634,7-10.233,7-16.8s-2.333-12.133-7-16.7C222.167,308.633,216.566,306.3,210,306.3
		 M230.5,309.5c5.667,5.732,8.5,12.566,8.5,20.5c0,8-2.833,14.834-8.5,20.5S218,359,210,359c-7.933,0-14.733-2.834-20.4-8.5
		c-5.733-5.666-8.6-12.5-8.6-20.5c0-7.934,2.867-14.768,8.6-20.5c5.667-5.666,12.467-8.5,20.4-8.5
		C218,301,224.833,303.834,230.5,309.5 M189.5,369.5c5.667-5.666,12.5-8.5,20.5-8.5s14.833,2.834,20.5,8.5S239,382,239,390
		s-2.833,14.834-8.5,20.5S218,419,210,419s-14.833-2.834-20.5-8.5S181,398,181,390S183.833,375.166,189.5,369.5 M206.9,393.1
		l3.1,10.15l9.95-23.2l-23.2,9.95L206.9,393.1 M286.8,313.3c-4.634-4.667-10.233-7-16.8-7c-6.5,0-12.066,2.333-16.7,7
		c-4.667,4.567-7,10.134-7,16.7s2.333,12.166,7,16.8c4.634,4.667,10.2,7,16.7,7c6.566,0,12.166-2.333,16.8-7
		c4.667-4.634,7-10.233,7-16.8S291.467,317.867,286.8,313.3 M299,330c0,8-2.834,14.834-8.5,20.5S278,359,270,359
		c-7.934,0-14.732-2.834-20.4-8.5c-5.731-5.666-8.6-12.5-8.6-20.5c0-7.934,2.867-14.768,8.6-20.5c5.668-5.666,12.467-8.5,20.4-8.5
		c8,0,14.834,2.834,20.5,8.5C296.166,315.232,299,322.066,299,330 M270,379.9c-2.166,0-4.033,0.75-5.6,2.25
		c-1.533,1.6-2.301,3.481-2.301,5.648c0,1.934,0.633,3.635,1.899,5.102l0.7,0.699c2.898,3.166,4.667,6.949,5.3,11.351
		c0.633-4.4,2.399-8.185,5.3-11.351l0.7-0.699c1.267-1.467,1.899-3.168,1.899-5.102c0-2.167-0.782-4.05-2.351-5.648
		C274.018,380.65,272.166,379.9,270,379.9 M265.75,343.55v-27.1l13.4,13.55L265.75,343.55 M272.95,387.8
		c0,0.8-0.284,1.483-0.851,2.05c-0.601,0.566-1.301,0.852-2.101,0.852s-1.5-0.284-2.101-0.852c-0.565-0.565-0.851-1.25-0.851-2.05
		c0-0.833,0.284-1.532,0.851-2.1c0.601-0.567,1.301-0.851,2.101-0.851s1.5,0.282,2.101,0.851
		C272.666,386.268,272.95,386.967,272.95,387.8 M270,361c8,0,14.834,2.834,20.5,8.5S299,382,299,390s-2.834,14.834-8.5,20.5
		S278,419,270,419s-14.834-2.834-20.5-8.5S241,398,241,390s2.834-14.834,8.5-20.5S262,361,270,361 M30,421
		c8,0,14.833,2.833,20.5,8.5c5.667,5.733,8.5,12.566,8.5,20.5c0,8-2.833,14.833-8.5,20.5S38,479,30,479
		c-7.933,0-14.733-2.833-20.4-8.5C3.867,464.833,1,458,1,450c0-7.934,2.867-14.767,8.6-20.5C15.267,423.833,22.067,421,30,421
		 M13.3,433.3c-4.667,4.567-7,10.134-7,16.7s2.333,12.167,7,16.8c4.633,4.667,10.2,7,16.7,7c6.567,0,12.167-2.333,16.8-7
		c4.667-4.633,7-10.232,7-16.8s-2.333-12.133-7-16.7c-4.633-4.667-10.233-7-16.8-7C23.5,426.3,17.933,428.633,13.3,433.3"/>
</g>
</svg>
