<svg xmlns="http://www.w3.org/2000/svg" viewBox="0 0 289 143.615">
  <defs>
    <style>
      .cls-1, .cls-4, .cls-5 {
        fill: #fff;
      }

      .cls-2 {
        fill: #3cea3c;
      }

      .cls-3 {
        fill: #c5d7e2;
        font-size: 16px;
      }

      .cls-3, .cls-4, .cls-5 {
        font-family: HelveticaNeue-Light, Helvetica Neue;
        font-weight: 300;
      }

      .cls-4 {
        font-size: 50px;
      }

      .cls-5 {
        font-size: 21px;
      }
    </style>
  </defs>
  <g id="Group_1883" data-name="Group 1883" transform="translate(-35 -140.385)">
    <g id="Group_1818" data-name="Group 1818" transform="translate(35 140.385)">
      <g id="Cloud__x2B__Sun_1_">
        <g id="Group_1817" data-name="Group 1817">
          <path id="Path_344" data-name="Path 344" class="cls-1" d="M99.434,49.524C97.35,34.216,87.319,23.03,71.422,23.03c-13.315,0-20.675,7.835-25.2,20a22.5,22.5,0,0,0-5.072-.589c-11.889,0-21.535,10.122-21.535,21.716,0,11.1,9.307,19.9,20.743,20.562h57.02a18.3,18.3,0,0,0,18.139-18C115.489,57.767,108.492,50.476,99.434,49.524ZM97.35,79.574H40.308c-8.243-.476-15.557-7.36-15.557-15.421,0-8.447,7.722-15.987,16.35-15.987a16.125,16.125,0,0,1,5.91,1.132l3.125,1.245.838-3.17c2.921-11.119,8.7-19.2,20.426-19.2,13.791,0,21.762,10.87,22.373,24.343l.136,2.921,3.578-.249c6.658,0,12.794,5.05,12.794,11.549C110.3,73.234,104.008,79.574,97.35,79.574ZM41.667,19.112A22.819,22.819,0,0,1,53.895,22.69a22.223,22.223,0,0,1,5.027-2.808A28.2,28.2,0,0,0,13.474,41.961a27.674,27.674,0,0,0,2.446,11.368,23.362,23.362,0,0,1,3.487-5.888,22.983,22.983,0,0,1-.747-5.457A22.968,22.968,0,0,1,41.667,19.112Zm.2-10.462a29.443,29.443,0,0,1,4.257.34h.294L41.87,0,37.319,8.99h.294A29.443,29.443,0,0,1,41.87,8.65ZM9.081,46.445V46.15a26.284,26.284,0,0,1,0-8.424v-.294L0,41.938Zm5.276-23.12a28.4,28.4,0,0,1,2.763-3.216,28.625,28.625,0,0,1,3.261-2.74l.2-.2-9.624-3.17,3.193,9.556Z"/>
        </g>
      </g>
    </g>
    <g id="Group_1864" data-name="Group 1864" transform="translate(0 54)">
      <circle id="Ellipse_6" data-name="Ellipse 6" class="cls-2" cx="5.5" cy="5.5" r="5.5" transform="translate(173 157)"/>
      <text id="Beste_Bedingungen" data-name="Beste Bedingungen" class="cls-3" transform="translate(188 168)"><tspan x="0" y="0">Beste Bedingungen</tspan></text>
    </g>
    <text id="_31_C" data-name="31°C" class="cls-4" transform="translate(40 273)"><tspan x="0" y="0">31°C</tspan></text>
    <text id="trocken" class="cls-5" transform="translate(176 272)"><tspan x="0" y="0">trocken</tspan></text>
    <g id="Group_1832" data-name="Group 1832" transform="translate(6 27)">
      <text id="Vellmar" class="cls-5" transform="translate(185 224)"><tspan x="0" y="0">Vellmar</tspan></text>
      <g id="Group_1831" data-name="Group 1831" transform="translate(168 209.952)">
        <g id="Group_1830" data-name="Group 1830">
          <path id="Path_350" data-name="Path 350" class="cls-1" d="M5.846,0A5.854,5.854,0,0,0,0,5.846a5.754,5.754,0,0,0,.1,1.1c0,.021.015.086.04.2A5.757,5.757,0,0,0,.535,8.292a16.388,16.388,0,0,0,5.054,6.2.414.414,0,0,0,.52,0,16.419,16.419,0,0,0,5.054-6.2,5.693,5.693,0,0,0,.391-1.153c.024-.11.037-.174.04-.2a6.012,6.012,0,0,0,.1-1.1A5.863,5.863,0,0,0,5.846,0Zm4.929,6.8c0,.006,0,.012,0,.018s-.012.061-.028.131v.006a4.854,4.854,0,0,1-.339,1s0,.009-.006.012A15.294,15.294,0,0,1,5.846,13.64,15.294,15.294,0,0,1,1.293,7.965s0-.009-.006-.012a5.178,5.178,0,0,1-.339-1V6.95C.929,6.879.923,6.834.92,6.818s0-.012,0-.021a5.02,5.02,0,1,1,9.949-.954A4.978,4.978,0,0,1,10.775,6.8Z"/>
          <path id="Path_351" data-name="Path 351" class="cls-1" d="M73.512,71.9a3.712,3.712,0,1,0,3.712,3.712A3.718,3.718,0,0,0,73.512,71.9Zm0,6.6A2.886,2.886,0,1,1,76.4,75.612,2.89,2.89,0,0,1,73.512,78.5Z" transform="translate(-67.666 -69.702)"/>
        </g>
      </g>
    </g>
  </g>
</svg>
