<?xml version="1.0" encoding="utf-8"?>
<!-- Generator: Adobe Illustrator 22.1.0, SVG Export Plug-In . SVG Version: 6.00 Build 0)  -->
<svg version="1.1" id="Ebene_1" xmlns="http://www.w3.org/2000/svg" xmlns:xlink="http://www.w3.org/1999/xlink" x="0px" y="0px"
	 viewBox="0 0 29 35.5" style="enable-background:new 0 0 29 35.5;" xml:space="preserve">
<style type="text/css">
	.st0{fill:none;stroke:#FFFFFF;stroke-width:2;stroke-linecap:round;stroke-linejoin:round;stroke-miterlimit:10;}
	.st1{fill:#FFFFFF;}
</style>
<rect id="Rectangle_110" x="1" y="1" class="st0" width="27" height="33.5"/>
<line id="Line_62" class="st0" x1="8.3" y1="7.5" x2="21.2" y2="7.5"/>
<path id="Path_148" class="st1" d="M9.7,14.2c0-1-0.7-1.8-1.7-1.8c-1,0-1.8,0.7-1.8,1.7c0,1,0.7,1.8,1.7,1.8c0,0,0,0,0.1,0
	C8.9,15.8,9.7,15.1,9.7,14.2"/>
<path id="Path_149" class="st1" d="M16.5,14.2c0-1-0.7-1.8-1.7-1.8c-1,0-1.8,0.7-1.8,1.7c0,1,0.7,1.8,1.7,1.8c0,0,0,0,0.1,0
	C15.7,15.8,16.4,15.1,16.5,14.2"/>
<path id="Path_150" class="st1" d="M22.9,14.2c0-1-0.7-1.8-1.7-1.8c-1,0-1.8,0.7-1.8,1.7c0,1,0.7,1.8,1.7,1.8c0,0,0,0,0.1,0
	C22.1,15.8,22.9,15.1,22.9,14.2"/>
<path id="Path_151" class="st1" d="M9.7,20.5c0-1-0.7-1.8-1.7-1.8c-1,0-1.8,0.7-1.8,1.7c0,1,0.7,1.8,1.7,1.8c0,0,0,0,0.1,0
	C8.9,22.1,9.7,21.4,9.7,20.5"/>
<path id="Path_152" class="st1" d="M16.5,20.5c0-1-0.7-1.8-1.7-1.8c-1,0-1.8,0.7-1.8,1.7c0,1,0.7,1.8,1.7,1.8c0,0,0,0,0.1,0
	C15.7,22.1,16.4,21.4,16.5,20.5"/>
<path id="Path_153" class="st1" d="M22.9,20.5c0-1-0.7-1.8-1.7-1.8c-1,0-1.8,0.7-1.8,1.7c0,1,0.7,1.8,1.7,1.8c0,0,0,0,0.1,0
	C22.1,22.1,22.9,21.4,22.9,20.5"/>
<path id="Path_154" class="st1" d="M9.7,26.8c0-1-0.7-1.8-1.7-1.8c-1,0-1.8,0.7-1.8,1.7c0,1,0.7,1.8,1.7,1.8c0,0,0,0,0.1,0
	C8.9,28.4,9.7,27.7,9.7,26.8"/>
<path id="Path_155" class="st1" d="M16.5,26.8c0-1-0.7-1.8-1.7-1.8c-1,0-1.8,0.7-1.8,1.7c0,1,0.7,1.8,1.7,1.8c0,0,0,0,0.1,0
	C15.7,28.4,16.4,27.7,16.5,26.8"/>
<path id="Path_156" class="st1" d="M22.9,26.8c0-1-0.7-1.8-1.7-1.8c-1,0-1.8,0.7-1.8,1.7c0,1,0.7,1.8,1.7,1.8c0,0,0,0,0.1,0
	C22.1,28.4,22.9,27.7,22.9,26.8"/>
</svg>
