<?xml version="1.0" encoding="utf-8"?>
<!-- Generator: Adobe Illustrator 16.0.0, SVG Export Plug-In . SVG Version: 6.00 Build 0)  -->
<!DOCTYPE svg PUBLIC "-//W3C//DTD SVG 1.1//EN" "http://www.w3.org/Graphics/SVG/1.1/DTD/svg11.dtd">
<svg version="1.1" id="Layer_1" xmlns="http://www.w3.org/2000/svg" xmlns:xlink="http://www.w3.org/1999/xlink" x="0px" y="0px"
	 width="31.26px" height="25.37px" viewBox="0 0 31.26 25.37" enable-background="new 0 0 31.26 25.37" xml:space="preserve">
<g>
	<g>
		<path fill="#005596" d="M0,7.764v13.793c0,2.105,1.71,3.814,3.815,3.814h23.629c2.105,0,3.815-1.709,3.815-3.814V7.764
			c0-2.003-1.627-3.63-3.63-3.63h-5.078l-0.121-0.529C21.939,1.48,20.069,0,17.888,0h-4.522C11.19,0,9.32,1.48,8.823,3.604
			L8.702,4.134H3.63C1.627,4.134,0,5.767,0,7.764z M9.327,5.697c0.363,0,0.676-0.249,0.759-0.606l0.262-1.136
			c0.332-1.41,1.569-2.392,3.018-2.392h4.522c1.449,0,2.687,0.982,3.018,2.392l0.262,1.136c0.083,0.351,0.396,0.606,0.76,0.606
			h5.697c1.141,0,2.066,0.925,2.066,2.067v13.793c0,1.244-1.008,2.252-2.252,2.252H3.815c-1.244,0-2.252-1.008-2.252-2.252V7.764
			c0-1.142,0.925-2.067,2.067-2.067H9.327z"/>
		<circle fill="#005596" cx="5.289" cy="9.033" r="1.046"/>
		<path fill="#005596" d="M15.63,21.358c3.617,0,6.564-2.947,6.564-6.564s-2.947-6.564-6.564-6.564s-6.564,2.941-6.564,6.564
			C9.065,18.418,12.013,21.358,15.63,21.358z M15.63,9.792c2.756,0,5.002,2.246,5.002,5.001s-2.246,5.001-5.002,5.001
			s-5.001-2.245-5.001-5.001S12.874,9.792,15.63,9.792z"/>
	</g>
</g>
</svg>
