<?xml version="1.0" encoding="utf-8"?>
<!-- Generator: Adobe Illustrator 22.1.0, SVG Export Plug-In . SVG Version: 6.00 Build 0)  -->
<svg version="1.1" id="Group_1752" xmlns="http://www.w3.org/2000/svg" xmlns:xlink="http://www.w3.org/1999/xlink" x="0px" y="0px"
	 viewBox="0 0 68.3 30.8" style="enable-background:new 0 0 68.3 30.8;" xml:space="preserve">
<style type="text/css">
	.st0{fill:#FFFFFF;}
</style>
<path id="Path_158" class="st0" d="M5.6,0h-5C0.2,0,0,0.3,0,0.7v28c0,0.4,0.2,0.7,0.6,0.7h1.1c0.4,0,0.6-0.3,0.6-0.7V10.3
	c0-0.2,0.1-0.3,0.3-0.3l0,0h26.1c0.1,0,0.2,0.1,0.3,0.2l3.1,5.2c0.2,0.3,0.1,0.7-0.2,0.9l-4.5,2.9c-0.3,0.2-0.3,0.5-0.2,0.8
	c0,0,0,0,0,0.1l8.4,10.6c0.2,0.3,0.4,0.2,0.5-0.2l0.7-7.1c0.1-0.4,0.3-0.8,0.6-1l5.7-3.3c0.3-0.2,0.5-0.6,0.3-1L40.9,10H66v18.8
	c0,0.4,0.2,0.7,0.6,0.7h1.1c0.4,0,0.6-0.3,0.6-0.7V0.7C68.3,0.3,68,0,67.7,0h-0.4 M45.3,0c-0.4,0-0.8,0.2-1,0.5l-5.8,7.6
	c-0.2,0.3-0.3,0.8-0.2,1.2l2.4,7.5c0.1,0.4,0,0.8-0.3,1l-5,2.8c-0.3,0.2-0.6,0.6-0.6,1l-0.3,2.8c0,0.4-0.3,0.5-0.5,0.2l-3.1-3.9
	c-0.2-0.2-0.2-0.6,0.1-0.8c0,0,0,0,0.1,0l4.1-2.7c0.3-0.2,0.4-0.6,0.2-0.9L31,8.9c-0.2-0.4-0.4-0.8-0.5-1.3l-1.2-7
	C29.3,0.3,29,0,28.6,0h-0.9 M17.6,0h-2.3 M12.9,0H8.1 M24.8,0h-4.4 M2.3,3.4c0-0.4,0.2-0.7,0.6-0.7h23.9c0.4,0,0.7,0.3,0.7,0.7
	l0.7,4.2c0,0,0,0.3-0.4,0.3H2.7c-0.2,0-0.4-0.1-0.4-0.3V7.5V3.4z M57.4,0H55 M41.7,7.9l3.6-4.7c0.3-0.3,0.6-0.5,1-0.5h19.1
	C65.8,2.7,66,3,66,3.4v4.5H41.7z M64.7,0h-4.8 M52.5,0h-4.8"/>
<path id="Path_159" class="st0" d="M7.1,12.9c-1.5,0.2-2.6,1.7-2.3,3.2c0.2,1.2,1.1,2.2,2.3,2.3c1.5-0.2,2.6-1.7,2.4-3.2
	C9.3,14,8.3,13.1,7.1,12.9z"/>
<path id="Path_160" class="st0" d="M16,11.2c-1.5-0.2-3,0.8-3.2,2.3s0.8,3,2.3,3.2s3-0.8,3.2-2.3c0-0.1,0-0.3,0-0.4
	C18.5,12.5,17.5,11.3,16,11.2z"/>
<path id="Path_161" class="st0" d="M21.9,15.3c-1.5-0.2-3,0.8-3.2,2.3s0.8,3,2.3,3.2s3-0.8,3.2-2.3c0-0.1,0-0.3,0-0.4
	C24.4,16.7,23.3,15.4,21.9,15.3z"/>
</svg>
