<svg xmlns="http://www.w3.org/2000/svg" viewBox="0 0 51.702 38.13">
  <defs>
    <style>
      .cls-1 {
        fill: #005092;
      }
    </style>
  </defs>
  <g id="Group_1911" data-name="Group 1911" transform="translate(0 -0.009)">
    <path id="Path_404" data-name="Path 404" class="cls-1" d="M45.4,20.184C41.656,15.627,34.6,10.2,22.17,9.738V1.3a1.291,1.291,0,0,0-2.112-1L.476,16.445a1.286,1.286,0,0,0-.013,1.987l19.582,16.21a1.291,1.291,0,0,0,2.112-1V25.23c8.122.033,20.534.634,27.12,12.253a1.3,1.3,0,0,0,2.425-.634A27.507,27.507,0,0,0,45.4,20.184ZM20.872,22.638h0a1.3,1.3,0,0,0-1.3,1.3v6.945L3.343,17.447,19.582,4.05v6.945a1.3,1.3,0,0,0,1.281,1.3c18.61.179,25.546,11.523,27.566,19.5C40.412,22.651,28.409,22.638,20.872,22.638Z" transform="translate(0 0)"/>
  </g>
</svg>
