<svg id="Group_1908" data-name="Group 1908" xmlns="http://www.w3.org/2000/svg" viewBox="0 0 37.664 34.905">
  <defs>
    <style>
      .cls-1 {
        fill: #005092;
      }
    </style>
  </defs>
  <path id="Path_405" data-name="Path 405" class="cls-1" d="M36.583,45.972A1.073,1.073,0,0,0,35.5,47.05v9.813A4.843,4.843,0,0,1,30.669,61.7H6.995A4.843,4.843,0,0,1,2.16,56.863V46.888A1.073,1.073,0,0,0,1.082,45.81,1.073,1.073,0,0,0,0,46.888v9.975a7,7,0,0,0,6.995,6.995H30.669a7,7,0,0,0,6.995-6.995V47.05a1.083,1.083,0,0,0-1.082-1.078Zm0,0" transform="translate(0 -28.954)"/>
  <path id="Path_406" data-name="Path 406" class="cls-1" d="M36.771,26.335a1.084,1.084,0,0,0,.758.32,1.042,1.042,0,0,0,.758-.32l6.859-6.859a1.08,1.08,0,1,0-1.527-1.527l-5.008,5.023V1.078a1.078,1.078,0,0,0-2.156,0V22.972l-5.023-5.019A1.08,1.08,0,1,0,29.9,19.48Zm0,0" transform="translate(-18.701)"/>
</svg>
