<svg xmlns="http://www.w3.org/2000/svg" viewBox="0 0 45.109 43.823">
  <defs>
    <style>
      .cls-1 {
        fill: #c5d7e2;
      }
    </style>
  </defs>
  <path id="Path_265" data-name="Path 265" class="cls-1" d="M34.183,22.933A1.224,1.224,0,1,0,32.452,21.2L23.8,29.856V1.19a1.19,1.19,0,0,0-2.38,0V29.856L12.765,21.2a1.316,1.316,0,0,0-1.731,0,1.314,1.314,0,0,0,0,1.731L21.851,33.75a1.314,1.314,0,0,0,1.731,0Zm8.546,7.9a1.19,1.19,0,1,1,2.38,0V42.621a1.2,1.2,0,0,1-1.19,1.19H1.19A1.135,1.135,0,0,1,0,42.621V30.83a1.2,1.2,0,0,1,1.19-1.19,1.2,1.2,0,0,1,1.19,1.19v10.6H42.621V30.83Z" transform="translate(0 0)"/>
</svg>
