<svg xmlns="http://www.w3.org/2000/svg" viewBox="0 0 53.75 38.436">
  <defs>
    <style>
      .cls-1 {
        fill: #c5d7e2;
        stroke: #c5d7e2;
      }
    </style>
  </defs>
  <g id="Group_1767" data-name="Group 1767" transform="translate(0.5 0.5)">
    <g id="Group_1766" data-name="Group 1766" transform="translate(9.104 17.952)">
      <path id="Path_266" data-name="Path 266" class="cls-1" d="M29.485,21.455a.625.625,0,0,1-.51-.17L19.105,12.1A.842.842,0,1,1,20.3,10.905l9.869,9.189a.822.822,0,0,1,0,1.191A1.023,1.023,0,0,1,29.485,21.455Z" transform="translate(4.122 -10.48)"/>
      <path id="Path_267" data-name="Path 267" class="cls-1" d="M6.286,21.525a1.29,1.29,0,0,1-.681-.34.822.822,0,0,1,0-1.191l9.869-9.189A.842.842,0,0,1,16.666,12L6.8,21.185C6.626,21.525,6.456,21.525,6.286,21.525Z" transform="translate(-5.35 -10.55)"/>
    </g>
    <path id="Path_268" data-name="Path 268" class="cls-1" d="M48.5,37.436H4.254A4.213,4.213,0,0,1,0,33.182V4.254A4.213,4.213,0,0,1,4.254,0H48.5A4.213,4.213,0,0,1,52.75,4.254V33.182A4.213,4.213,0,0,1,48.5,37.436ZM4.254,1.7A2.617,2.617,0,0,0,1.7,4.254V33.182a2.506,2.506,0,0,0,2.552,2.552H48.5a2.617,2.617,0,0,0,2.552-2.552V4.254A2.617,2.617,0,0,0,48.5,1.7Z"/>
    <path id="Path_269" data-name="Path 269" class="cls-1" d="M25.919,22.446a4.1,4.1,0,0,1-3.063-1.191L.905,2.367a.822.822,0,0,1,0-1.191.822.822,0,0,1,1.191,0L23.877,20.234a3.1,3.1,0,0,0,4.084,0L49.742,1.005a.822.822,0,0,1,1.191,0,.822.822,0,0,1,0,1.191L28.982,21.425A4.751,4.751,0,0,1,25.919,22.446Z" transform="translate(0.456 0.526)"/>
  </g>
</svg>
