<svg xmlns="http://www.w3.org/2000/svg" viewBox="0 0 33.104 35.169">
  <defs>
    <style>
      .cls-1 {
        fill: none;
        stroke-width: 2px;
      }

      .cls-1, .cls-2 {
        stroke: #c5d7e2;
        stroke-linecap: round;
        stroke-linejoin: round;
        stroke-miterlimit: 10;
      }

      .cls-2 {
        fill: #c5d7e2;
      }
    </style>
  </defs>
  <g id="Group_1889" data-name="Group 1889" transform="translate(1 1)">
    <path id="Path_384" data-name="Path 384" class="cls-1" d="M6.225,28.034a15.529,15.529,0,1,1,5.952,4.706" transform="translate(-3 -3)"/>
    <path id="Path_385" data-name="Path 385" class="cls-1" d="M8.286,85.32,6.15,93.153l7.934-3.493" transform="translate(-5.181 -59.984)"/>
    <g id="Group_1888" data-name="Group 1888" transform="translate(10.723 6.962)">
      <path id="Path_386" data-name="Path 386" class="cls-2" d="M43.084,37.882H41.459V36.487a4.182,4.182,0,0,1,.151-1.173,3.636,3.636,0,0,1,.419-.942,4.535,4.535,0,0,1,.6-.754c.225-.225.452-.443.686-.662l.649-.582a4.282,4.282,0,0,0,.963-1.068,3.1,3.1,0,0,0,.154-2.668,2.464,2.464,0,0,0-.628-.859,2.867,2.867,0,0,0-.917-.536,3.352,3.352,0,0,0-1.126-.185,2.765,2.765,0,0,0-2.031.766,3.377,3.377,0,0,0-.963,1.951L37.84,29.5a4.715,4.715,0,0,1,1.591-2.844,4.613,4.613,0,0,1,3.053-1.034,5.657,5.657,0,0,1,1.754.268,4.062,4.062,0,0,1,1.428.791,3.825,3.825,0,0,1,.963,1.29,4.053,4.053,0,0,1,.36,1.742,4.663,4.663,0,0,1-.163,1.3,3.6,3.6,0,0,1-.452,1,4.142,4.142,0,0,1-.686.8c-.265.24-.542.483-.837.732-.326.265-.6.5-.825.72a3.176,3.176,0,0,0-.545.686,2.711,2.711,0,0,0-.3.8,5.3,5.3,0,0,0-.092,1.068Zm.6,3.342a1.263,1.263,0,0,1-.348.871,1.168,1.168,0,0,1-.9.385,1.153,1.153,0,0,1-.9-.385,1.265,1.265,0,0,1,0-1.742,1.264,1.264,0,0,1,1.81,0A1.269,1.269,0,0,1,43.688,41.224Z" transform="translate(-37.84 -25.62)"/>
    </g>
  </g>
</svg>
