<?xml version="1.0" encoding="utf-8"?>
<!-- Generator: Adobe Illustrator 16.0.0, SVG Export Plug-In . SVG Version: 6.00 Build 0)  -->
<!DOCTYPE svg PUBLIC "-//W3C//DTD SVG 1.1//EN" "http://www.w3.org/Graphics/SVG/1.1/DTD/svg11.dtd">
<svg version="1.1" id="Layer_1" xmlns="http://www.w3.org/2000/svg" xmlns:xlink="http://www.w3.org/1999/xlink" x="0px" y="0px"
	 width="300px" height="190px" viewBox="0 0 300 190" enable-background="new 0 0 300 190" xml:space="preserve">
<g>
	<path fill="#FFFFFF" d="M5.9,102.975h2.15c-1.067,1.268-1.601,3.051-1.601,5.35v62.301c0,4.967,2.483,7.449,7.45,7.449h62.3
		c4.967,0,7.45-2.482,7.45-7.449v-62.301c0-2.299-0.533-4.082-1.6-5.35H84.2c3.567,0,5.351,1.783,5.351,5.35v75.65
		c0,1-0.167,1.883-0.5,2.65l-0.601,1.049c-0.866,1.068-2.283,1.602-4.25,1.602H5.9c-1.6,0-2.833-0.352-3.7-1.051l-0.55-0.551
		c-0.7-0.898-1.05-2.133-1.05-3.699v-75.65C0.6,104.758,2.367,102.975,5.9,102.975 M13.65,105.125H76.5
		c1.933,0.1,2.899,1.166,2.899,3.199v62.301c0,2.133-1.066,3.199-3.2,3.199H13.9c-2.133,0-3.2-1.066-3.2-3.199v-62.301
		C10.7,106.291,11.683,105.225,13.65,105.125 M111.35,6.074v62.3c0,4.966,2.5,7.45,7.5,7.45h62.3c4.967,0,7.449-2.483,7.449-7.45
		v-62.3c0-2.3-0.533-4.083-1.6-5.35h2.1c3.566,0,5.35,1.783,5.35,5.35v75.6c0,1.034-0.148,1.934-0.449,2.7l-0.6,1
		c-0.867,1.1-2.301,1.65-4.301,1.65h-78.25c-1.634,0-2.884-0.35-3.75-1.05l-0.55-0.6c-0.7-0.867-1.05-2.1-1.05-3.7v-75.6
		c0-3.566,1.783-5.35,5.35-5.35H113C111.9,1.991,111.35,3.774,111.35,6.074 M184.35,6.074v62.3c0,2.133-1.066,3.2-3.199,3.2h-62.3
		c-2.134,0-3.2-1.066-3.2-3.2v-62.3c0-2.033,0.983-3.1,2.95-3.2h62.849C183.383,2.975,184.35,4.041,184.35,6.074 M189.1,102.975
		c3.566,0,5.35,1.783,5.35,5.35v75.65c0,1-0.148,1.883-0.449,2.65l-0.6,1.049c-0.867,1.068-2.301,1.602-4.301,1.602h-78.25
		c-1.634,0-2.884-0.352-3.75-1.051l-0.55-0.551c-0.7-0.898-1.05-2.133-1.05-3.699v-75.65c0-3.566,1.783-5.35,5.35-5.35H113
		c-1.101,1.268-1.65,3.051-1.65,5.35v62.301c0,4.967,2.5,7.449,7.5,7.449h62.3c4.967,0,7.449-2.482,7.449-7.449v-62.301
		c0-2.299-0.533-4.082-1.6-5.35H189.1 M152.051,124.525h-4.101v21.75h-4l6,11.549l6-11.549h-3.898V124.525 M143.95,33.875h3.9v21.75
		h4.099v-21.75h4l-6-11.55L143.95,33.875 M184.35,108.324v62.301c0,2.133-1.066,3.199-3.199,3.199h-62.3
		c-2.134,0-3.2-1.066-3.2-3.199v-62.301c0-2.033,0.983-3.1,2.95-3.199h62.849C183.383,105.225,184.35,106.291,184.35,108.324
		 M39.9,139.074v-3.9l-11.55,6l11.55,6v-4h21.75v-4.1H39.9 M299.4,108.324v75.65c0,1-0.15,1.883-0.451,2.65l-0.648,1.049
		c-0.867,1.068-2.283,1.602-4.25,1.602H215.75c-1.6,0-2.834-0.352-3.699-1.051l-0.551-0.551c-0.699-0.898-1.051-2.133-1.051-3.699
		v-75.65c0-3.566,1.768-5.35,5.301-5.35h2.15c-1.066,1.268-1.6,3.051-1.6,5.35v62.301c0,4.967,2.482,7.449,7.449,7.449h62.301
		c4.967,0,7.449-2.482,7.449-7.449v-62.301c0-2.299-0.533-4.082-1.6-5.35h2.15C297.617,102.975,299.4,104.758,299.4,108.324
		 M289.25,108.324v62.301c0,2.133-1.066,3.199-3.199,3.199H223.75c-2.133,0-3.199-1.066-3.199-3.199v-62.301
		c0-2.033,0.982-3.1,2.949-3.199h62.85C288.283,105.225,289.25,106.291,289.25,108.324 M259.949,139.074h-21.75v4.1h21.75v4
		l11.551-6l-11.551-6V139.074"/>
</g>
</svg>
