<?xml version="1.0" encoding="utf-8"?>
<!-- Generator: Adobe Illustrator 16.0.0, SVG Export Plug-In . SVG Version: 6.00 Build 0)  -->
<!DOCTYPE svg PUBLIC "-//W3C//DTD SVG 1.1//EN" "http://www.w3.org/Graphics/SVG/1.1/DTD/svg11.dtd">
<svg version="1.1" id="Layer_1" xmlns="http://www.w3.org/2000/svg" xmlns:xlink="http://www.w3.org/1999/xlink" x="0px" y="0px"
	 width="300px" height="190px" viewBox="0 0 300 190" enable-background="new 0 0 300 190" xml:space="preserve">
<g>
	<path fill="#FFFFFF" d="M110.85,0.725H113c-1.1,1.267-1.65,3.05-1.65,5.35v62.3c0,4.966,2.5,7.45,7.5,7.45h62.3
		c4.967,0,7.45-2.483,7.45-7.45v-62.3c0-2.3-0.533-4.083-1.6-5.35h2.1c3.567,0,5.351,1.783,5.351,5.35v75.6
		c0,1.034-0.15,1.934-0.45,2.7l-0.601,1c-0.866,1.1-2.3,1.65-4.3,1.65h-78.25c-1.633,0-2.883-0.35-3.75-1.05l-0.55-0.6
		c-0.7-0.867-1.05-2.1-1.05-3.7v-75.6C105.5,2.508,107.283,0.725,110.85,0.725 M118.6,2.875h62.851c1.934,0.1,2.899,1.167,2.899,3.2
		v62.3c0,2.133-1.066,3.2-3.2,3.2h-62.3c-2.133,0-3.199-1.066-3.199-3.2v-62.3C115.65,4.041,116.634,2.975,118.6,2.875
		 M134.95,28.424l5.45,22.9h5.05l4.5-17.1l4.6,17.1h4.9l5.55-22.9h-4.65l-3.5,16l-4.05-16h-5.5l-4.149,15.75l-3.45-15.75H134.95
		 M184.35,108.324v62.301c0,2.133-1.066,3.199-3.2,3.199h-62.3c-2.133,0-3.199-1.066-3.199-3.199v-62.301
		c0-2.033,0.983-3.1,2.949-3.199h62.851C183.384,105.225,184.35,106.291,184.35,108.324 M189.1,102.975
		c3.567,0,5.351,1.783,5.351,5.35v75.65c0,1-0.15,1.883-0.45,2.65l-0.601,1.049c-0.866,1.068-2.3,1.602-4.3,1.602h-78.25
		c-1.633,0-2.883-0.352-3.75-1.051l-0.55-0.551c-0.7-0.898-1.05-2.133-1.05-3.699v-75.65c0-3.566,1.783-5.35,5.35-5.35H113
		c-1.1,1.268-1.65,3.051-1.65,5.35v62.301c0,4.967,2.5,7.449,7.5,7.449h62.3c4.967,0,7.45-2.482,7.45-7.449v-62.301
		c0-2.299-0.533-4.082-1.6-5.35H189.1 M216.3,108.324v62.301c0,4.967,2.483,7.449,7.45,7.449h62.3c4.967,0,7.45-2.482,7.45-7.449
		v-62.301c0-2.299-0.534-4.082-1.601-5.35h2.15c3.566,0,5.35,1.783,5.35,5.35v75.65c0,1-0.149,1.883-0.449,2.65l-0.65,1.049
		c-0.867,1.068-2.283,1.602-4.25,1.602h-78.3c-1.601,0-2.833-0.352-3.7-1.051l-0.55-0.551c-0.7-0.898-1.05-2.133-1.05-3.699v-75.65
		c0-3.566,1.766-5.35,5.3-5.35h2.149C216.833,104.242,216.3,106.025,216.3,108.324 M223.5,105.125h62.85
		c1.934,0.1,2.9,1.166,2.9,3.199v62.301c0,2.133-1.067,3.199-3.2,3.199h-62.3c-2.134,0-3.2-1.066-3.2-3.199v-62.301
		C220.55,106.291,221.533,105.225,223.5,105.125 M89.55,108.324v75.65c0,1-0.166,1.883-0.5,2.65c-0.133,0.4-0.333,0.75-0.6,1.049
		c-0.867,1.068-2.283,1.602-4.25,1.602H5.9c-1.601,0-2.834-0.352-3.7-1.051l-0.55-0.551c-0.7-0.898-1.051-2.133-1.051-3.699v-75.65
		c0-3.566,1.768-5.35,5.301-5.35H8.05c-1.066,1.268-1.6,3.051-1.6,5.35v62.301c0,4.967,2.483,7.449,7.45,7.449h62.3
		c4.967,0,7.45-2.482,7.45-7.449v-62.301c0-2.299-0.533-4.082-1.601-5.35h2.15C87.767,102.975,89.55,104.758,89.55,108.324
		 M156.149,132.174c-1.467-1.232-3.633-1.85-6.499-1.85c-1.767,0-3.267,0.25-4.5,0.75c-1.267,0.533-2.217,1.316-2.851,2.35
		c-0.666,1-1,2.084-1,3.25c0,1.834,0.7,3.367,2.101,4.602c1,0.898,2.733,1.666,5.199,2.299l3.7,1c0.8,0.268,1.35,0.6,1.65,1
		c0.333,0.367,0.5,0.816,0.5,1.35c0,0.834-0.384,1.568-1.15,2.201c-0.733,0.633-1.85,0.949-3.35,0.949
		c-1.4,0-2.517-0.35-3.351-1.049c-0.833-0.701-1.383-1.816-1.649-3.352l-4.5,0.451c0.3,2.566,1.233,4.516,2.8,5.85
		c1.533,1.334,3.75,2,6.65,2c1.999,0,3.666-0.266,4.999-0.801c1.301-0.566,2.316-1.432,3.051-2.6c0.732-1.133,1.1-2.35,1.1-3.65
		c0-1.465-0.3-2.682-0.9-3.648c-0.6-1-1.434-1.783-2.5-2.352c-1.1-0.566-2.766-1.115-5-1.648c-2.266-0.533-3.683-1.033-4.249-1.5
		c-0.467-0.4-0.7-0.867-0.7-1.4c0-0.6,0.25-1.066,0.75-1.4c0.733-0.566,1.783-0.85,3.149-0.85c1.3,0,2.267,0.266,2.9,0.799
		c0.667,0.5,1.1,1.334,1.3,2.5l4.6-0.199C158.333,135.125,157.583,133.441,156.149,132.174 M245.6,153.574h8.7l4.1-0.5
		c1.367-0.434,2.45-1.033,3.25-1.799c1.066-1.033,1.884-2.385,2.45-4.051c0.467-1.367,0.7-2.982,0.7-4.85
		c0-2.166-0.25-3.967-0.75-5.4c-0.5-1.467-1.233-2.717-2.2-3.75c-0.966-1-2.116-1.699-3.45-2.1l-4.35-0.451h-8.45V153.574
		 M259.55,138.074c0.3,0.934,0.45,2.283,0.45,4.051c0,1.799-0.15,3.199-0.45,4.199c-0.3,1.033-0.7,1.768-1.2,2.201
		c-0.5,0.467-1.134,0.799-1.899,1l-2.75,0.199h-3.45v-15.15h2.05l3.8,0.201c0.866,0.199,1.583,0.566,2.15,1.1
		C258.816,136.408,259.25,137.141,259.55,138.074 M13.65,105.125H76.5c1.934,0.1,2.9,1.166,2.9,3.199v62.301
		c0,2.133-1.067,3.199-3.2,3.199H13.9c-2.134,0-3.2-1.066-3.2-3.199v-62.301C10.7,106.291,11.684,105.225,13.65,105.125
		 M47.85,130.674H42.95l-8.9,22.9h4.9l1.899-5.199H50l2,5.199h5L47.85,130.674 M48.5,144.525h-6.25l3.1-8.5L48.5,144.525"/>
</g>
</svg>
