<?xml version="1.0" encoding="utf-8"?>
<!-- Generator: Adobe Illustrator 22.1.0, SVG Export Plug-In . SVG Version: 6.00 Build 0)  -->
<svg version="1.1" id="Ebene_1" xmlns="http://www.w3.org/2000/svg" xmlns:xlink="http://www.w3.org/1999/xlink" x="0px" y="0px"
	 viewBox="0 0 34.4 31.5" style="enable-background:new 0 0 34.4 31.5;" xml:space="preserve">
<style type="text/css">
	.st0{fill:#FFFFFF;}
</style>
<path id="Path_345" class="st0" d="M24.7,26.3L22.5,18l7.6-0.4l2.8,9.5L24.7,26.3z M4.4,21.1l8-0.2l0.7,9.3l-8.2-0.1L4.4,21.1z
	 M8.6,12.2c1.1,1.5,2.3,2.9,3.2,4l0.5,3.5l-8,0.2l-2.7-9.1L8.6,12.2z M10.4,2c1.8-0.3,3.6,0.9,3.9,2.7c0.3,1.8-0.9,3.6-2.7,3.9
	C9.7,8.9,8,7.7,7.6,5.9c0,0,0,0,0,0C7.3,4.1,8.5,2.3,10.4,2 M20.4,6.3L21,16.9l-7.5,2.5l-0.3-2c0.4-1,1.7-4.3,2.6-7.5L20.4,6.3z
	 M14.3,30l-0.7-9.3l7.6-2.5l2.2,8.4L14.3,30z M29.9,16.4l-7.6,0.4L21.6,5.9l8.2,1.6L29.9,16.4z M34.3,27.6l-3.2-10.8l-0.1-9.9
	c0-0.3-0.2-0.6-0.5-0.6l-9.5-1.9h0c0,0-0.1,0-0.1,0h-0.1c0,0,0,0-0.1,0c0,0,0,0,0,0c-0.1,0-0.2,0.1-0.2,0.1h0L16.3,8
	c0.3-1.1,0.4-2.2,0.3-3.3c-0.5-3.1-3.5-5.2-6.6-4.6S4.9,3.6,5.4,6.7c0.4,1.5,1.2,2.8,2.1,4L0.8,9.2c-0.2,0-0.4,0-0.6,0.2
	C0,9.6,0,9.8,0,10l3.1,10.5l0.5,10.2c0,0.3,0.3,0.6,0.6,0.6h0.1l9.5,0.2h0.1c0.1,0,0.1,0,0.2,0h0l10.3-3.9l9.4,0.8
	c0.2,0,0.4-0.1,0.5-0.2C34.4,28,34.4,27.8,34.3,27.6"/>
</svg>
