<?xml version="1.0" encoding="utf-8"?>
<!-- Generator: Adobe Illustrator 22.1.0, SVG Export Plug-In . SVG Version: 6.00 Build 0)  -->
<svg version="1.1" id="Layer_1" xmlns="http://www.w3.org/2000/svg" xmlns:xlink="http://www.w3.org/1999/xlink" x="0px" y="0px"
	 viewBox="0 0 39.1 44.7" style="enable-background:new 0 0 39.1 44.7;" xml:space="preserve">
<style type="text/css">
	.st0{fill:#FFFFFF;stroke:#FFFFFF;stroke-miterlimit:10;}
</style>
<g>
	<path class="st0" d="M36.3,5.6h-2.8V2.8c0-1.5-1.2-2.8-2.8-2.8H2.8C1.2,0,0,1.2,0,2.8v33.5c0,1.5,1.2,2.8,2.8,2.8h2.8v2.8
		c0,1.5,1.2,2.8,2.8,2.8h27.9c1.5,0,2.8-1.3,2.8-2.8V8.4C39.1,6.8,37.8,5.6,36.3,5.6z M2.8,36.3V2.8h27.9v33.5H2.8z M36.3,41.9H8.4
		v-2.8h22.3c1.5,0,2.8-1.2,2.8-2.8V8.4h2.8V41.9z"/>
	<path class="st0" d="M26.5,8.4h-14c-0.8,0-1.4,0.6-1.4,1.4s0.6,1.4,1.4,1.4h14c0.8,0,1.4-0.6,1.4-1.4S27.3,8.4,26.5,8.4z"/>
	<path class="st0" d="M26.5,16.7H7c-0.8,0-1.4,0.6-1.4,1.4c0,0.8,0.6,1.4,1.4,1.4h19.5c0.8,0,1.4-0.6,1.4-1.4
		C27.9,17.4,27.3,16.7,26.5,16.7z"/>
	<path class="st0" d="M26.5,22.3H7c-0.8,0-1.4,0.6-1.4,1.4c0,0.8,0.6,1.4,1.4,1.4h19.5c0.8,0,1.4-0.6,1.4-1.4
		C27.9,23,27.3,22.3,26.5,22.3z"/>
	<path class="st0" d="M26.5,27.9H7c-0.8,0-1.4,0.6-1.4,1.4c0,0.8,0.6,1.4,1.4,1.4h19.5c0.8,0,1.4-0.6,1.4-1.4
		C27.9,28.5,27.3,27.9,26.5,27.9z"/>
</g>
</svg>
