<?xml version="1.0" encoding="utf-8"?>
<!-- Generator: Adobe Illustrator 16.0.0, SVG Export Plug-In . SVG Version: 6.00 Build 0)  -->
<!DOCTYPE svg PUBLIC "-//W3C//DTD SVG 1.1//EN" "http://www.w3.org/Graphics/SVG/1.1/DTD/svg11.dtd">
<svg version="1.1" id="Layer_1" xmlns="http://www.w3.org/2000/svg" xmlns:xlink="http://www.w3.org/1999/xlink" x="0px" y="0px"
	 width="96.3px" height="120.45px" viewBox="0 0 96.3 120.45" enable-background="new 0 0 96.3 120.45" xml:space="preserve">
<g>
	<path fill="#FFFFFF" d="M54.75,16.3h-41.5v18.6h0.15c1.5,0,2.783,0.533,3.85,1.6c1.066,1.1,1.6,2.4,1.6,3.9v0.35
		c0,1.534-0.534,2.833-1.6,3.9c-1.067,1.066-2.35,1.6-3.85,1.6h-0.15v1.85h0.15c1.433,0,2.667,0.517,3.7,1.55
		c1.066,1.066,1.6,2.316,1.6,3.75c0,1.467-0.533,2.717-1.6,3.75c-1.034,1.066-2.267,1.6-3.7,1.6h-0.15v1.801h0.15
		c1.367,0,2.533,0.483,3.5,1.449c0.933,0.967,1.4,2.117,1.4,3.451c0,1.399-0.467,2.583-1.4,3.549
		c-0.967,0.967-2.133,1.451-3.5,1.451h-0.15v1.799h0.15c1.367,0,2.55,0.5,3.55,1.5c1,0.967,1.5,2.15,1.5,3.551
		c0,1.133-0.333,2.133-1,3h37.3V53.6l1.75,1.649l2.9,2.351v29.25c0.066,6.101-3.016,9.184-9.25,9.25H30.851l0.1,0.05H17.9
		c-6.233,0-9.35-3.116-9.35-9.35v-4.9l-1.5-1.05l-0.3-0.3c-0.767-0.9-1.15-1.983-1.15-3.25c0-1.4,0.483-2.584,1.45-3.551l1.5-1.049
		V72.65C5.65,72.05,3.467,70.833,2,69l-0.1-0.049c-0.9-0.967-1.35-2.134-1.35-3.5C0.55,64.117,1.033,62.966,2,62
		c0.967-0.966,2.133-1.449,3.5-1.449h3.05c-2.633-0.6-4.8-1.584-6.5-2.95l-0.5-0.45C0.517,56.117,0,54.867,0,53.4
		c0-1.434,0.517-2.683,1.55-3.75c1.067-1.034,2.333-1.55,3.8-1.55h3.2c-1.733-0.466-3.217-1.733-4.45-3.8
		c-0.633-1.067-0.95-2.25-0.95-3.55V40.4c0-1.5,0.517-2.8,1.55-3.9c1.067-1.033,2.35-1.566,3.85-1.6V9.35
		C8.55,3.117,11.667,0,17.9,0h32.15c6.266,0,9.4,3.117,9.4,9.35V40.2l3.75,3.65l5.35,4.45C76.75,55.4,80.9,65.134,81,77.5
		L96.3,92.951l-26.449,27.5c-10.201-10.434-16.301-15.934-18.301-16.5c-7.868-1.033-13.984-3.033-18.35-6L33.149,97.9h18.801
		c6.232-0.066,9.316-3.15,9.25-9.25V56.701l-1.75-1.4l-1.15-0.95L56.5,52.701l-1.75-1.8l-3-3.6l-0.648-0.85
		c-0.768-1.2-1.367-2.383-1.801-3.55c-0.833-2.267-0.883-4.4-0.15-6.4c0.6-1.733,1.25-3.017,1.951-3.85l0.148-0.1
		c1.066-0.034,2.234,0.716,3.5,2.25V16.3 M38.55,10.4l0.5-0.25L39.3,9.6l-0.25-0.55l-0.5-0.2h-9.15l-0.5,0.2l-0.25,0.55l0.25,0.55
		c0.134,0.167,0.301,0.25,0.5,0.25H38.55 M30.3,88.25c0,1,0.367,1.834,1.1,2.5C32.134,91.517,33,91.9,34,91.9
		s1.866-0.383,2.601-1.15c0.732-0.666,1.1-1.5,1.1-2.5c0-1.033-0.367-1.916-1.1-2.649C35.866,84.9,35,84.55,34,84.55
		s-1.866,0.35-2.601,1.05C30.667,86.333,30.3,87.216,30.3,88.25"/>
</g>
</svg>
