<?xml version="1.0" encoding="utf-8"?>
<!-- Generator: Adobe Illustrator 16.0.0, SVG Export Plug-In . SVG Version: 6.00 Build 0)  -->
<!DOCTYPE svg PUBLIC "-//W3C//DTD SVG 1.1//EN" "http://www.w3.org/Graphics/SVG/1.1/DTD/svg11.dtd">
<svg version="1.1" id="Layer_1" xmlns="http://www.w3.org/2000/svg" xmlns:xlink="http://www.w3.org/1999/xlink" x="0px" y="0px"
	 width="133px" height="95.3px" viewBox="0 0 133 95.3" enable-background="new 0 0 133 95.3" xml:space="preserve">
<g>
	<path fill="#FFFFFF" d="M87.8,7.55l0.15-0.15c-0.7,0-1.351,0.35-1.95,1.05c-0.733,0.8-1.4,2.067-2,3.8c-0.7,2-0.65,4.15,0.15,6.45
		l2.05,3.7l-0.55,0.45l-0.7,0.95c-0.267,0.5-0.4,1.05-0.4,1.65c0,1,0.366,1.867,1.101,2.6c0.699,0.733,1.566,1.1,2.6,1.1
		c0.6,0,1.133-0.116,1.6-0.35l0.95-0.75l0.15-0.15l2.6,2.551l2.5,2.05v10.149c-0.366,5.534-3.433,8.268-9.2,8.202L9.35,50.9
		c-3.8,0-6.434-1.166-7.9-3.5C0.483,45.933,0,43.983,0,41.55V9.35C0,3.117,3.117,0,9.35,0h77.9c4.2,0.1,6.916,1.667,8.15,4.7
		c0.333,0.8,0.55,1.684,0.649,2.65v7.7l0.15,0.1l3.7,3.55l5.35,4.45c4.033,3.533,7.1,7.716,9.2,12.55c2.1,4.9,3.167,10.467,3.2,16.7
		L133,67.8l-26.5,27.5c-10.2-10.434-16-15.816-17.4-16.15l-0.3-0.1c-6.233-2.268-12.134-5.734-17.7-10.4
		c-5-4.199-9.3-9.5-12.899-15.9H90.6c4.601-0.5,7.066-3.217,7.4-8.149v-12.75l-0.1-0.15l-1.75-1.5l-0.101-0.051L95,29.2l-1.8-1.65
		L91.85,26.3v-0.05c-1.366-1.434-2.516-2.8-3.449-4.1l-0.301-0.4l-0.3-0.45l-1.35-2.45L86,17.75c-0.834-2.267-0.883-4.4-0.15-6.4
		C86.416,9.617,87.066,8.35,87.8,7.55 M80.3,4.7H16.35v41.5H80.3V4.7 M9.1,20.35c-0.167,0.133-0.25,0.3-0.25,0.5V30l0.25,0.5
		l0.55,0.25l0.55-0.25l0.2-0.5v-9.15l-0.2-0.5L9.65,20.1C9.45,20.1,9.267,20.183,9.1,20.35"/>
</g>
</svg>
