<svg xmlns="http://www.w3.org/2000/svg" viewBox="0 0 49.22 36.302">
  <defs>
    <style>
      .cls-1 {
        fill: #035496;
      }
    </style>
  </defs>
  <g id="Group_1880" data-name="Group 1880" transform="translate(0 -0.034)">
    <path id="Path_262" data-name="Path 262" class="cls-1" d="M43.221,19.246c-3.563-4.338-10.277-9.5-22.114-9.945V1.269A1.232,1.232,0,0,0,19.094.313L.453,15.683A1.239,1.239,0,0,0,0,16.629a1.214,1.214,0,0,0,.443.946l18.641,15.43a1.232,1.232,0,0,0,2.013-.956v-8c7.73.03,19.547.6,25.818,11.666a1.23,1.23,0,0,0,1.077.624,1.107,1.107,0,0,0,.312-.04,1.227,1.227,0,0,0,.916-1.188A26.2,26.2,0,0,0,43.221,19.246ZM19.869,21.581h0a1.237,1.237,0,0,0-1.238,1.238v6.613L3.181,16.639,18.641,3.886V10.5a1.24,1.24,0,0,0,1.218,1.238C37.574,11.908,44.177,22.708,46.1,30.3,38.47,21.591,27.046,21.581,19.869,21.581Z" transform="translate(0 0)"/>
  </g>
</svg>
