<?xml version="1.0" encoding="utf-8"?>
<!-- Generator: Adobe Illustrator 22.1.0, SVG Export Plug-In . SVG Version: 6.00 Build 0)  -->
<svg version="1.1" id="Ebene_1" xmlns="http://www.w3.org/2000/svg" xmlns:xlink="http://www.w3.org/1999/xlink" x="0px" y="0px"
	 viewBox="0 0 43.9 44" style="enable-background:new 0 0 43.9 44;" xml:space="preserve">
<style type="text/css">
	.st0{fill:#ffffff;}
	.st1{font-family:'HelveticaNeue-Light';}
	.st2{font-size:22px;}
</style>
<g id="Group_1821" transform="translate(-165.23 -734.42)">
	<g id="Group_1829" transform="translate(165.28 734.345)">
		<g id="Group_1820" transform="translate(6.872 10.442)">
			<g id="Group_1819">
				<path id="Path_345" class="st0" d="M29.2,11.6c0-3.6,0.3-7.1,0.9-10.6c0.1-0.4-0.1-0.8-0.4-0.9h-0.1c0,0-0.1,0-0.1-0.1h0
					c-0.1,0-0.3,0-0.4,0c-4.6,1.2-9.3,1.8-14,1.7C10.3,1.9,5.6,1.3,1,0.1H0.9c-0.1,0-0.2,0-0.3,0c-0.1,0-0.2,0.1-0.3,0.1l-0.1,0
					c-0.1,0-0.1,0.1-0.2,0.2c0,0,0,0.1-0.1,0.1c0,0-0.1,0.1-0.1,0.1v0.1C0,0.8,0,0.9,0,1v0c0.6,3.5,0.9,7,0.9,10.6
					c0,3.6-0.3,7.1-0.9,10.6v0c0,0.1,0,0.1,0,0.2c0,0.1,0,0.1,0,0.2v0c0,0,0,0.1,0.1,0.1l0.1,0.1c0,0.1,0.1,0.1,0.1,0.1l0.1,0.1
					c0.1,0,0.1,0.1,0.2,0.1h0.3c0,0,0.1,0,0.1,0c4.6-1.2,9.3-1.8,14-1.7c4.7-0.1,9.5,0.5,14,1.7c0.1,0,0.2,0,0.2,0h0.3
					c0.4-0.1,0.6-0.5,0.5-0.9C29.5,18.7,29.2,15.2,29.2,11.6z M27.6,11.6c0,3.2,0.2,6.4,0.7,9.6c-4.3-1-8.8-1.5-13.2-1.5
					c-4.4-0.1-8.9,0.4-13.2,1.4c0.5-3.2,0.7-6.4,0.7-9.6c0-3.2-0.2-6.4-0.7-9.6C6.2,3,10.6,3.5,15,3.4C19.5,3.5,23.9,3,28.2,2
					C27.8,5.2,27.5,8.4,27.6,11.6z"/>
			</g>
		</g>
		<g id="Group_1822" transform="translate(38.623 17.559)">
			<g id="Group_1821-2">
				<path id="Path_346" class="st0" d="M5.2,4.4L5.2,4.4c0-0.1-0.1-0.1-0.1-0.1c0,0,0-0.1-0.1-0.1L1.4,0.2c-0.3-0.3-0.8-0.3-1.2,0
					c0,0,0,0,0,0C0,0.6,0,1,0.2,1.3l3.1,3.4L0.2,8.1c-0.3,0.3-0.3,0.9,0.1,1.2c0.3,0.3,0.8,0.3,1.2,0l3.6-3.9c0,0,0-0.1,0.1-0.1
					c0,0,0.1-0.1,0.1-0.1C5.3,4.8,5.3,4.6,5.2,4.4z"/>
			</g>
		</g>
		<g id="Group_1824" transform="translate(-0.05 17.521)">
			<g id="Group_1823" transform="translate(0)">
				<path id="Path_347" class="st0" d="M5.1,8.2C5.1,8.2,5.1,8.1,5.1,8.2L1.9,4.7L5,1.4C5.4,1,5.3,0.5,5,0.2c-0.3-0.3-0.8-0.3-1.2,0
					L0.2,4.2c0,0,0,0.1-0.1,0.1c0,0-0.1,0.1-0.1,0.1C0,4.6,0,4.8,0.1,5c0,0.1,0.1,0.1,0.1,0.1c0,0,0,0.1,0.1,0.1l3.6,3.9
					C4.1,9.6,4.6,9.6,5,9.4C5.3,9.1,5.4,8.6,5.1,8.2C5.1,8.2,5.1,8.2,5.1,8.2z"/>
			</g>
		</g>
		<g id="Group_1826" transform="translate(17.172 0.075)">
			<g id="Group_1825" transform="translate(0 0)">
				<path id="Path_348" class="st0" d="M9.2,3.8L5.3,0.2c0,0-0.1-0.1-0.1-0.1C5.1,0.1,5,0,4.9,0C4.8,0,4.7,0,4.6,0
					C4.5,0,4.4,0.1,4.3,0.1c0,0-0.1,0-0.1,0.1L0.3,3.8c-0.3,0.3-0.3,0.8,0,1.2c0.2,0.2,0.4,0.3,0.6,0.3v0c0.2,0,0.4-0.1,0.6-0.2
					l3.4-3.1l3.4,3.1c0.3,0.3,0.9,0.3,1.2,0C9.6,4.7,9.6,4.2,9.2,3.8C9.2,3.9,9.2,3.9,9.2,3.8z"/>
			</g>
		</g>
		<g id="Group_1828" transform="translate(17.163 38.74)">
			<g id="Group_1827">
				<path id="Path_349" class="st0" d="M9.2,0.3C8.9,0,8.4,0,8.1,0.2v0L4.8,3.3L1.4,0.2c-0.3-0.3-0.9-0.3-1.2,0s-0.3,0.9,0,1.2
					c0,0,0,0,0.1,0l3.9,3.6c0.1,0,0.1,0.1,0.2,0.1l0.1,0.1c0.2,0.1,0.4,0.1,0.6,0l0.1-0.1c0.1,0,0.1-0.1,0.2-0.1l3.9-3.6
					C9.5,1.1,9.5,0.6,9.2,0.3C9.2,0.3,9.2,0.3,9.2,0.3z"/>
			</g>
		</g>
	</g>
	<text transform="matrix(1 0 0 1 181 762)" class="st0 st1 st2">+</text>
</g>
</svg>
