<?xml version="1.0" encoding="utf-8"?>
<!-- Generator: Adobe Illustrator 16.0.0, SVG Export Plug-In . SVG Version: 6.00 Build 0)  -->
<!DOCTYPE svg PUBLIC "-//W3C//DTD SVG 1.1//EN" "http://www.w3.org/Graphics/SVG/1.1/DTD/svg11.dtd">
<svg version="1.1" id="Layer_1" xmlns="http://www.w3.org/2000/svg" xmlns:xlink="http://www.w3.org/1999/xlink" x="0px" y="0px"
	 width="120.7px" height="136.5px" viewBox="0 0 120.7 136.5" enable-background="new 0 0 120.7 136.5" xml:space="preserve">
<g>
	<path fill="#FFFFFF" d="M77.149,0c3.102,0,4.65,1.55,4.65,4.65v49.3l2,2.3l0.051-1.65v1.7l3.75,3.6l5.35,4.45
		c8.199,7.1,12.35,16.85,12.449,29.25L120.7,109L94.25,136.5C84.049,126.066,77.95,120.566,75.95,120
		c-7.867-1.033-13.982-3.033-18.349-6l-0.051-0.05l-2.15-1.65h23.65c3.1,0,4.65-1.566,4.65-4.7V104.7l0.1-1.8V71.35l-0.1-0.05
		L83.35,71l-0.5-0.5l-0.15-0.1l-0.9-0.801l-0.9-0.85L79.149,67l-3-3.65l-0.6-0.75L75.5,62.5c-0.768-1.2-1.367-2.383-1.801-3.55
		l-0.051-0.15c-0.766-2.233-0.799-4.316-0.1-6.25l0.1-0.2c0.568-1.633,1.184-2.833,1.852-3.6l0.049-0.05l0.1-0.1
		c-0.666,0-1.316,0.35-1.949,1.05l-0.051,0.1V8.15H8.2v88.2h65.449V63.3l0.051,0.1l0.65,0.9c1.199,1.7,2.799,3.483,4.799,5.351
		l1.75,1.649l0.9,0.75v33.601c0,3.133-1.549,4.699-4.65,4.699H4.7c-3.133,0-4.7-1.566-4.7-4.699v-101C0,1.55,1.567,0,4.7,0H77.149
		 M36.3,103.35c0,1.301,0.45,2.4,1.35,3.301c0.9,0.899,1.983,1.35,3.25,1.35c1.3,0,2.4-0.45,3.3-1.35c0.9-0.9,1.35-2,1.35-3.301
		c0-1.266-0.45-2.35-1.35-3.25c-0.9-0.899-2-1.35-3.3-1.35c-1.267,0-2.35,0.45-3.25,1.35C36.75,101,36.3,102.084,36.3,103.35"/>
</g>
</svg>
