<?xml version="1.0" encoding="utf-8"?>
<!-- Generator: Adobe Illustrator 16.0.0, SVG Export Plug-In . SVG Version: 6.00 Build 0)  -->
<!DOCTYPE svg PUBLIC "-//W3C//DTD SVG 1.1//EN" "http://www.w3.org/Graphics/SVG/1.1/DTD/svg11.dtd">
<svg version="1.1" id="Layer_1" xmlns="http://www.w3.org/2000/svg" xmlns:xlink="http://www.w3.org/1999/xlink" x="0px" y="0px"
	 width="147.3px" height="106.15px" viewBox="0 0 147.3 106.15" enable-background="new 0 0 147.3 106.15" xml:space="preserve">
<g>
	<path fill="#FFFFFF" d="M110.4,4.7v21.149l3.801,3.7l5.35,4.45c4.033,3.5,7.1,7.667,9.199,12.5c2.102,4.9,3.184,10.467,3.25,16.7
		L147.3,78.65l-26.5,27.5c-10.166-10.467-16.268-15.983-18.301-16.551c-7.832-1-13.934-3-18.299-6h-0.1l-0.301-0.25h23.4
		c3.133,0,4.699-1.55,4.699-4.649V42.2l-1.5-1.25l-1.1-0.9L107.5,38.4c-1.967-1.9-3.566-3.7-4.799-5.4l-0.6-0.85
		c-0.768-1.2-1.367-2.384-1.801-3.551c-0.834-2.267-0.883-4.416-0.15-6.449c0.566-1.7,1.217-2.967,1.951-3.801l0.148-0.1
		c-0.699,0-1.35,0.35-1.949,1.05c-0.734,0.8-1.383,2.05-1.949,3.75c-0.734,2-0.684,4.167,0.148,6.5
		c0.434,1.101,1.033,2.267,1.801,3.5l0.6,0.851l2.051,2.55c-1.066,0.066-1.984,0.5-2.75,1.3c-0.9,0.866-1.35,1.917-1.35,3.15
		s0.449,2.3,1.35,3.199c0.865,0.9,1.916,1.351,3.15,1.351c1.232,0,2.299-0.45,3.199-1.351c0.801-0.8,1.25-1.75,1.35-2.85l2.5,2.05
		V77.15c0,3.1-1.566,4.649-4.699,4.649H4.65C1.55,81.8,0,80.25,0,77.15V4.7C0,1.566,1.55,0,4.65,0h101.051
		C108.833,0,110.4,1.566,110.4,4.7 M96.351,8.2H8.15v65.45h88.201V8.2"/>
</g>
</svg>
