<svg id="Group_1807" data-name="Group 1807" xmlns="http://www.w3.org/2000/svg" viewBox="0 0 43.17 53.063">
  <defs>
    <style>
      .cls-1 {
        fill: #035496;
      }
    </style>
  </defs>
  <path id="Path_339" data-name="Path 339" class="cls-1" d="M23.9,47.478a.85.85,0,0,0,.9-.9V16.9a.9.9,0,1,0-1.8,0V46.579A.85.85,0,0,0,23.9,47.478Z" transform="translate(-2.314 -1.61)"/>
  <path id="Path_340" data-name="Path 340" class="cls-1" d="M13.9,47.478a.85.85,0,0,0,.9-.9V16.9a.9.9,0,1,0-1.8,0V46.579A.85.85,0,0,0,13.9,47.478Z" transform="translate(-1.308 -1.61)"/>
  <path id="Path_341" data-name="Path 341" class="cls-1" d="M33.9,47.478a.85.85,0,0,0,.9-.9V16.9a.9.9,0,1,0-1.8,0V46.579A.85.85,0,0,0,33.9,47.478Z" transform="translate(-3.321 -1.61)"/>
  <path id="Path_342" data-name="Path 342" class="cls-1" d="M42.271,5.4H29.679A7.142,7.142,0,0,0,28.06,1.169,3.8,3.8,0,0,0,25.182,0H16.189A3.481,3.481,0,0,0,13.4,1.169C12.142,2.338,11.872,4.317,11.692,5.4H.9a.85.85,0,0,0-.9.9.85.85,0,0,0,.9.9H2.7L4.5,48.566a4.359,4.359,0,0,0,4.407,4.5H34.356a4.359,4.359,0,0,0,4.407-4.5L40.472,7.195h1.8a.85.85,0,0,0,.9-.9A.85.85,0,0,0,42.271,5.4ZM14.66,2.428a1.853,1.853,0,0,1,1.529-.63h8.994a1.853,1.853,0,0,1,1.529.63A5.212,5.212,0,0,1,27.791,5.4H13.581A5.212,5.212,0,0,1,14.66,2.428ZM36.874,48.566a2.564,2.564,0,0,1-2.608,2.7H8.9a2.564,2.564,0,0,1-2.608-2.7L4.5,7.195H38.673Z" transform="translate(0 0)"/>
</svg>
