<?xml version="1.0" encoding="utf-8"?>
<!-- Generator: Adobe Illustrator 22.1.0, SVG Export Plug-In . SVG Version: 6.00 Build 0)  -->
<svg version="1.1" id="Ebene_1" xmlns="http://www.w3.org/2000/svg" xmlns:xlink="http://www.w3.org/1999/xlink" x="0px" y="0px"
	 viewBox="0 0 44.6 44.6" style="enable-background:new 0 0 44.6 44.6;" xml:space="preserve">
<style type="text/css">
	.st0{fill:#FFFFFF;stroke:#FFFFFF;stroke-width:0.5;}
</style>
<g id="Group_1837" transform="translate(-12.75 -1.75)">
	<path id="Path_353" class="st0" d="M35,35.9c-6.6,0-11.9-5.3-11.9-11.9c0-6.6,5.3-11.9,11.9-11.9S46.9,17.5,46.9,24v0
		C46.9,30.6,41.6,35.9,35,35.9C35,35.9,35,35.9,35,35.9z M35,13.5c-5.9,0-10.6,4.8-10.6,10.6S29.2,34.8,35,34.8
		c5.9,0,10.6-4.8,10.6-10.6C45.6,18.3,40.9,13.6,35,13.5L35,13.5z"/>
	<g id="Group_1833" transform="translate(34.396 2)">
		<path id="Path_354" class="st0" d="M0.6,6.3C0.3,6.3,0,6.1,0,5.8c0,0,0,0,0-0.1V0.6C0,0.3,0.3,0,0.6,0C1,0,1.3,0.3,1.3,0.6v5.1
			C1.3,6,1,6.3,0.6,6.3C0.7,6.3,0.7,6.3,0.6,6.3z"/>
		<path id="Path_355" class="st0" d="M0.6,44.1c-0.3,0-0.6-0.2-0.6-0.6c0,0,0,0,0-0.1v-5.1c0-0.3,0.3-0.6,0.6-0.6
			c0.3,0,0.6,0.3,0.6,0.6v5.1C1.3,43.8,1,44,0.6,44.1C0.7,44.1,0.7,44.1,0.6,44.1z"/>
	</g>
	<g id="Group_1834" transform="translate(13 23.396)">
		<path id="Path_356" class="st0" d="M5.7,1.3H0.6C0.3,1.3,0,1,0,0.6C0,0.3,0.3,0,0.6,0l0,0h5.1C6,0,6.3,0.3,6.3,0.6
			C6.3,1,6,1.3,5.7,1.3z"/>
		<path id="Path_357" class="st0" d="M43.4,1.3h-5.1c-0.3,0-0.6-0.3-0.6-0.6C37.7,0.3,38,0,38.4,0h5.1c0.3,0,0.6,0.3,0.6,0.6
			C44.1,1,43.8,1.3,43.4,1.3z"/>
	</g>
	<g id="Group_1835" transform="translate(19.267 8.394)">
		<path id="Path_358" class="st0" d="M4.2,4.8c-0.2,0-0.4,0-0.5-0.1L0.2,1.1C0,0.8,0,0.4,0.2,0.2C0.5,0,0.8,0,1.1,0.2l3.5,3.5
			c0.2,0.2,0.3,0.6,0,0.9c0,0,0,0,0,0C4.5,4.6,4.4,4.8,4.2,4.8z"/>
		<path id="Path_359" class="st0" d="M31,31.5c-0.2,0-0.4,0-0.5-0.1l-3.5-3.5c-0.3-0.2-0.3-0.6,0-0.9c0.2-0.3,0.6-0.3,0.9,0
			c0,0,0,0,0,0l3.5,3.5c0.2,0.2,0.3,0.6,0,0.9c0,0,0,0,0,0C31.2,31.3,31.1,31.5,31,31.5z"/>
	</g>
	<g id="Group_1836" transform="translate(19.267 8.267)">
		<path id="Path_360" class="st0" d="M0.7,31.6c-0.2,0-0.4,0-0.5-0.1c-0.2-0.2-0.3-0.6,0-0.9c0,0,0,0,0,0L3.7,27
			c0.2-0.3,0.6-0.3,0.9,0s0.3,0.6,0,0.9c0,0,0,0,0,0l-3.5,3.5C0.9,31.5,0.8,31.6,0.7,31.6z"/>
		<path id="Path_361" class="st0" d="M27.4,4.9c-0.2,0-0.4,0-0.5-0.1c-0.2-0.2-0.3-0.6,0-0.9c0,0,0,0,0,0l3.5-3.7
			c0.3-0.2,0.7-0.2,0.9,0c0.2,0.2,0.2,0.6,0,0.9l-3.5,3.5C27.7,4.8,27.5,4.9,27.4,4.9z"/>
	</g>
</g>
</svg>
